SplineFontDB: 3.2
FontName: Yisraeleeth
FullName: Yisraeleet 
FamilyName: Yisraeleeth
Weight: Book
Copyright: Typeface (c) Zion International Associates Data (c) Zion In ternational Associates 2020. All rights reserved.
Version: 0.1
ItalicAngle: 0
UnderlinePosition: -251
UnderlineWidth: 98
Ascent: 1638
Descent: 410
InvalidEm: 0
sfntRevision: 0x0000199a
LayerCount: 2
Layer: 0 1 "Back" 1
Layer: 1 1 "Fore" 0
XUID: [1021 722 755319817 10785311]
StyleMap: 0x0040
FSType: 0
OS2Version: 3
OS2_WeightWidthSlopeOnly: 0
OS2_UseTypoMetrics: 0
CreationTime: 1377702308
ModificationTime: 1611053040
PfmFamily: 81
TTFWeight: 400
TTFWidth: 5
LineGap: 0
VLineGap: 0
Panose: 0 0 0 0 0 0 0 0 0 0
OS2TypoAscent: 1495
OS2TypoAOffset: 0
OS2TypoDescent: -686
OS2TypoDOffset: 0
OS2TypoLinegap: 0
OS2WinAscent: 1495
OS2WinAOffset: 0
OS2WinDescent: 686
OS2WinDOffset: 0
HheadAscent: 1495
HheadAOffset: 0
HheadDescent: -686
HheadDOffset: 0
OS2SubXSize: 1434
OS2SubYSize: 1331
OS2SubXOff: 0
OS2SubYOff: 287
OS2SupXSize: 1434
OS2SupYSize: 1331
OS2SupXOff: 0
OS2SupYOff: 977
OS2StrikeYSize: 102
OS2StrikeYPos: 512
OS2CapHeight: 1466
OS2XHeight: 1065
OS2Vendor: 'sryp'
OS2CodePages: 00000020.00000000
OS2UnicodeRanges: 80000843.40002002.00000000.00000000
Lookup: 1 0 0 "'ccmp' Glyph Composition/Decomposition in Hebrew lookup 0" { "'ccmp' Glyph Composition/Decomposition in Hebrew lookup 0 subtable"  } ['ccmp' ('hebr' <'dflt' > ) ]
Lookup: 6 257 0 "'ccmp' Glyph Composition/Decomposition in Hebrew lookup 1" { "'ccmp' Glyph Composition/Decomposition in Hebrew lookup 1 subtable"  } ['ccmp' ('hebr' <'dflt' > ) ]
Lookup: 4 1 0 "'ccmp' Glyph Composition/Decomposition in Hebrew lookup 2" { "'ccmp' Glyph Composition/Decomposition in Hebrew lookup 2 subtable"  } ['ccmp' ('hebr' <'dflt' > ) ]
Lookup: 4 1 0 "'ccmp' Glyph Composition/Decomposition in Hebrew lookup 3" { "'ccmp' Glyph Composition/Decomposition in Hebrew lookup 3 subtable"  } ['ccmp' ('hebr' <'dflt' > ) ]

StartChar: .notdef
Encoding: 65536 -1 0
Width: 1536
GlyphClass: 2
Flags: W
LayerCount: 2
Fore
SplineSet
256 0 m 1,0,-1
 256 1280 l 1,1,-1
 1280 1280 l 1,2,-1
 1280 0 l 1,3,-1
 256 0 l 1,0,-1
289 33 m 1,4,-1
 1247 33 l 1,5,-1
 1247 1247 l 1,6,-1
 289 1247 l 1,7,-1
 289 33 l 1,4,-1
EndSplineSet
EndChar

StartChar: exclam
Encoding: 33 33 5
Width: 512
GlyphClass: 2
Flags: W
LayerCount: 2
Fore
SplineSet
201 365 m 1,0,-1
 158 901 l 1,1,-1
 158 1227 l 1,2,-1
 356 1227 l 1,3,-1
 356 901 l 1,4,-1
 317 365 l 1,5,-1
 201 365 l 1,0,-1
156 0 m 1,6,-1
 156 205 l 1,7,-1
 360 205 l 1,8,-1
 360 0 l 1,9,-1
 156 0 l 1,6,-1
EndSplineSet
EndChar

StartChar: quotedbl
Encoding: 34 34 6
Width: 849
GlyphClass: 2
Flags: W
LayerCount: 2
Fore
SplineSet
461 676 m 1,0,-1
 559 1061 l 1,1,-1
 764 1061 l 1,2,-1
 582 676 l 1,3,-1
 461 676 l 1,0,-1
90 676 m 1,4,-1
 188 1061 l 1,5,-1
 393 1061 l 1,6,-1
 211 676 l 1,7,-1
 90 676 l 1,4,-1
EndSplineSet
EndChar

StartChar: numbersign
Encoding: 35 35 7
Width: 1136
GlyphClass: 2
Flags: W
LayerCount: 2
Fore
SplineSet
205 0 m 1,0,-1
 262 279 l 1,1,-1
 131 279 l 1,2,-1
 131 416 l 1,3,-1
 287 416 l 1,4,-1
 336 645 l 1,5,-1
 131 645 l 1,6,-1
 131 782 l 1,7,-1
 362 782 l 1,8,-1
 422 1061 l 1,9,-1
 561 1061 l 1,10,-1
 504 782 l 1,11,-1
 727 782 l 1,12,-1
 782 1061 l 1,13,-1
 924 1061 l 1,14,-1
 866 782 l 1,15,-1
 1010 782 l 1,16,-1
 1010 645 l 1,17,-1
 838 645 l 1,18,-1
 795 416 l 1,19,-1
 1010 416 l 1,20,-1
 1010 279 l 1,21,-1
 766 279 l 1,22,-1
 709 0 l 1,23,-1
 567 0 l 1,24,-1
 625 279 l 1,25,-1
 401 279 l 1,26,-1
 346 0 l 1,27,-1
 205 0 l 1,0,-1
430 416 m 1,28,-1
 651 416 l 1,29,-1
 698 645 l 1,30,-1
 475 645 l 1,31,-1
 430 416 l 1,28,-1
EndSplineSet
EndChar

StartChar: dollar
Encoding: 36 36 8
Width: 942
GlyphClass: 2
Flags: W
LayerCount: 2
Fore
SplineSet
426 477 m 1,0,-1
 350 510 l 2,1,2
 231 561 231 561 174 631 c 0,3,4
 121 697 121 697 121 803 c 0,5,6
 121 936 121 936 213 1010 c 0,7,8
 303 1084 303 1084 426 1083 c 1,9,-1
 426 1212 l 1,10,-1
 528 1212 l 1,11,-1
 528 1083 l 1,12,13
 780 1044 780 1044 807 791 c 1,14,-1
 659 766 l 1,15,16
 639 911 639 911 528 936 c 1,17,-1
 528 623 l 1,18,-1
 594 596 l 2,19,20
 721 543 721 543 784 469 c 0,21,22
 841 399 841 399 842 289 c 0,23,24
 842 158 842 158 750 68 c 0,25,26
 656 -22 656 -22 528 -23 c 1,27,-1
 528 -154 l 1,28,-1
 426 -154 l 1,29,-1
 426 -20 l 1,30,31
 145 19 145 19 111 317 c 1,32,-1
 262 344 l 1,33,34
 282 151 282 151 426 121 c 1,35,-1
 426 477 l 1,0,-1
426 662 m 1,36,-1
 426 934 l 1,37,38
 377 934 377 934 328 901 c 0,39,40
 283 870 283 870 283 813 c 128,-1,41
 283 756 283 756 311 727 c 0,42,43
 334 705 334 705 426 662 c 1,36,-1
528 434 m 1,44,-1
 528 117 l 1,45,46
 678 152 678 152 678 270 c 0,47,48
 678 313 678 313 645 358 c 0,49,50
 614 399 614 399 528 434 c 1,44,-1
EndSplineSet
EndChar

StartChar: percent
Encoding: 37 37 9
Width: 1441
GlyphClass: 2
Flags: W
LayerCount: 2
Fore
SplineSet
344 -41 m 1,0,-1
 940 1108 l 1,1,-1
 1102 1108 l 1,2,-1
 508 -41 l 1,3,-1
 344 -41 l 1,0,-1
80 817 m 0,4,5
 80 946 80 946 154 1026 c 0,6,7
 230 1108 230 1108 344 1108 c 0,8,9
 471 1108 471 1108 541 1018 c 0,10,11
 609 930 609 930 608 817 c 0,12,13
 608 706 608 706 540.5 618 c 128,-1,14
 473 530 473 530 344 530 c 0,15,16
 217 530 217 530 150 616 c 0,17,18
 80 704 80 704 80 817 c 0,4,5
238 819 m 128,-1,20
 238 631 238 631 344 631 c 128,-1,21
 450 631 450 631 451 819 c 0,22,23
 451 1007 451 1007 344 1008 c 0,24,19
 238 1007 238 1007 238 819 c 128,-1,20
1366 248 m 0,25,26
 1366 119 1366 119 1292 39 c 0,27,28
 1216 -43 1216 -43 1102 -43 c 0,29,30
 973 -43 973 -43 905.5 45 c 128,-1,31
 838 133 838 133 838 248 c 0,32,33
 838 377 838 377 913 455 c 0,34,35
 991 535 991 535 1102 535 c 128,-1,36
 1213 535 1213 535 1288 457 c 0,37,38
 1366 375 1366 375 1366 248 c 0,25,26
1208 246 m 128,-1,40
 1208 434 1208 434 1102 434 c 128,-1,41
 996 434 996 434 995 246 c 0,42,43
 995 58 995 58 1102 57 c 0,44,39
 1208 58 1208 58 1208 246 c 128,-1,40
EndSplineSet
EndChar

StartChar: quotesingle
Encoding: 39 39 10
Width: 479
GlyphClass: 2
Flags: W
LayerCount: 2
Fore
SplineSet
90 676 m 1,0,-1
 188 1061 l 1,1,-1
 393 1061 l 1,2,-1
 211 676 l 1,3,-1
 90 676 l 1,0,-1
EndSplineSet
EndChar

StartChar: parenleft
Encoding: 40 40 11
Width: 489
GlyphClass: 2
Flags: W
LayerCount: 2
Fore
SplineSet
438 1270 m 1,0,1
 288 973 288 973 289 528 c 0,2,3
 289 120 289 120 449 -207 c 1,4,-1
 346 -207 l 1,5,6
 110 155 110 155 111 528 c 0,7,8
 111 948 111 948 336 1270 c 1,9,-1
 438 1270 l 1,0,1
EndSplineSet
EndChar

StartChar: parenright
Encoding: 41 41 12
Width: 489
GlyphClass: 2
Flags: W
LayerCount: 2
Fore
SplineSet
45 -207 m 1,0,1
 205 121 205 121 205 528 c 0,2,3
 205 972 205 972 55 1270 c 1,4,-1
 158 1270 l 1,5,6
 383 948 383 948 383 528 c 0,7,8
 383 157 383 157 147 -207 c 1,9,-1
 45 -207 l 1,0,1
EndSplineSet
EndChar

StartChar: asterisk
Encoding: 42 42 13
Width: 692
GlyphClass: 2
Flags: W
LayerCount: 2
Fore
SplineSet
123 741 m 1,0,1
 227 872 227 872 270 911 c 1,2,3
 149 934 149 934 49 963 c 1,4,-1
 92 1090 l 1,5,6
 244 1035 244 1035 299 1001 c 1,7,8
 285 1114 285 1114 285 1227 c 1,9,-1
 412 1227 l 1,10,11
 412 1121 412 1121 391 1001 c 1,12,13
 477 1048 477 1048 602 1090 c 1,14,-1
 645 963 l 1,15,16
 541 926 541 926 422 911 c 1,17,18
 518 815 518 815 578 741 c 1,19,-1
 469 664 l 1,20,21
 383 791 383 791 344 856 c 1,22,23
 278 727 278 727 225 664 c 1,24,-1
 123 741 l 1,0,1
EndSplineSet
EndChar

StartChar: plus
Encoding: 43 43 14
Width: 995
GlyphClass: 2
Flags: W
LayerCount: 2
Fore
SplineSet
418 182 m 1,0,-1
 418 455 l 1,1,-1
 147 455 l 1,2,-1
 147 608 l 1,3,-1
 418 608 l 1,4,-1
 418 883 l 1,5,-1
 582 883 l 1,6,-1
 582 608 l 1,7,-1
 852 608 l 1,8,-1
 852 455 l 1,9,-1
 582 455 l 1,10,-1
 582 182 l 1,11,-1
 418 182 l 1,0,-1
EndSplineSet
EndChar

StartChar: comma
Encoding: 44 44 15
Width: 432
GlyphClass: 2
Flags: W
LayerCount: 2
Fore
SplineSet
123 0 m 1,0,-1
 123 205 l 1,1,-1
 328 205 l 1,2,-1
 328 0 l 2,3,4
 328 -221 328 -221 162 -289 c 1,5,-1
 111 -213 l 1,6,7
 226 -166 226 -166 225 0 c 1,8,-1
 123 0 l 1,0,-1
EndSplineSet
EndChar

StartChar: hyphen
Encoding: 45 45 16
Width: 710
GlyphClass: 2
Flags: W
LayerCount: 2
Fore
SplineSet
90 451 m 1,0,-1
 90 610 l 1,1,-1
 625 610 l 1,2,-1
 625 451 l 1,3,-1
 90 451 l 1,0,-1
EndSplineSet
EndChar

StartChar: period
Encoding: 46 46 17
Width: 421
GlyphClass: 2
Flags: W
LayerCount: 2
Fore
SplineSet
111 0 m 1,0,-1
 111 205 l 1,1,-1
 315 205 l 1,2,-1
 315 0 l 1,3,-1
 111 0 l 1,0,-1
EndSplineSet
EndChar

StartChar: slash
Encoding: 47 47 18
Width: 634
GlyphClass: 2
Flags: W
LayerCount: 2
Fore
SplineSet
59 -25 m 1,0,-1
 424 1270 l 1,1,-1
 580 1270 l 1,2,-1
 215 -25 l 1,3,-1
 59 -25 l 1,0,-1
EndSplineSet
EndChar

StartChar: zero
Encoding: 48 48 19
Width: 995
GlyphClass: 2
Flags: W
LayerCount: 2
Fore
SplineSet
94 532 m 0,0,1
 94 790 94 790 207 940 c 0,2,3
 324 1092 324 1092 500 1092 c 0,4,5
 680 1092 680 1092 793 940 c 128,-1,6
 906 788 906 788 905 532 c 0,7,8
 905 276 905 276 795 125 c 0,9,10
 682 -31 682 -31 500 -31 c 0,11,12
 312 -31 312 -31 203 128.5 c 128,-1,13
 94 288 94 288 94 532 c 0,0,1
705 530 m 128,-1,15
 705 933 705 933 500 933.5 c 128,-1,16
 295 934 295 934 295 530 c 0,17,18
 295 127 295 127 500 127 c 128,-1,14
 705 127 705 127 705 530 c 128,-1,15
EndSplineSet
EndChar

StartChar: one
Encoding: 49 49 20
Width: 995
GlyphClass: 2
Flags: W
LayerCount: 2
Fore
SplineSet
219 870 m 1,0,1
 430 919 430 919 553 1079 c 1,2,-1
 659 1079 l 1,3,-1
 659 0 l 1,4,-1
 479 0 l 1,5,-1
 479 819 l 1,6,7
 389 749 389 749 219 729 c 1,8,-1
 219 870 l 1,0,1
EndSplineSet
EndChar

StartChar: two
Encoding: 50 50 21
Width: 995
GlyphClass: 2
Flags: W
LayerCount: 2
Fore
SplineSet
121 803 m 1,0,1
 146 936 146 936 252 1014 c 0,2,3
 356 1090 356 1090 508 1090 c 0,4,5
 653 1090 653 1090 752 1001 c 0,6,7
 846 915 846 915 846 766 c 0,8,9
 846 588 846 588 618 424 c 0,10,11
 372 250 372 250 346 154 c 1,12,-1
 872 154 l 1,13,-1
 872 0 l 1,14,-1
 106 0 l 1,15,16
 126 168 126 168 223 287 c 0,17,18
 307 391 307 391 514 545 c 0,19,20
 661 654 661 654 662 762 c 0,21,22
 662 832 662 832 625 883 c 128,-1,23
 588 934 588 934 496 934 c 0,24,25
 332 934 332 934 305 772 c 1,26,-1
 121 803 l 1,0,1
EndSplineSet
EndChar

StartChar: three
Encoding: 51 51 22
Width: 995
GlyphClass: 2
Flags: W
LayerCount: 2
Fore
SplineSet
668 580 m 1,0,1
 758 557 758 557 813 477 c 0,2,3
 864 401 864 401 868 311 c 1,4,5
 868 166 868 166 768 72 c 0,6,7
 664 -24 664 -24 504 -25 c 0,8,9
 338 -25 338 -25 223 59 c 0,10,11
 104 145 104 145 90 270 c 1,12,-1
 258 301 l 1,13,14
 266 231 266 231 334 176 c 0,15,16
 400 123 400 123 487 123 c 0,17,18
 579 123 579 123 634.5 172 c 128,-1,19
 690 221 690 221 690 299 c 0,20,21
 690 381 690 381 633 434 c 0,22,23
 572 491 572 491 504 492 c 0,24,25
 459 492 459 492 418 483 c 1,26,-1
 434 623 l 1,27,-1
 455 623 l 2,28,29
 545 623 545 623 592 676 c 0,30,31
 637 727 637 727 637 788 c 0,32,33
 637 866 637 866 592 899 c 0,34,35
 545 934 545 934 481 934 c 0,36,37
 342 934 342 934 299 807 c 1,38,-1
 131 836 l 1,39,40
 158 955 158 955 260 1022 c 0,41,42
 362 1090 362 1090 496 1090 c 0,43,44
 613 1090 613 1090 713 1016 c 0,45,46
 811 942 811 942 811 803 c 0,47,48
 811 643 811 643 668 580 c 1,0,1
EndSplineSet
EndChar

StartChar: four
Encoding: 52 52 23
Width: 995
GlyphClass: 2
Flags: W
LayerCount: 2
Fore
SplineSet
594 0 m 1,0,-1
 594 238 l 1,1,-1
 57 238 l 1,2,-1
 57 338 l 1,3,-1
 651 1079 l 1,4,-1
 766 1079 l 1,5,-1
 766 377 l 1,6,-1
 932 377 l 1,7,-1
 932 238 l 1,8,-1
 766 238 l 1,9,-1
 766 0 l 1,10,-1
 594 0 l 1,0,-1
266 377 m 1,11,-1
 594 377 l 1,12,-1
 594 786 l 1,13,-1
 266 377 l 1,11,-1
EndSplineSet
EndChar

StartChar: five
Encoding: 53 53 24
Width: 995
GlyphClass: 2
Flags: W
LayerCount: 2
Fore
SplineSet
285 285 m 1,0,1
 291 215 291 215 348 170 c 0,2,3
 407 123 407 123 489 123 c 0,4,5
 583 123 583 123 637 182 c 0,6,7
 692 243 692 243 692 346 c 0,8,9
 692 446 692 446 637 508 c 0,10,11
 580 571 580 571 492 571 c 0,12,13
 367 571 367 571 295 481 c 1,14,-1
 147 496 l 1,15,-1
 254 1061 l 1,16,-1
 823 1061 l 1,17,-1
 823 907 l 1,18,-1
 379 907 l 1,19,-1
 326 637 l 1,20,21
 412 707 412 707 535 707 c 0,22,23
 682 707 682 707 778 604 c 0,24,25
 876 498 876 498 877 350 c 0,26,27
 877 180 877 180 764 78 c 0,28,29
 649 -24 649 -24 473 -25 c 0,30,31
 342 -25 342 -25 238 51 c 0,32,33
 132 129 132 129 111 262 c 1,34,-1
 285 285 l 1,0,1
EndSplineSet
EndChar

StartChar: six
Encoding: 54 54 25
Width: 995
GlyphClass: 2
Flags: W
LayerCount: 2
Fore
SplineSet
291 575 m 1,0,1
 395 706 395 706 561 707 c 0,2,3
 708 707 708 707 807 608 c 0,4,5
 903 512 903 512 903 350 c 0,6,7
 903 190 903 190 799 84 c 0,8,9
 693 -25 693 -25 524 -25 c 0,10,11
 331 -25 331 -25 219 121 c 0,12,13
 110 260 110 260 111 502 c 0,14,15
 111 776 111 776 229 930 c 0,16,17
 350 1088 350 1088 553 1090 c 0,18,19
 672 1090 672 1090 754 1032 c 0,20,21
 836 975 836 975 862 883 c 1,22,-1
 688 856 l 1,23,24
 647 934 647 934 539 934 c 0,25,26
 426 934 426 934 358 838 c 0,27,28
 291 745 291 745 291 575 c 1,0,1
322 346 m 0,29,30
 322 246 322 246 377 184.5 c 128,-1,31
 432 123 432 123 518 123 c 0,32,33
 618 123 618 123 668 184 c 0,34,35
 721 250 721 250 721 346 c 0,36,37
 721 444 721 444 670 504 c 0,38,39
 621 563 621 563 524 563 c 0,40,41
 436 563 436 563 379 504 c 0,42,43
 322 444 322 444 322 346 c 0,29,30
EndSplineSet
EndChar

StartChar: seven
Encoding: 55 55 26
Width: 995
GlyphClass: 2
Flags: W
LayerCount: 2
Fore
SplineSet
125 907 m 1,0,-1
 125 1061 l 1,1,-1
 864 1061 l 1,2,-1
 864 940 l 1,3,4
 735 811 735 811 645 547 c 0,5,6
 557 287 557 287 557 0 c 1,7,-1
 373 0 l 1,8,9
 373 266 373 266 457 530 c 0,10,11
 539 784 539 784 649 907 c 1,12,-1
 125 907 l 1,0,-1
EndSplineSet
EndChar

StartChar: eight
Encoding: 56 56 27
Width: 995
GlyphClass: 2
Flags: W
LayerCount: 2
Fore
SplineSet
283 582 m 1,0,1
 164 664 164 664 164 803 c 0,2,3
 164 944 164 944 264 1016 c 0,4,5
 366 1090 366 1090 500 1090 c 0,6,7
 629 1090 629 1090 732.5 1016 c 128,-1,8
 836 942 836 942 836 803 c 128,-1,9
 836 664 836 664 717 582 c 1,10,-1
 717 580 l 1,11,12
 793 543 793 543 846 469 c 0,13,14
 893 401 893 401 893 311 c 0,15,16
 893 176 893 176 784 72 c 0,17,18
 678 -28 678 -28 500 -29 c 0,19,20
 320 -29 320 -29 213 74 c 0,21,22
 107 178 107 178 106 311 c 0,23,24
 106 397 106 397 156 469 c 0,25,26
 209 545 209 545 283 580 c 1,27,-1
 283 582 l 1,0,1
500 639 m 128,-1,29
 561 639 561 639 610 676 c 0,30,31
 661 715 661 715 662 782 c 0,32,33
 662 860 662 860 612 897 c 0,34,35
 563 934 563 934 500 934 c 0,36,37
 430 934 430 934 383 893 c 0,38,39
 338 854 338 854 338 782 c 0,40,41
 338 714 338 714 387 678 c 0,42,28
 439 639 439 639 500 639 c 128,-1,29
500 127 m 128,-1,44
 578 127 578 127 637 172 c 128,-1,45
 696 217 696 217 696 311 c 0,46,47
 696 387 696 387 639 438 c 128,-1,48
 582 489 582 489 500 489 c 0,49,50
 416 489 416 489 359.5 438 c 128,-1,51
 303 387 303 387 303 311 c 0,52,53
 303 217 303 217 362 172 c 0,54,43
 422 127 422 127 500 127 c 128,-1,44
EndSplineSet
EndChar

StartChar: nine
Encoding: 57 57 28
Width: 995
GlyphClass: 2
Flags: W
LayerCount: 2
Fore
SplineSet
709 504 m 1,0,1
 605 373 605 373 440 373 c 0,2,3
 286 373 286 373 195 469 c 0,4,5
 99 571 99 571 98 715 c 0,6,7
 98 873 98 873 209 981 c 0,8,9
 322 1090 322 1090 469 1090 c 0,10,11
 659 1090 659 1090 774 946 c 0,12,13
 889 801 889 801 889 561 c 0,14,15
 889 299 889 299 770 137 c 128,-1,16
 651 -25 651 -25 444 -25 c 0,17,18
 333 -25 333 -25 246 39 c 0,19,20
 154 107 154 107 135 182 c 1,21,-1
 309 209 l 1,22,23
 350 131 350 131 459 131 c 0,24,25
 578 131 578 131 641 231 c 0,26,27
 709 338 709 338 709 504 c 1,0,1
676 719 m 0,28,29
 676 823 676 823 625 883 c 0,30,31
 576 942 576 942 479 942 c 0,32,33
 397 942 397 942 342 881 c 0,34,35
 285 818 285 818 285 719 c 0,36,37
 285 637 285 637 338 578 c 0,38,39
 389 521 389 521 477 520 c 0,40,41
 559 520 559 520 616 578 c 0,42,43
 676 637 676 637 676 719 c 0,28,29
EndSplineSet
EndChar

StartChar: colon
Encoding: 58 58 29
Width: 481
GlyphClass: 2
Flags: W
LayerCount: 2
Fore
SplineSet
139 606 m 1,0,-1
 139 811 l 1,1,-1
 344 811 l 1,2,-1
 344 606 l 1,3,-1
 139 606 l 1,0,-1
139 0 m 1,4,-1
 139 205 l 1,5,-1
 344 205 l 1,6,-1
 344 0 l 1,7,-1
 139 0 l 1,4,-1
EndSplineSet
EndChar

StartChar: semicolon
Encoding: 59 59 30
Width: 493
GlyphClass: 2
Flags: W
LayerCount: 2
Fore
SplineSet
152 606 m 1,0,-1
 152 811 l 1,1,-1
 356 811 l 1,2,-1
 356 606 l 1,3,-1
 152 606 l 1,0,-1
152 0 m 1,4,-1
 152 205 l 1,5,-1
 356 205 l 1,6,-1
 356 0 l 2,7,8
 356 -109 356 -109 324 -174 c 0,9,10
 289 -246 289 -246 190 -289 c 1,11,-1
 139 -213 l 1,12,13
 256 -166 256 -166 256 0 c 1,14,-1
 152 0 l 1,4,-1
EndSplineSet
EndChar

StartChar: less
Encoding: 60 60 31
Width: 995
GlyphClass: 2
Flags: W
LayerCount: 2
Fore
SplineSet
104 465 m 1,0,-1
 104 604 l 1,1,-1
 895 938 l 1,2,-1
 895 776 l 1,3,-1
 305 535 l 1,4,-1
 895 291 l 1,5,-1
 895 127 l 1,6,-1
 104 465 l 1,0,-1
EndSplineSet
EndChar

StartChar: equal
Encoding: 61 61 32
Width: 995
GlyphClass: 2
Flags: W
LayerCount: 2
Fore
SplineSet
850 614 m 1,0,-1
 150 614 l 1,1,-1
 150 774 l 1,2,-1
 850 774 l 1,3,-1
 850 614 l 1,0,-1
850 287 m 1,4,-1
 150 287 l 1,5,-1
 150 446 l 1,6,-1
 850 446 l 1,7,-1
 850 287 l 1,4,-1
EndSplineSet
EndChar

StartChar: greater
Encoding: 62 62 33
Width: 995
GlyphClass: 2
Flags: W
LayerCount: 2
Fore
SplineSet
895 465 m 1,0,-1
 104 127 l 1,1,-1
 104 291 l 1,2,-1
 694 535 l 1,3,-1
 104 776 l 1,4,-1
 104 938 l 1,5,-1
 895 604 l 1,6,-1
 895 465 l 1,0,-1
EndSplineSet
EndChar

StartChar: question
Encoding: 63 63 34
Width: 899
GlyphClass: 2
Flags: W
LayerCount: 2
Fore
SplineSet
336 365 m 1,0,1
 336 480 336 480 373 549 c 0,2,3
 414 623 414 623 487 692 c 0,4,5
 581 778 581 778 606 821 c 0,6,7
 631 866 631 866 631 926 c 0,8,9
 631 1002 631 1002 571 1049 c 0,10,11
 510 1098 510 1098 426 1098 c 0,12,13
 344 1098 344 1098 293 1057 c 0,14,15
 238 1014 238 1014 219 946 c 1,16,-1
 59 971 l 1,17,18
 84 1100 84 1100 195 1178 c 0,19,20
 304 1254 304 1254 457 1253 c 0,21,22
 609 1253 609 1253 711 1161 c 0,23,24
 813 1071 813 1071 813 930 c 0,25,26
 813 852 813 852 778 788 c 0,27,28
 741 720 741 720 631 629 c 0,29,30
 545 557 545 557 510 500 c 0,31,32
 475 441 475 441 475 365 c 1,33,-1
 336 365 l 1,0,1
305 0 m 1,34,-1
 305 205 l 1,35,-1
 512 205 l 1,36,-1
 512 0 l 1,37,-1
 305 0 l 1,34,-1
EndSplineSet
EndChar

StartChar: bracketleft
Encoding: 91 91 35
Width: 565
GlyphClass: 2
Flags: W
LayerCount: 2
Fore
SplineSet
156 -207 m 1,0,-1
 156 1270 l 1,1,-1
 524 1270 l 1,2,-1
 524 1135 l 1,3,-1
 307 1135 l 1,4,-1
 307 -72 l 1,5,-1
 524 -72 l 1,6,-1
 524 -207 l 1,7,-1
 156 -207 l 1,0,-1
EndSplineSet
EndChar

StartChar: backslash
Encoding: 92 92 36
Width: 634
GlyphClass: 2
Flags: W
LayerCount: 2
Fore
SplineSet
578 -25 m 1,0,-1
 424 -25 l 1,1,-1
 59 1270 l 1,2,-1
 215 1270 l 1,3,-1
 578 -25 l 1,0,-1
EndSplineSet
EndChar

StartChar: bracketright
Encoding: 93 93 37
Width: 567
GlyphClass: 2
Flags: W
LayerCount: 2
Fore
SplineSet
416 -207 m 1,0,-1
 45 -207 l 1,1,-1
 45 -72 l 1,2,-1
 262 -72 l 1,3,-1
 262 1135 l 1,4,-1
 45 1135 l 1,5,-1
 45 1270 l 1,6,-1
 416 1270 l 1,7,-1
 416 -207 l 1,0,-1
EndSplineSet
EndChar

StartChar: braceleft
Encoding: 123 123 38
Width: 614
GlyphClass: 2
Flags: W
LayerCount: 2
Fore
SplineSet
100 594 m 1,0,1
 215 614 215 614 215 834 c 2,2,-1
 215 1010 l 2,3,4
 215 1270 215 1270 496 1270 c 2,5,-1
 573 1270 l 1,6,-1
 573 1149 l 1,7,-1
 524 1149 l 2,8,9
 438 1149 438 1149 403 1110 c 0,10,11
 370 1075 370 1075 371 987 c 2,12,-1
 371 834 l 2,13,14
 371 705 371 705 336 639 c 0,15,16
 297 567 297 567 213 530 c 1,17,18
 371 464 371 464 371 227 c 2,19,-1
 371 74 l 2,20,21
 371 -24 371 -24 412 -55 c 0,22,23
 457 -88 457 -88 524 -88 c 2,24,-1
 573 -88 l 1,25,-1
 573 -209 l 1,26,-1
 496 -209 l 2,27,28
 215 -209 215 -209 215 51 c 2,29,-1
 215 227 l 2,30,31
 215 446 215 446 100 467 c 1,32,-1
 100 594 l 1,0,1
EndSplineSet
EndChar

StartChar: bar
Encoding: 124 124 39
Width: 559
GlyphClass: 2
Flags: W
LayerCount: 2
Fore
SplineSet
211 -209 m 1,0,-1
 211 1270 l 1,1,-1
 352 1270 l 1,2,-1
 352 -209 l 1,3,-1
 211 -209 l 1,0,-1
EndSplineSet
EndChar

StartChar: braceright
Encoding: 125 125 40
Width: 614
GlyphClass: 2
Flags: W
LayerCount: 2
Fore
SplineSet
518 467 m 1,0,1
 403 447 403 447 403 227 c 2,2,-1
 403 51 l 2,3,4
 403 -209 403 -209 123 -209 c 2,5,-1
 45 -209 l 1,6,-1
 45 -88 l 1,7,-1
 94 -88 l 2,8,9
 178 -88 178 -88 213 -49 c 128,-1,10
 248 -10 248 -10 248 74 c 2,11,-1
 248 227 l 2,12,13
 248 354 248 354 285 424 c 128,-1,14
 322 494 322 494 406 530 c 1,15,16
 248 596 248 596 248 834 c 2,17,-1
 248 987 l 2,18,19
 248 1073 248 1073 213 1110 c 0,20,21
 176 1149 176 1149 94 1149 c 2,22,-1
 45 1149 l 1,23,-1
 45 1270 l 1,24,-1
 123 1270 l 2,25,26
 404 1270 404 1270 403 1010 c 2,27,-1
 403 834 l 2,28,29
 403 615 403 615 518 594 c 1,30,-1
 518 467 l 1,0,1
EndSplineSet
EndChar

StartChar: uni0591
Encoding: 1425 1425 43
Width: 0
GlyphClass: 4
Flags: W
LayerCount: 2
Fore
SplineSet
176 -502 m 1,0,-1
 86 -502 l 1,1,-1
 86 -422 l 2,2,3
 86 -365 86 -365 68 -334 c 128,-1,4
 50 -303 50 -303 2 -303 c 0,5,6
 -51 -303 -51 -303 -70 -334 c 0,7,8
 -88 -365 -88 -365 -88 -422 c 2,9,-1
 -88 -502 l 1,10,-1
 -178 -502 l 1,11,-1
 -178 -412 l 2,12,13
 -178 -256 -178 -256 -45 -221 c 1,14,-1
 -45 -133 l 1,15,-1
 45 -133 l 1,16,-1
 45 -221 l 1,17,18
 176 -252 176 -252 176 -412 c 2,19,-1
 176 -502 l 1,0,-1
EndSplineSet
Substitution2: "'ccmp' Glyph Composition/Decomposition in Hebrew lookup 0 subtable" glyph268
EndChar

StartChar: uni0592
Encoding: 1426 1426 44
Width: 0
GlyphClass: 4
Flags: W
LayerCount: 2
Fore
SplineSet
-205 1274 m 128,-1,1
 -205 1307 -205 1307 -180.5 1331.5 c 128,-1,2
 -156 1356 -156 1356 -123 1356 c 128,-1,3
 -90 1356 -90 1356 -65.5 1331.5 c 128,-1,4
 -41 1307 -41 1307 -41 1274 c 128,-1,5
 -41 1241 -41 1241 -65.5 1216.5 c 128,-1,6
 -90 1192 -90 1192 -123 1192 c 128,-1,7
 -156 1192 -156 1192 -180.5 1216.5 c 128,-1,0
 -205 1241 -205 1241 -205 1274 c 128,-1,1
-82 1468 m 0,8,9
 -82 1503 -82 1503 -57 1528 c 0,10,11
 -34 1551 -34 1551 0.5 1550.5 c 128,-1,12
 35 1550 35 1550 57 1528 c 0,13,14
 82 1503 82 1503 82 1468 c 0,15,16
 82 1435 82 1435 57.5 1410.5 c 128,-1,17
 33 1386 33 1386 0 1386 c 128,-1,18
 -33 1386 -33 1386 -57.5 1410.5 c 128,-1,19
 -82 1435 -82 1435 -82 1468 c 0,8,9
41 1274 m 128,-1,21
 41 1307 41 1307 65.5 1331.5 c 128,-1,22
 90 1356 90 1356 123 1356 c 128,-1,23
 156 1356 156 1356 180.5 1331.5 c 128,-1,24
 205 1307 205 1307 205 1274 c 128,-1,25
 205 1241 205 1241 180.5 1216.5 c 128,-1,26
 156 1192 156 1192 123 1192 c 128,-1,27
 90 1192 90 1192 65.5 1216.5 c 128,-1,20
 41 1241 41 1241 41 1274 c 128,-1,21
EndSplineSet
Substitution2: "'ccmp' Glyph Composition/Decomposition in Hebrew lookup 0 subtable" glyph268
EndChar

StartChar: uni0593
Encoding: 1427 1427 45
Width: 0
GlyphClass: 4
Flags: W
LayerCount: 2
Fore
SplineSet
137 1288 m 1,0,-1
 -49 1202 l 1,1,-1
 -137 1202 l 1,2,-1
 49 1288 l 1,3,-1
 -137 1374 l 1,4,-1
 49 1460 l 1,5,-1
 -137 1546 l 1,6,-1
 49 1632 l 1,7,-1
 137 1632 l 1,8,-1
 -49 1546 l 1,9,-1
 137 1460 l 1,10,-1
 -49 1374 l 1,11,-1
 137 1288 l 1,0,-1
EndSplineSet
Substitution2: "'ccmp' Glyph Composition/Decomposition in Hebrew lookup 0 subtable" glyph268
EndChar

StartChar: uni0594
Encoding: 1428 1428 46
Width: 0
GlyphClass: 4
Flags: W
LayerCount: 2
Fore
SplineSet
-82 1276 m 0,0,1
 -82 1307 -82 1307 -57.5 1331.5 c 128,-1,2
 -33 1356 -33 1356 0 1356 c 128,-1,3
 33 1356 33 1356 57.5 1331.5 c 128,-1,4
 82 1307 82 1307 82 1276 c 0,5,6
 82 1241 82 1241 57.5 1216.5 c 128,-1,7
 33 1192 33 1192 0 1192 c 128,-1,8
 -33 1192 -33 1192 -57.5 1216.5 c 128,-1,9
 -82 1241 -82 1241 -82 1276 c 0,0,1
-82 1522 m 128,-1,11
 -82 1555 -82 1555 -57.5 1579.5 c 128,-1,12
 -33 1604 -33 1604 0 1604 c 128,-1,13
 33 1604 33 1604 57.5 1579 c 128,-1,14
 82 1554 82 1554 82 1522 c 0,15,16
 82 1489 82 1489 57 1464 c 128,-1,17
 32 1439 32 1439 -0.5 1439.5 c 128,-1,18
 -33 1440 -33 1440 -57 1464 c 0,19,10
 -82 1489 -82 1489 -82 1522 c 128,-1,11
EndSplineSet
Substitution2: "'ccmp' Glyph Composition/Decomposition in Hebrew lookup 0 subtable" glyph268
EndChar

StartChar: uni0595
Encoding: 1429 1429 47
Width: 0
GlyphClass: 4
Flags: W
LayerCount: 2
Fore
SplineSet
20 1276 m 0,0,1
 20 1309 20 1309 43 1331 c 0,2,3
 68 1356 68 1356 102 1356 c 0,4,5
 137 1356 137 1356 162 1331 c 0,6,7
 185 1308 185 1308 184 1276 c 0,8,9
 184 1239 184 1239 162 1217 c 0,10,11
 137 1192 137 1192 102 1192 c 128,-1,12
 67 1192 67 1192 43 1217 c 0,13,14
 20 1239 20 1239 20 1276 c 0,0,1
20 1522 m 128,-1,16
 20 1557 20 1557 43 1579 c 0,17,18
 68 1604 68 1604 102 1604 c 0,19,20
 137 1604 137 1604 162 1579 c 0,21,22
 185 1556 185 1556 184 1522 c 0,23,24
 184 1485 184 1485 162 1464 c 0,25,26
 137 1439 137 1439 102 1440 c 0,27,28
 67 1440 67 1440 43 1464 c 0,29,15
 20 1487 20 1487 20 1522 c 128,-1,16
-172 1583 m 1,30,-1
 -68 1583 l 1,31,-1
 -68 1212 l 1,32,-1
 -172 1212 l 1,33,-1
 -172 1583 l 1,30,-1
EndSplineSet
Substitution2: "'ccmp' Glyph Composition/Decomposition in Hebrew lookup 0 subtable" glyph268
EndChar

StartChar: uni0596
Encoding: 1430 1430 48
Width: 0
GlyphClass: 4
Flags: W
LayerCount: 2
Fore
SplineSet
-35 -133 m 1,0,1
 -41 -174 -41 -174 -41 -217 c 0,2,3
 -41 -319 -41 -319 0 -367 c 0,4,5
 39 -412 39 -412 123 -412 c 1,6,-1
 123 -502 l 1,7,8
 -10 -496 -10 -496 -72 -426 c 0,9,10
 -131 -358 -131 -358 -131 -213 c 0,11,12
 -131 -174 -131 -174 -125 -133 c 1,13,-1
 -35 -133 l 1,0,1
EndSplineSet
Substitution2: "'ccmp' Glyph Composition/Decomposition in Hebrew lookup 0 subtable" glyph268
EndChar

StartChar: uni0597
Encoding: 1431 1431 49
Width: 0
GlyphClass: 4
Flags: W
LayerCount: 2
Fore
SplineSet
141 1380 m 1,0,-1
 0 1202 l 1,1,-1
 -139 1380 l 1,2,-1
 0 1559 l 1,3,-1
 141 1380 l 1,0,-1
EndSplineSet
Substitution2: "'ccmp' Glyph Composition/Decomposition in Hebrew lookup 0 subtable" glyph268
EndChar

StartChar: uni0598
Encoding: 1432 1432 50
Width: 0
GlyphClass: 4
Flags: W
LayerCount: 2
Fore
SplineSet
104 1440 m 1,0,-1
 135 1497 l 1,1,2
 217 1448 217 1448 217 1354 c 0,3,4
 217 1291 217 1291 186 1245 c 0,5,6
 155 1202 155 1202 102 1202 c 0,7,8
 57 1202 57 1202 29 1239 c 0,9,10
 4 1272 4 1272 -16 1323 c 0,11,12
 -30 1360 -30 1360 -53 1405 c 0,13,14
 -71 1442 -71 1442 -102 1442 c 0,15,16
 -165 1442 -165 1442 -166 1354 c 0,17,18
 -166 1286 -166 1286 -115 1266 c 1,19,-1
 -137 1202 l 1,20,21
 -229 1263 -229 1263 -229 1354 c 0,22,23
 -229 1417 -229 1417 -195 1460 c 0,24,25
 -158 1505 -158 1505 -106 1505 c 0,26,27
 -55 1505 -55 1505 -27 1466 c 0,28,29
 12 1415 12 1415 23 1384 c 0,30,31
 29 1372 29 1372 40 1345.5 c 128,-1,32
 51 1319 51 1319 57 1305 c 0,33,34
 73 1266 73 1266 102 1266 c 0,35,36
 153 1266 153 1266 154 1354 c 0,37,38
 153 1413 153 1413 104 1440 c 1,0,-1
EndSplineSet
Substitution2: "'ccmp' Glyph Composition/Decomposition in Hebrew lookup 0 subtable" glyph268
EndChar

StartChar: uni0599
Encoding: 1433 1433 51
Width: 0
GlyphClass: 4
Flags: W
LayerCount: 2
Fore
SplineSet
-94 1202 m 1,0,1
 -88 1243 -88 1243 -88 1286 c 0,2,3
 -88 1390 -88 1390 -127 1435.5 c 128,-1,4
 -166 1481 -166 1481 -252 1481 c 1,5,-1
 -252 1571 l 1,6,7
 -121 1565 -121 1565 -57 1493 c 0,8,9
 2 1425 2 1425 2 1282 c 0,10,11
 2 1241 2 1241 -4 1202 c 1,12,-1
 -94 1202 l 1,0,1
EndSplineSet
Substitution2: "'ccmp' Glyph Composition/Decomposition in Hebrew lookup 0 subtable" glyph268
EndChar

StartChar: uni059A
Encoding: 1434 1434 52
Width: 0
GlyphClass: 4
Flags: W
LayerCount: 2
Fore
SplineSet
303 -502 m 1,0,-1
 180 -502 l 1,1,-1
 0 -317 l 1,2,-1
 180 -133 l 1,3,-1
 303 -133 l 1,4,-1
 123 -317 l 1,5,-1
 303 -502 l 1,0,-1
EndSplineSet
Substitution2: "'ccmp' Glyph Composition/Decomposition in Hebrew lookup 0 subtable" glyph268
EndChar

StartChar: uni059B
Encoding: 1435 1435 53
Width: 0
GlyphClass: 4
Flags: W
LayerCount: 2
Fore
SplineSet
137 -133 m 1,0,1
 143 -176 143 -176 143 -213 c 0,2,3
 143 -358 143 -358 84 -426 c 0,4,5
 23 -496 23 -496 -111 -502 c 1,6,-1
 -111 -412 l 1,7,8
 -27 -412 -27 -412 12 -367 c 0,9,10
 53 -320 53 -320 53 -217 c 0,11,12
 53 -176 53 -176 47 -133 c 1,13,-1
 137 -133 l 1,0,1
-135 -245.5 m 128,-1,15
 -135 -274 -135 -274 -114.5 -294.5 c 128,-1,16
 -94 -315 -94 -315 -66 -315 c 0,17,18
 -35 -315 -35 -315 -15.5 -294.5 c 128,-1,19
 4 -274 4 -274 4 -245.5 c 128,-1,20
 4 -217 4 -217 -16 -197 c 128,-1,21
 -36 -177 -36 -177 -66 -176 c 0,22,23
 -95 -176 -95 -176 -115 -197 c 0,24,14
 -135 -217 -135 -217 -135 -245.5 c 128,-1,15
EndSplineSet
Substitution2: "'ccmp' Glyph Composition/Decomposition in Hebrew lookup 0 subtable" glyph268
EndChar

StartChar: uni059C
Encoding: 1436 1436 54
Width: 0
GlyphClass: 4
Flags: W
LayerCount: 2
Fore
SplineSet
-164 1202 m 1,0,1
 -170 1243 -170 1243 -170 1282 c 0,2,3
 -170 1425 -170 1425 -111 1493 c 0,4,5
 -48 1565 -48 1565 84 1571 c 1,6,-1
 84 1481 l 1,7,8
 -2 1481 -2 1481 -41 1436 c 128,-1,9
 -80 1391 -80 1391 -80 1286 c 0,10,11
 -80 1243 -80 1243 -74 1202 c 1,12,-1
 -164 1202 l 1,0,1
EndSplineSet
Substitution2: "'ccmp' Glyph Composition/Decomposition in Hebrew lookup 0 subtable" glyph268
EndChar

StartChar: uni059D
Encoding: 1437 1437 55
Width: 0
GlyphClass: 4
Flags: W
LayerCount: 2
Fore
SplineSet
6 1202 m 1,0,1
 0 1243 0 1243 0 1282 c 0,2,3
 0 1425 0 1425 59 1493 c 0,4,5
 122 1565 122 1565 254 1571 c 1,6,-1
 254 1481 l 1,7,8
 168 1481 168 1481 129 1436 c 128,-1,9
 90 1391 90 1391 90 1286 c 0,10,11
 90 1243 90 1243 96 1202 c 1,12,-1
 6 1202 l 1,0,1
EndSplineSet
Substitution2: "'ccmp' Glyph Composition/Decomposition in Hebrew lookup 0 subtable" glyph268
EndChar

StartChar: uni059E
Encoding: 1438 1438 56
Width: 0
GlyphClass: 4
Flags: W
LayerCount: 2
Fore
SplineSet
-51 1202 m 1,0,1
 -57 1243 -57 1243 -57 1282 c 0,2,3
 -57 1425 -57 1425 2 1493 c 0,4,5
 65 1565 65 1565 197 1571 c 1,6,-1
 197 1481 l 1,7,8
 113 1481 113 1481 74 1436 c 0,9,10
 33 1389 33 1389 33 1286 c 0,11,12
 33 1243 33 1243 39 1202 c 1,13,-1
 -51 1202 l 1,0,1
-297 1202 m 1,14,15
 -303 1243 -303 1243 -303 1282 c 0,16,17
 -303 1425 -303 1425 -244 1493 c 0,18,19
 -181 1565 -181 1565 -49 1571 c 1,20,-1
 -49 1481 l 1,21,22
 -133 1481 -133 1481 -172 1436 c 0,23,24
 -213 1389 -213 1389 -213 1286 c 0,25,26
 -213 1243 -213 1243 -207 1202 c 1,27,-1
 -297 1202 l 1,14,15
EndSplineSet
Substitution2: "'ccmp' Glyph Composition/Decomposition in Hebrew lookup 0 subtable" glyph268
EndChar

StartChar: uni059F
Encoding: 1439 1439 57
Width: 0
GlyphClass: 4
Flags: W
LayerCount: 2
Fore
SplineSet
35 1421 m 128,-1,1
 35 1487 35 1487 82 1534 c 128,-1,2
 129 1581 129 1581 193 1581 c 0,3,4
 259 1581 259 1581 305.5 1534 c 128,-1,5
 352 1487 352 1487 352 1421 c 0,6,7
 352 1358 352 1358 305 1311 c 128,-1,8
 258 1264 258 1264 193 1264 c 0,9,10
 164 1264 164 1264 131 1274 c 1,11,-1
 72 1176 l 1,12,-1
 16 1208 l 1,13,-1
 80 1311 l 1,14,0
 35 1355 35 1355 35 1421 c 128,-1,1
100 1421 m 0,15,16
 100 1382 100 1382 127 1355.5 c 128,-1,17
 154 1329 154 1329 193 1329 c 128,-1,18
 232 1329 232 1329 258 1356 c 0,19,20
 287 1385 287 1385 287 1421 c 0,21,22
 287 1460 287 1460 258 1489 c 0,23,24
 231 1516 231 1516 193 1516 c 0,25,26
 154 1516 154 1516 127 1489 c 128,-1,27
 100 1462 100 1462 100 1421 c 0,15,16
-35 1421 m 128,-1,29
 -35 1355 -35 1355 -80 1311 c 1,30,-1
 -16 1208 l 1,31,-1
 -72 1176 l 1,32,-1
 -131 1274 l 1,33,34
 -164 1264 -164 1264 -193 1264 c 0,35,36
 -259 1264 -259 1264 -305.5 1311 c 128,-1,37
 -352 1358 -352 1358 -352 1421 c 0,38,39
 -352 1487 -352 1487 -305 1534 c 128,-1,40
 -258 1581 -258 1581 -193 1581 c 0,41,42
 -130 1581 -130 1581 -82.5 1534 c 128,-1,28
 -35 1487 -35 1487 -35 1421 c 128,-1,29
-100 1421 m 0,43,44
 -100 1462 -100 1462 -127 1489 c 128,-1,45
 -154 1516 -154 1516 -193 1516 c 128,-1,46
 -232 1516 -232 1516 -258 1489 c 0,47,48
 -287 1460 -287 1460 -287 1421 c 0,49,50
 -287 1384 -287 1384 -258 1356 c 0,51,52
 -231 1329 -231 1329 -193 1329 c 0,53,54
 -154 1329 -154 1329 -127 1355.5 c 128,-1,55
 -100 1382 -100 1382 -100 1421 c 0,43,44
EndSplineSet
Substitution2: "'ccmp' Glyph Composition/Decomposition in Hebrew lookup 0 subtable" glyph268
EndChar

StartChar: uni05A0
Encoding: 1440 1440 58
Width: 0
GlyphClass: 4
Flags: W
LayerCount: 2
Fore
SplineSet
20 1421 m 0,0,1
 20 1487 20 1487 68 1534 c 0,2,3
 115 1581 115 1581 178 1581 c 0,4,5
 244 1581 244 1581 291 1534 c 128,-1,6
 338 1487 338 1487 338 1421 c 0,7,8
 338 1358 338 1358 291 1311 c 128,-1,9
 244 1264 244 1264 178 1264 c 0,10,11
 149 1264 149 1264 117 1274 c 1,12,-1
 57 1176 l 1,13,-1
 2 1208 l 1,14,-1
 66 1311 l 1,15,16
 20 1358 20 1358 20 1421 c 0,0,1
86 1421 m 0,17,18
 86 1382 86 1382 112.5 1355.5 c 128,-1,19
 139 1329 139 1329 178 1329 c 0,20,21
 219 1329 219 1329 246 1356 c 128,-1,22
 273 1383 273 1383 272 1421 c 0,23,24
 272 1464 272 1464 246 1489 c 0,25,26
 219 1516 219 1516 178 1516 c 0,27,28
 139 1516 139 1516 112.5 1489 c 128,-1,29
 86 1462 86 1462 86 1421 c 0,17,18
EndSplineSet
Substitution2: "'ccmp' Glyph Composition/Decomposition in Hebrew lookup 0 subtable" glyph268
EndChar

StartChar: uni05A1
Encoding: 1441 1441 59
Width: 0
GlyphClass: 4
Flags: W
LayerCount: 2
Fore
SplineSet
152 1497 m 2,0,1
 152 1423 152 1423 109 1366 c 128,-1,2
 66 1309 66 1309 0 1309 c 0,3,4
 -33 1309 -33 1309 -63 1319 c 1,5,-1
 -63 1202 l 1,6,-1
 -150 1202 l 1,7,-1
 -150 1571 l 1,8,-1
 -63 1571 l 1,9,-1
 -63 1395 l 1,10,11
 -53 1385 -53 1385 -20 1384 c 0,12,13
 66 1384 66 1384 66 1511 c 2,14,-1
 66 1571 l 1,15,-1
 152 1571 l 1,16,-1
 152 1497 l 2,0,1
EndSplineSet
Substitution2: "'ccmp' Glyph Composition/Decomposition in Hebrew lookup 0 subtable" glyph268
EndChar

StartChar: uni05A2
Encoding: 1442 1442 60
Width: 0
GlyphClass: 4
Flags: W
LayerCount: 2
Fore
SplineSet
176 -223 m 2,0,1
 176 -379 176 -379 45 -414 c 1,2,-1
 45 -502 l 1,3,-1
 -45 -502 l 1,4,-1
 -45 -414 l 1,5,6
 -178 -379 -178 -379 -178 -223 c 2,7,-1
 -178 -133 l 1,8,-1
 -88 -133 l 1,9,-1
 -88 -213 l 2,10,11
 -88 -270 -88 -270 -70 -301 c 128,-1,12
 -52 -332 -52 -332 2 -332 c 0,13,14
 49 -332 49 -332 68 -301 c 0,15,16
 86 -270 86 -270 86 -213 c 2,17,-1
 86 -133 l 1,18,-1
 176 -133 l 1,19,-1
 176 -223 l 2,0,1
EndSplineSet
Substitution2: "'ccmp' Glyph Composition/Decomposition in Hebrew lookup 0 subtable" glyph268
EndChar

StartChar: uni05A3
Encoding: 1443 1443 61
Width: 0
GlyphClass: 4
Flags: W
LayerCount: 2
Fore
SplineSet
131 -479 m 1,0,-1
 -131 -479 l 1,1,-1
 -131 -393 l 1,2,-1
 45 -393 l 1,3,-1
 45 -133 l 1,4,-1
 131 -133 l 1,5,-1
 131 -479 l 1,0,-1
EndSplineSet
Substitution2: "'ccmp' Glyph Composition/Decomposition in Hebrew lookup 0 subtable" glyph268
EndChar

StartChar: uni05A4
Encoding: 1444 1444 62
Width: 0
GlyphClass: 4
Flags: W
LayerCount: 2
Fore
SplineSet
152 -502 m 1,0,-1
 29 -502 l 1,1,-1
 -152 -317 l 1,2,-1
 29 -133 l 1,3,-1
 152 -133 l 1,4,-1
 -29 -317 l 1,5,-1
 152 -502 l 1,0,-1
EndSplineSet
Substitution2: "'ccmp' Glyph Composition/Decomposition in Hebrew lookup 0 subtable" glyph268
EndChar

StartChar: uni05A5
Encoding: 1445 1445 63
Width: 0
GlyphClass: 4
Flags: W
LayerCount: 2
Fore
SplineSet
137 -133 m 1,0,1
 143 -174 143 -174 143 -213 c 0,2,3
 143 -358 143 -358 84 -426 c 0,4,5
 23 -496 23 -496 -111 -502 c 1,6,-1
 -111 -412 l 1,7,8
 -27 -412 -27 -412 12 -367 c 0,9,10
 53 -320 53 -320 53 -217 c 0,11,12
 53 -174 53 -174 47 -133 c 1,13,-1
 137 -133 l 1,0,1
EndSplineSet
Substitution2: "'ccmp' Glyph Composition/Decomposition in Hebrew lookup 0 subtable" glyph268
EndChar

StartChar: uni05A6
Encoding: 1446 1446 64
Width: 0
GlyphClass: 4
Flags: W
LayerCount: 2
Fore
SplineSet
-27 -133 m 1,0,1
 -21 -180 -21 -180 -20 -213 c 0,2,3
 -20 -356 -20 -356 -80 -426 c 0,4,5
 -141 -496 -141 -496 -274 -502 c 1,6,-1
 -274 -412 l 1,7,8
 -190 -412 -190 -412 -152 -367 c 0,9,10
 -111 -320 -111 -320 -111 -217 c 0,11,12
 -111 -174 -111 -174 -117 -133 c 1,13,-1
 -27 -133 l 1,0,1
219 -133 m 1,14,15
 225 -174 225 -174 225 -213 c 0,16,17
 225 -358 225 -358 166 -426 c 0,18,19
 105 -496 105 -496 -29 -502 c 1,20,-1
 -29 -412 l 1,21,22
 55 -412 55 -412 94 -367 c 0,23,24
 135 -320 135 -320 135 -217 c 0,25,26
 135 -174 135 -174 129 -133 c 1,27,-1
 219 -133 l 1,14,15
EndSplineSet
Substitution2: "'ccmp' Glyph Composition/Decomposition in Hebrew lookup 0 subtable" glyph268
EndChar

StartChar: uni05A7
Encoding: 1447 1447 65
Width: 0
GlyphClass: 4
Flags: W
LayerCount: 2
Fore
SplineSet
129 -418 m 1,0,-1
 63 -473 l 1,1,-1
 -133 -512 l 1,2,-1
 -133 -434 l 1,3,-1
 12 -406 l 1,4,-1
 -129 -217 l 1,5,-1
 -63 -164 l 1,6,-1
 131 -123 l 1,7,-1
 131 -199 l 1,8,-1
 -14 -231 l 1,9,-1
 129 -418 l 1,0,-1
EndSplineSet
Substitution2: "'ccmp' Glyph Composition/Decomposition in Hebrew lookup 0 subtable" glyph268
EndChar

StartChar: uni05A8
Encoding: 1448 1448 66
Width: 0
GlyphClass: 4
Flags: W
LayerCount: 2
Fore
SplineSet
70 1202 m 1,0,1
 76 1243 76 1243 76 1286 c 0,2,3
 76 1390 76 1390 37 1435.5 c 128,-1,4
 -2 1481 -2 1481 -88 1481 c 1,5,-1
 -88 1571 l 1,6,7
 43 1565 43 1565 106 1493 c 0,8,9
 165 1423 165 1423 166 1282 c 0,10,11
 166 1241 166 1241 160 1202 c 1,12,-1
 70 1202 l 1,0,1
EndSplineSet
Substitution2: "'ccmp' Glyph Composition/Decomposition in Hebrew lookup 0 subtable" glyph268
EndChar

StartChar: uni05A9
Encoding: 1449 1449 67
Width: 0
GlyphClass: 4
Flags: W
LayerCount: 2
Fore
SplineSet
-20 1421 m 0,0,1
 -20 1358 -20 1358 -66 1311 c 1,2,-1
 -2 1208 l 1,3,-1
 -57 1176 l 1,4,-1
 -117 1274 l 1,5,6
 -150 1264 -150 1264 -178 1264 c 0,7,8
 -244 1264 -244 1264 -291 1311 c 128,-1,9
 -338 1358 -338 1358 -338 1421 c 0,10,11
 -338 1487 -338 1487 -291 1534 c 128,-1,12
 -244 1581 -244 1581 -178 1581 c 0,13,14
 -115 1581 -115 1581 -68 1534 c 0,15,16
 -20 1487 -20 1487 -20 1421 c 0,0,1
-86 1421 m 0,17,18
 -86 1462 -86 1462 -112.5 1489 c 128,-1,19
 -139 1516 -139 1516 -178 1516 c 0,20,21
 -219 1516 -219 1516 -246 1489 c 128,-1,22
 -273 1462 -273 1462 -272 1421 c 0,23,24
 -272 1382 -272 1382 -246 1356 c 0,25,26
 -219 1329 -219 1329 -178 1329 c 0,27,28
 -139 1329 -139 1329 -112.5 1355.5 c 128,-1,29
 -86 1382 -86 1382 -86 1421 c 0,17,18
EndSplineSet
Substitution2: "'ccmp' Glyph Composition/Decomposition in Hebrew lookup 0 subtable" glyph268
EndChar

StartChar: uni05AA
Encoding: 1450 1450 68
Width: 0
GlyphClass: 4
Flags: W
LayerCount: 2
Fore
SplineSet
188 -166 m 2,0,1
 188 -371 188 -371 0 -371 c 128,-1,2
 -188 -371 -188 -371 -188 -166 c 2,3,-1
 -188 -133 l 1,4,-1
 -98 -133 l 1,5,-1
 -98 -143 l 2,6,7
 -98 -227 -98 -227 -74 -256 c 0,8,9
 -51 -285 -51 -285 2 -285 c 0,10,11
 51 -285 51 -285 74 -256 c 0,12,13
 99 -225 99 -225 98 -143 c 2,14,-1
 98 -133 l 1,15,-1
 188 -133 l 1,16,-1
 188 -166 l 2,0,1
EndSplineSet
Substitution2: "'ccmp' Glyph Composition/Decomposition in Hebrew lookup 0 subtable" glyph268
EndChar

StartChar: uni05AB
Encoding: 1451 1451 69
Width: 0
GlyphClass: 4
Flags: W
LayerCount: 2
Fore
SplineSet
152 1202 m 1,0,-1
 29 1202 l 1,1,-1
 -152 1386 l 1,2,-1
 29 1571 l 1,3,-1
 152 1571 l 1,4,-1
 -29 1386 l 1,5,-1
 152 1202 l 1,0,-1
EndSplineSet
Substitution2: "'ccmp' Glyph Composition/Decomposition in Hebrew lookup 0 subtable" glyph268
EndChar

StartChar: uni05AC
Encoding: 1452 1452 70
Width: 0
GlyphClass: 4
Flags: W
LayerCount: 2
Fore
SplineSet
131 1202 m 1,0,-1
 -131 1202 l 1,1,-1
 -131 1288 l 1,2,-1
 45 1288 l 1,3,-1
 45 1548 l 1,4,-1
 131 1548 l 1,5,-1
 131 1202 l 1,0,-1
EndSplineSet
Substitution2: "'ccmp' Glyph Composition/Decomposition in Hebrew lookup 0 subtable" glyph268
EndChar

StartChar: uni05AD
Encoding: 1453 1453 71
Width: 0
GlyphClass: 4
Flags: W
LayerCount: 2
Fore
SplineSet
96 -133 m 1,0,1
 90 -174 90 -174 90 -217 c 0,2,3
 90 -321 90 -321 129 -366.5 c 128,-1,4
 168 -412 168 -412 254 -412 c 1,5,-1
 254 -502 l 1,6,7
 121 -496 121 -496 59 -426 c 0,8,9
 0 -358 0 -358 0 -213 c 0,10,11
 0 -174 0 -174 6 -133 c 1,12,-1
 96 -133 l 1,0,1
EndSplineSet
Substitution2: "'ccmp' Glyph Composition/Decomposition in Hebrew lookup 0 subtable" glyph268
EndChar

StartChar: uni05AE
Encoding: 1454 1454 72
Width: 0
GlyphClass: 4
Flags: W
LayerCount: 2
Fore
SplineSet
-113 1440 m 1,0,-1
 -82 1497 l 1,1,2
 0 1448 0 1448 0 1354 c 0,3,4
 0 1291 0 1291 -31 1245 c 0,5,6
 -62 1202 -62 1202 -115 1202 c 0,7,8
 -160 1202 -160 1202 -188 1239 c 0,9,10
 -213 1272 -213 1272 -233 1323 c 0,11,12
 -247 1360 -247 1360 -270 1405 c 0,13,14
 -288 1442 -288 1442 -319 1442 c 0,15,16
 -382 1442 -382 1442 -383 1354 c 0,17,18
 -383 1286 -383 1286 -332 1266 c 1,19,-1
 -354 1202 l 1,20,21
 -446 1263 -446 1263 -446 1354 c 0,22,23
 -446 1417 -446 1417 -412 1460 c 0,24,25
 -375 1505 -375 1505 -323.5 1505 c 128,-1,26
 -272 1505 -272 1505 -244 1466 c 0,27,28
 -213 1423 -213 1423 -197 1384 c 0,29,30
 -191 1370 -191 1370 -178.5 1344.5 c 128,-1,31
 -166 1319 -166 1319 -160 1305 c 0,32,33
 -144 1266 -144 1266 -115 1266 c 0,34,35
 -64 1266 -64 1266 -63 1354 c 0,36,37
 -64 1413 -64 1413 -113 1440 c 1,0,-1
EndSplineSet
Substitution2: "'ccmp' Glyph Composition/Decomposition in Hebrew lookup 0 subtable" glyph268
EndChar

StartChar: uni05AF
Encoding: 1455 1455 73
Width: 0
GlyphClass: 4
Flags: W
LayerCount: 2
Fore
SplineSet
117 1319 m 0,0,1
 117 1270 117 1270 84 1237 c 0,2,3
 49 1202 49 1202 0 1202 c 128,-1,4
 -49 1202 -49 1202 -84 1237 c 0,5,6
 -117 1270 -117 1270 -117 1319 c 0,7,8
 -117 1370 -117 1370 -84 1403 c 128,-1,9
 -51 1436 -51 1436 0 1436 c 128,-1,10
 51 1436 51 1436 84 1403 c 128,-1,11
 117 1370 117 1370 117 1319 c 0,0,1
68 1319 m 128,-1,13
 68 1387 68 1387 0 1386.5 c 128,-1,14
 -68 1386 -68 1386 -68 1319 c 0,15,16
 -68 1251 -68 1251 0 1251 c 128,-1,12
 68 1251 68 1251 68 1319 c 128,-1,13
EndSplineSet
Substitution2: "'ccmp' Glyph Composition/Decomposition in Hebrew lookup 0 subtable" glyph268
EndChar

StartChar: shevahebrew
Encoding: 1456 1456 74
Width: 0
GlyphClass: 4
Flags: W
AnchorPoint: "Anchor-9" 0 0 mark 0
AnchorPoint: "Anchor-5" 635 0 mark 0
AnchorPoint: "Anchor-4" 563 0 mark 0
LayerCount: 2
Fore
SplineSet
473 -449 m 0,0,1
 473 -416 473 -416 498 -391 c 0,2,3
 521 -368 521 -368 555.5 -368.5 c 128,-1,4
 590 -369 590 -369 612 -391 c 0,5,6
 637 -416 637 -416 637 -449 c 0,7,8
 637 -484 637 -484 612 -508 c 0,9,10
 587 -533 587 -533 554.5 -532.5 c 128,-1,11
 522 -532 522 -532 498 -508 c 0,12,13
 473 -484 473 -484 473 -449 c 0,0,1
473 -205 m 0,14,15
 473 -170 473 -170 498 -145 c 0,16,17
 521 -122 521 -122 555.5 -122.5 c 128,-1,18
 590 -123 590 -123 612 -145 c 0,19,20
 637 -170 637 -170 637 -205 c 0,21,22
 637 -238 637 -238 612.5 -262.5 c 128,-1,23
 588 -287 588 -287 555 -287 c 128,-1,24
 522 -287 522 -287 497.5 -262.5 c 128,-1,25
 473 -238 473 -238 473 -205 c 0,14,15
EndSplineSet
Position2: "Single Positioning lookup 26 subtable" dx=205 dy=0 dh=0 dv=0
Position2: "Single Positioning lookup 25 subtable" dx=123 dy=0 dh=0 dv=0
Position2: "Single Positioning lookup 24 subtable" dx=164 dy=0 dh=0 dv=0
EndChar

StartChar: hatafsegolhebrew
Encoding: 1457 1457 75
Width: 0
GlyphClass: 4
Flags: W
AnchorPoint: "Anchor-5" 860 0 mark 0
AnchorPoint: "Anchor-4" 553 0 mark 0
LayerCount: 2
Fore
SplineSet
698 -449 m 0,0,1
 698 -416 698 -416 723 -391 c 0,2,3
 746 -368 746 -368 780 -369 c 0,4,5
 819 -369 819 -369 840.5 -391.5 c 128,-1,6
 862 -414 862 -414 862 -449 c 0,7,8
 862 -486 862 -486 840 -508 c 0,9,10
 815 -533 815 -533 780 -532 c 0,11,12
 747 -532 747 -532 723 -508 c 0,13,14
 698 -484 698 -484 698 -449 c 0,0,1
698 -205 m 0,15,16
 698 -170 698 -170 723 -145 c 0,17,18
 746 -122 746 -122 780 -123 c 0,19,20
 819 -123 819 -123 840.5 -145.5 c 128,-1,21
 862 -168 862 -168 862 -205 c 0,22,23
 862 -240 862 -240 840 -262 c 0,24,25
 815 -287 815 -287 780 -287 c 0,26,27
 747 -287 747 -287 722.5 -262.5 c 128,-1,28
 698 -238 698 -238 698 -205 c 0,15,16
360 -449 m 0,29,30
 360 -416 360 -416 385 -391 c 0,31,32
 408 -368 408 -368 442 -369 c 0,33,34
 481 -369 481 -369 502.5 -391.5 c 128,-1,35
 524 -414 524 -414 524 -449 c 0,36,37
 524 -486 524 -486 502 -508 c 0,38,39
 477 -533 477 -533 442 -532 c 0,40,41
 409 -532 409 -532 385 -508 c 0,42,43
 360 -484 360 -484 360 -449 c 0,29,30
248 -205 m 0,44,45
 248 -166 248 -166 270.5 -144.5 c 128,-1,46
 293 -123 293 -123 330 -123 c 0,47,48
 365 -123 365 -123 387 -145 c 0,49,50
 412 -170 412 -170 412 -205 c 0,51,52
 412 -238 412 -238 387 -262.5 c 128,-1,53
 362 -287 362 -287 330 -287 c 0,54,55
 295 -287 295 -287 270 -262 c 0,56,57
 248 -240 248 -240 248 -205 c 0,44,45
473 -205 m 0,58,59
 473 -170 473 -170 498 -145 c 0,60,61
 521 -122 521 -122 555.5 -122.5 c 128,-1,62
 590 -123 590 -123 612 -145 c 0,63,64
 637 -170 637 -170 637 -205 c 0,65,66
 637 -238 637 -238 612.5 -262.5 c 128,-1,67
 588 -287 588 -287 555 -287 c 128,-1,68
 522 -287 522 -287 497.5 -262.5 c 128,-1,69
 473 -238 473 -238 473 -205 c 0,58,59
EndSplineSet
Position2: "Single Positioning lookup 26 subtable" dx=205 dy=0 dh=0 dv=0
Position2: "Single Positioning lookup 25 subtable" dx=123 dy=0 dh=0 dv=0
Position2: "Single Positioning lookup 24 subtable" dx=164 dy=0 dh=0 dv=0
EndChar

StartChar: hatafpatahhebrew
Encoding: 1458 1458 76
Width: 0
GlyphClass: 4
Flags: W
AnchorPoint: "Anchor-5" 840 0 mark 0
AnchorPoint: "Anchor-4" 532 0 mark 0
LayerCount: 2
Fore
SplineSet
678 -449 m 128,-1,1
 678 -412 678 -412 700.5 -390.5 c 128,-1,2
 723 -369 723 -369 760 -369 c 0,3,4
 795 -369 795 -369 817 -391 c 0,5,6
 842 -416 842 -416 842 -449 c 0,7,8
 842 -484 842 -484 817 -508 c 0,9,10
 792 -533 792 -533 760 -532 c 0,11,12
 723 -532 723 -532 700 -508 c 0,13,0
 678 -486 678 -486 678 -449 c 128,-1,1
678 -205 m 0,14,15
 678 -166 678 -166 700.5 -144.5 c 128,-1,16
 723 -123 723 -123 760 -123 c 0,17,18
 795 -123 795 -123 817 -145 c 0,19,20
 842 -170 842 -170 842 -205 c 0,21,22
 842 -238 842 -238 817.5 -262.5 c 128,-1,23
 793 -287 793 -287 760 -287 c 0,24,25
 725 -287 725 -287 700 -262 c 0,26,27
 678 -240 678 -240 678 -205 c 0,14,15
266 -238 m 1,28,-1
 266 -133 l 1,29,-1
 602 -133 l 1,30,-1
 602 -238 l 1,31,-1
 266 -238 l 1,28,-1
EndSplineSet
Position2: "Single Positioning lookup 26 subtable" dx=205 dy=0 dh=0 dv=0
Position2: "Single Positioning lookup 25 subtable" dx=123 dy=0 dh=0 dv=0
Position2: "Single Positioning lookup 24 subtable" dx=164 dy=0 dh=0 dv=0
EndChar

StartChar: hatafqamatshebrew
Encoding: 1459 1459 77
Width: 0
GlyphClass: 4
Flags: W
AnchorPoint: "Anchor-5" 840 0 mark 0
AnchorPoint: "Anchor-4" 532 0 mark 0
LayerCount: 2
Fore
SplineSet
678 -449 m 128,-1,1
 678 -412 678 -412 700.5 -390.5 c 128,-1,2
 723 -369 723 -369 760 -369 c 0,3,4
 795 -369 795 -369 817 -391 c 0,5,6
 842 -416 842 -416 842 -449 c 0,7,8
 842 -484 842 -484 817 -508 c 0,9,10
 792 -533 792 -533 760 -532 c 0,11,12
 723 -532 723 -532 700 -508 c 0,13,0
 678 -486 678 -486 678 -449 c 128,-1,1
678 -205 m 0,14,15
 678 -166 678 -166 700.5 -144.5 c 128,-1,16
 723 -123 723 -123 760 -123 c 0,17,18
 795 -123 795 -123 817 -145 c 0,19,20
 842 -170 842 -170 842 -205 c 0,21,22
 842 -238 842 -238 817.5 -262.5 c 128,-1,23
 793 -287 793 -287 760 -287 c 0,24,25
 725 -287 725 -287 700 -262 c 0,26,27
 678 -240 678 -240 678 -205 c 0,14,15
379 -426 m 1,28,-1
 379 -238 l 1,29,-1
 266 -238 l 1,30,-1
 266 -133 l 1,31,-1
 602 -133 l 1,32,-1
 602 -238 l 1,33,-1
 496 -238 l 1,34,-1
 496 -426 l 1,35,-1
 379 -426 l 1,28,-1
EndSplineSet
Position2: "Single Positioning lookup 26 subtable" dx=205 dy=0 dh=0 dv=0
Position2: "Single Positioning lookup 25 subtable" dx=123 dy=0 dh=0 dv=0
Position2: "Single Positioning lookup 24 subtable" dx=164 dy=0 dh=0 dv=0
EndChar

StartChar: hiriqhebrew
Encoding: 1460 1460 78
Width: 0
GlyphClass: 4
Flags: W
AnchorPoint: "Anchor-9" 0 0 mark 0
AnchorPoint: "Anchor-5" 492 -68 mark 0
AnchorPoint: "Anchor-4" 553 0 mark 0
LayerCount: 2
Fore
SplineSet
473 -205 m 0,0,1
 473 -170 473 -170 498 -145 c 0,2,3
 521 -122 521 -122 555.5 -122.5 c 128,-1,4
 590 -123 590 -123 612 -145 c 0,5,6
 637 -170 637 -170 637 -205 c 0,7,8
 637 -238 637 -238 612.5 -262.5 c 128,-1,9
 588 -287 588 -287 555 -287 c 128,-1,10
 522 -287 522 -287 497.5 -262.5 c 128,-1,11
 473 -238 473 -238 473 -205 c 0,0,1
EndSplineSet
Position2: "Single Positioning lookup 26 subtable" dx=205 dy=0 dh=0 dv=0
Position2: "Single Positioning lookup 25 subtable" dx=123 dy=0 dh=0 dv=0
Position2: "Single Positioning lookup 24 subtable" dx=164 dy=0 dh=0 dv=0
EndChar

StartChar: tserehebrew
Encoding: 1461 1461 79
Width: 0
GlyphClass: 4
Flags: W
AnchorPoint: "Anchor-9" 0 0 mark 0
AnchorPoint: "Anchor-5" 758 0 mark 0
AnchorPoint: "Anchor-4" 563 0 mark 0
LayerCount: 2
Fore
SplineSet
350 -205 m 0,0,1
 350 -170 350 -170 375 -145 c 0,2,3
 398 -122 398 -122 432.5 -122.5 c 128,-1,4
 467 -123 467 -123 489 -145 c 0,5,6
 514 -170 514 -170 514 -205 c 0,7,8
 514 -238 514 -238 489.5 -262.5 c 128,-1,9
 465 -287 465 -287 432 -287 c 128,-1,10
 399 -287 399 -287 374.5 -262.5 c 128,-1,11
 350 -238 350 -238 350 -205 c 0,0,1
596 -205 m 0,12,13
 596 -170 596 -170 621 -145 c 0,14,15
 644 -122 644 -122 678.5 -122.5 c 128,-1,16
 713 -123 713 -123 735 -145 c 0,17,18
 760 -170 760 -170 760 -205 c 0,19,20
 760 -238 760 -238 735.5 -262.5 c 128,-1,21
 711 -287 711 -287 678 -287 c 128,-1,22
 645 -287 645 -287 620.5 -262.5 c 128,-1,23
 596 -238 596 -238 596 -205 c 0,12,13
EndSplineSet
Position2: "Single Positioning lookup 26 subtable" dx=205 dy=0 dh=0 dv=0
Position2: "Single Positioning lookup 25 subtable" dx=123 dy=0 dh=0 dv=0
Position2: "Single Positioning lookup 24 subtable" dx=164 dy=0 dh=0 dv=0
EndChar

StartChar: segolhebrew
Encoding: 1462 1462 80
Width: 0
GlyphClass: 4
Flags: W
AnchorPoint: "Anchor-9" 0 0 mark 0
AnchorPoint: "Anchor-5" 758 0 mark 0
AnchorPoint: "Anchor-4" 563 0 mark 0
LayerCount: 2
Fore
SplineSet
350 -205 m 0,0,1
 350 -170 350 -170 375 -145 c 0,2,3
 398 -122 398 -122 432.5 -122.5 c 128,-1,4
 467 -123 467 -123 489 -145 c 0,5,6
 514 -170 514 -170 514 -205 c 0,7,8
 514 -238 514 -238 489.5 -262.5 c 128,-1,9
 465 -287 465 -287 432 -287 c 128,-1,10
 399 -287 399 -287 374.5 -262.5 c 128,-1,11
 350 -238 350 -238 350 -205 c 0,0,1
596 -205 m 0,12,13
 596 -170 596 -170 621 -145 c 0,14,15
 644 -122 644 -122 678.5 -122.5 c 128,-1,16
 713 -123 713 -123 735 -145 c 0,17,18
 760 -170 760 -170 760 -205 c 0,19,20
 760 -238 760 -238 735.5 -262.5 c 128,-1,21
 711 -287 711 -287 678 -287 c 128,-1,22
 645 -287 645 -287 620.5 -262.5 c 128,-1,23
 596 -238 596 -238 596 -205 c 0,12,13
473 -451 m 0,24,25
 473 -416 473 -416 498 -391 c 0,26,27
 521 -368 521 -368 555.5 -368.5 c 128,-1,28
 590 -369 590 -369 612 -391 c 0,29,30
 637 -416 637 -416 637 -451 c 0,31,32
 637 -484 637 -484 612 -508 c 0,33,34
 587 -533 587 -533 554.5 -532.5 c 128,-1,35
 522 -532 522 -532 498 -508 c 0,36,37
 473 -484 473 -484 473 -451 c 0,24,25
EndSplineSet
Position2: "Single Positioning lookup 26 subtable" dx=205 dy=0 dh=0 dv=0
Position2: "Single Positioning lookup 25 subtable" dx=123 dy=0 dh=0 dv=0
Position2: "Single Positioning lookup 24 subtable" dx=164 dy=0 dh=0 dv=0
EndChar

StartChar: patahhebrew
Encoding: 1463 1463 81
Width: 0
GlyphClass: 4
Flags: W
AnchorPoint: "Anchor-9" 0 0 mark 0
AnchorPoint: "Anchor-5" 758 0 mark 0
AnchorPoint: "Anchor-4" 553 0 mark 0
LayerCount: 2
Fore
SplineSet
358 -238 m 1,0,-1
 358 -133 l 1,1,-1
 760 -133 l 1,2,-1
 760 -238 l 1,3,-1
 358 -238 l 1,0,-1
EndSplineSet
Position2: "Single Positioning lookup 26 subtable" dx=205 dy=0 dh=0 dv=0
Position2: "Single Positioning lookup 25 subtable" dx=123 dy=0 dh=0 dv=0
Position2: "Single Positioning lookup 24 subtable" dx=164 dy=0 dh=0 dv=0
EndChar

StartChar: qamatshebrew
Encoding: 1464 1464 82
Width: 0
GlyphClass: 4
Flags: W
AnchorPoint: "Anchor-9" -4 4 mark 0
AnchorPoint: "Anchor-5" 758 -8 mark 0
AnchorPoint: "Anchor-4" 553 0 mark 0
LayerCount: 2
Fore
SplineSet
502 -446 m 1,0,-1
 502 -238 l 1,1,-1
 358 -238 l 1,2,-1
 358 -133 l 1,3,-1
 760 -133 l 1,4,-1
 760 -238 l 1,5,-1
 618 -238 l 1,6,-1
 618 -446 l 1,7,-1
 502 -446 l 1,0,-1
EndSplineSet
Position2: "Single Positioning lookup 26 subtable" dx=205 dy=0 dh=0 dv=0
Position2: "Single Positioning lookup 25 subtable" dx=123 dy=0 dh=0 dv=0
Position2: "Single Positioning lookup 24 subtable" dx=164 dy=0 dh=0 dv=0
EndChar

StartChar: holamhebrew
Encoding: 1465 1465 83
Width: 0
GlyphClass: 4
Flags: W
AnchorPoint: "Anchor-7" 123 0 mark 0
AnchorPoint: "Anchor-6" -106 0 basemark 0
AnchorPoint: "Anchor-6" 123 0 mark 0
AnchorPoint: "Anchor-3" 123 1188 mark 0
LayerCount: 2
Fore
SplineSet
-33 1276 m 0,0,1
 -33 1307 -33 1307 -8.5 1331.5 c 128,-1,2
 16 1356 16 1356 49 1356 c 0,3,4
 84 1356 84 1356 109 1331 c 0,5,6
 132 1308 132 1308 131 1276 c 0,7,8
 131 1239 131 1239 109 1217 c 0,9,10
 84 1192 84 1192 49 1192 c 0,11,12
 16 1192 16 1192 -8.5 1216.5 c 128,-1,13
 -33 1241 -33 1241 -33 1276 c 0,0,1
EndSplineSet
PairPos2: "Pairwise Positioning (kerning) lookup 27 subtable" uniFB1E dx=0 dy=0 dh=0 dv=0 dx=133 dy=0 dh=0 dv=0
PairPos2: "Pairwise Positioning (kerning) lookup 27 subtable" rafehebrew dx=0 dy=0 dh=0 dv=0 dx=133 dy=0 dh=0 dv=0
EndChar

StartChar: uni05BA
Encoding: 1466 1466 84
Width: 0
GlyphClass: 4
Flags: W
LayerCount: 2
Fore
SplineSet
-248 1276 m 0,0,1
 -248 1307 -248 1307 -223.5 1331.5 c 128,-1,2
 -199 1356 -199 1356 -166 1356 c 128,-1,3
 -133 1356 -133 1356 -108.5 1331.5 c 128,-1,4
 -84 1307 -84 1307 -84 1276 c 0,5,6
 -84 1241 -84 1241 -108.5 1216.5 c 128,-1,7
 -133 1192 -133 1192 -166 1192 c 128,-1,8
 -199 1192 -199 1192 -223.5 1216.5 c 128,-1,9
 -248 1241 -248 1241 -248 1276 c 0,0,1
EndSplineSet
Substitution2: "'ccmp' Glyph Composition/Decomposition in Hebrew lookup 0 subtable" glyph268
EndChar

StartChar: qubutshebrew
Encoding: 1467 1467 85
Width: 0
GlyphClass: 4
Flags: W
AnchorPoint: "Anchor-5" 676 0 mark 0
AnchorPoint: "Anchor-4" 451 0 mark 0
LayerCount: 2
Fore
SplineSet
231 -193 m 128,-1,1
 231 -164 231 -164 252 -143 c 0,2,3
 272 -123 272 -123 301 -123 c 128,-1,4
 330 -123 330 -123 350 -143 c 128,-1,5
 370 -163 370 -163 371 -193 c 0,6,7
 371 -222 371 -222 350 -242 c 0,8,9
 330 -262 330 -262 301 -262 c 128,-1,10
 272 -262 272 -262 252 -242 c 0,11,0
 231 -222 231 -222 231 -193 c 128,-1,1
528 -479.5 m 128,-1,13
 528 -451 528 -451 549 -430 c 0,14,15
 569 -410 569 -410 598 -410 c 128,-1,16
 627 -410 627 -410 647 -430 c 128,-1,17
 667 -450 667 -450 667.5 -479 c 128,-1,18
 668 -508 668 -508 647.5 -528.5 c 128,-1,19
 627 -549 627 -549 598 -549 c 128,-1,20
 569 -549 569 -549 548.5 -528.5 c 128,-1,12
 528 -508 528 -508 528 -479.5 c 128,-1,13
385 -336 m 128,-1,22
 385 -307 385 -307 405.5 -286.5 c 128,-1,23
 426 -266 426 -266 454.5 -266 c 128,-1,24
 483 -266 483 -266 504 -287 c 0,25,26
 524 -307 524 -307 524 -336 c 128,-1,27
 524 -365 524 -365 504 -385 c 128,-1,28
 484 -405 484 -405 455 -405.5 c 128,-1,29
 426 -406 426 -406 405.5 -385.5 c 128,-1,21
 385 -365 385 -365 385 -336 c 128,-1,22
EndSplineSet
Position2: "Single Positioning lookup 26 subtable" dx=205 dy=0 dh=0 dv=0
Position2: "Single Positioning lookup 25 subtable" dx=123 dy=0 dh=0 dv=0
Position2: "Single Positioning lookup 24 subtable" dx=164 dy=0 dh=0 dv=0
EndChar

StartChar: dageshhebrew
Encoding: 1468 1468 86
Width: 0
GlyphClass: 4
Flags: W
AnchorPoint: "Anchor-0" 481 563 mark 0
LayerCount: 2
Fore
SplineSet
485 662 m 0,0,1
 514 662 514 662 543 639 c 0,2,3
 570 619 570 619 569 578 c 0,4,5
 569 541 569 541 544.5 517.5 c 128,-1,6
 520 494 520 494 485 494 c 128,-1,7
 450 494 450 494 426 518 c 0,8,9
 401 543 401 543 401 578 c 0,10,11
 401 605 401 605 424 635 c 0,12,13
 444 662 444 662 485 662 c 0,0,1
EndSplineSet
EndChar

StartChar: uni05BD
Encoding: 1469 1469 87
Width: 0
GlyphClass: 4
Flags: W
LayerCount: 2
Fore
SplineSet
289 -133 m 1,0,-1
 393 -133 l 1,1,-1
 393 -502 l 1,2,-1
 289 -502 l 1,3,-1
 289 -133 l 1,0,-1
EndSplineSet
Substitution2: "'ccmp' Glyph Composition/Decomposition in Hebrew lookup 0 subtable" glyph268
EndChar

StartChar: uni05BE
Encoding: 1470 1470 88
Width: 780
GlyphClass: 2
Flags: W
LayerCount: 2
Fore
SplineSet
125 901 m 1,0,-1
 125 1061 l 1,1,-1
 659 1061 l 1,2,-1
 659 901 l 1,3,-1
 125 901 l 1,0,-1
EndSplineSet
EndChar

StartChar: rafehebrew
Encoding: 1471 1471 89
Width: 0
GlyphClass: 4
Flags: W
AnchorPoint: "Anchor-8" 696 0 basemark 0
AnchorPoint: "Anchor-7" 61 0 basemark 0
AnchorPoint: "Anchor-1" 369 1188 mark 0
LayerCount: 2
Fore
SplineSet
135 1192 m 1,0,-1
 135 1296 l 1,1,-1
 608 1296 l 1,2,-1
 608 1192 l 1,3,-1
 135 1192 l 1,0,-1
EndSplineSet
EndChar

StartChar: uni05C0
Encoding: 1472 1472 90
Width: 559
GlyphClass: 2
Flags: W
LayerCount: 2
Fore
SplineSet
211 -20 m 1,0,-1
 211 1280 l 1,1,-1
 352 1280 l 1,2,-1
 352 -20 l 1,3,-1
 211 -20 l 1,0,-1
EndSplineSet
EndChar

StartChar: shindothebrew
Encoding: 1473 1473 91
Width: 0
GlyphClass: 4
Flags: W
AnchorPoint: "Anchor-8" -41 0 mark 0
AnchorPoint: "Anchor-2" -20 1188 mark 0
LayerCount: 2
Fore
SplineSet
-33 1276 m 0,0,1
 -33 1307 -33 1307 -8.5 1331.5 c 128,-1,2
 16 1356 16 1356 49 1356 c 0,3,4
 84 1356 84 1356 109 1331 c 0,5,6
 132 1308 132 1308 131 1276 c 0,7,8
 131 1239 131 1239 109 1217 c 0,9,10
 84 1192 84 1192 49 1192 c 0,11,12
 16 1192 16 1192 -8.5 1216.5 c 128,-1,13
 -33 1241 -33 1241 -33 1276 c 0,0,1
EndSplineSet
EndChar

StartChar: sindothebrew
Encoding: 1474 1474 92
Width: 0
GlyphClass: 4
Flags: W
AnchorPoint: "Anchor-7" 123 0 mark 0
AnchorPoint: "Anchor-6" -102 0 basemark 0
AnchorPoint: "Anchor-6" 123 0 mark 0
AnchorPoint: "Anchor-3" 123 1188 mark 0
LayerCount: 2
Fore
SplineSet
-33 1276 m 0,0,1
 -33 1307 -33 1307 -8.5 1331.5 c 128,-1,2
 16 1356 16 1356 49 1356 c 0,3,4
 84 1356 84 1356 109 1331 c 0,5,6
 132 1308 132 1308 131 1276 c 0,7,8
 131 1239 131 1239 109 1217 c 0,9,10
 84 1192 84 1192 49 1192 c 0,11,12
 16 1192 16 1192 -8.5 1216.5 c 128,-1,13
 -33 1241 -33 1241 -33 1276 c 0,0,1
EndSplineSet
EndChar

StartChar: uni05C3
Encoding: 1475 1475 93
Width: 565
GlyphClass: 2
Flags: W
LayerCount: 2
Fore
SplineSet
184 856 m 1,0,-1
 184 1063 l 1,1,-1
 389 1063 l 1,2,-1
 389 856 l 1,3,-1
 184 856 l 1,0,-1
184 0 m 1,4,-1
 184 205 l 1,5,-1
 389 205 l 1,6,-1
 389 0 l 1,7,-1
 184 0 l 1,4,-1
EndSplineSet
EndChar

StartChar: uni05C4
Encoding: 1476 1476 94
Width: 0
GlyphClass: 4
Flags: W
LayerCount: 2
Fore
SplineSet
260 1276 m 0,0,1
 260 1307 260 1307 284.5 1331.5 c 128,-1,2
 309 1356 309 1356 342 1356 c 128,-1,3
 375 1356 375 1356 399.5 1331.5 c 128,-1,4
 424 1307 424 1307 424 1276 c 0,5,6
 424 1241 424 1241 399.5 1216.5 c 128,-1,7
 375 1192 375 1192 342 1192 c 128,-1,8
 309 1192 309 1192 284.5 1216.5 c 128,-1,9
 260 1241 260 1241 260 1276 c 0,0,1
EndSplineSet
Substitution2: "'ccmp' Glyph Composition/Decomposition in Hebrew lookup 0 subtable" glyph268
EndChar

StartChar: uni05C5
Encoding: 1477 1477 95
Width: 0
GlyphClass: 4
Flags: W
LayerCount: 2
Fore
SplineSet
-82 -205 m 0,0,1
 -82 -170 -82 -170 -57 -145 c 0,2,3
 -34 -122 -34 -122 0.5 -122.5 c 128,-1,4
 35 -123 35 -123 57 -145 c 0,5,6
 82 -170 82 -170 82 -205 c 0,7,8
 82 -238 82 -238 57.5 -262.5 c 128,-1,9
 33 -287 33 -287 0 -287 c 128,-1,10
 -33 -287 -33 -287 -57.5 -262.5 c 128,-1,11
 -82 -238 -82 -238 -82 -205 c 0,0,1
EndSplineSet
Substitution2: "'ccmp' Glyph Composition/Decomposition in Hebrew lookup 0 subtable" glyph268
EndChar

StartChar: uni05C6
Encoding: 1478 1478 96
Width: 1060
GlyphClass: 2
Flags: W
LayerCount: 2
Fore
SplineSet
227 885 m 1,0,-1
 293 788 l 1,1,2
 299 770 299 770 313 758 c 0,3,4
 336 735 336 735 369 735 c 128,-1,5
 402 735 402 735 424 758 c 0,6,7
 440 770 440 770 446 788 c 1,8,-1
 600 1020 l 2,9,10
 629 1063 629 1063 604 1104 c 0,11,12
 579 1147 579 1147 541 1149 c 0,13,14
 500 1151 500 1151 465 1110 c 1,15,-1
 369 967 l 1,16,-1
 285 1094 l 1,17,18
 277 1117 277 1117 254 1133 c 128,-1,19
 231 1149 231 1149 205 1149 c 0,20,21
 158 1149 158 1149 135 1110 c 0,22,23
 131 1104 131 1104 127 1092 c 0,24,25
 59 951 59 951 51 825 c 0,26,27
 43 690 43 690 86 573 c 128,-1,28
 129 456 129 456 227 346 c 0,29,30
 315 246 315 246 479 154 c 0,31,32
 643 64 643 64 836 4 c 0,33,34
 883 -10 883 -10 918 23 c 0,35,36
 951 56 951 56 942 100 c 0,37,38
 934 145 934 145 885 160 c 0,39,40
 539 264 539 264 358.5 456.5 c 128,-1,41
 178 649 178 649 227 885 c 1,0,-1
EndSplineSet
EndChar

StartChar: uni05C7
Encoding: 1479 1479 97
Width: 0
GlyphClass: 4
Flags: W
AnchorPoint: "Anchor-5" 205 0 mark 0
AnchorPoint: "Anchor-4" 0 0 mark 0
LayerCount: 2
Fore
SplineSet
201 -238 m 1,0,-1
 59 -238 l 1,1,-1
 59 -516 l 1,2,-1
 -57 -516 l 1,3,-1
 -57 -238 l 1,4,-1
 -201 -238 l 1,5,-1
 -201 -133 l 1,6,-1
 201 -133 l 1,7,-1
 201 -238 l 1,0,-1
EndSplineSet
Position2: "Single Positioning lookup 26 subtable" dx=205 dy=0 dh=0 dv=0
Position2: "Single Positioning lookup 25 subtable" dx=123 dy=0 dh=0 dv=0
Position2: "Single Positioning lookup 24 subtable" dx=164 dy=0 dh=0 dv=0
EndChar

StartChar: alefhebrew
Encoding: 1488 1488 98
Width: 1060
GlyphClass: 2
Flags: W
AnchorPoint: "Anchor-4" 553 0 basechar 0
AnchorPoint: "Anchor-3" 178 1188 basechar 0
AnchorPoint: "Anchor-2" 901 1243 basechar 0
AnchorPoint: "Anchor-1" 600 1407 basechar 0
LayerCount: 2
Fore
SplineSet
401 621 m 1,0,-1
 489 489 l 1,1,-1
 272 379 l 1,2,-1
 401 621 l 1,0,-1
489 782 m 1,3,-1
 674 1128 l 2,4,5
 699 1173 699 1173 672 1212 c 0,6,7
 647 1249 647 1249 600 1249 c 0,8,9
 557 1249 557 1249 530 1206 c 2,10,-1
 385 936 l 1,11,-1
 272 1106 l 2,12,13
 256 1135 256 1135 229 1141 c 0,14,15
 196 1147 196 1147 180 1141 c 128,-1,16
 164 1135 164 1135 141 1112 c 0,17,18
 123 1094 123 1094 123 1069 c 0,19,20
 123 1040 123 1040 137 1016 c 2,21,-1
 299 774 l 1,22,-1
 6 227 l 2,23,24
 -21 182 -21 182 23 135 c 0,25,26
 66 92 66 92 115 115 c 2,27,-1
 582 350 l 1,28,-1
 793 37 l 2,29,30
 809 8 809 8 836 2 c 0,31,32
 869 -4 869 -4 885 2 c 0,33,34
 903 8 903 8 924 31 c 0,35,36
 942 49 942 49 942 74 c 0,37,38
 942 103 942 103 928 127 c 2,39,-1
 729 424 l 1,40,-1
 1020 571 l 2,41,42
 1067 591 1067 591 1067 641 c 0,43,44
 1067 688 1067 688 1030 714.5 c 128,-1,45
 993 741 993 741 946 719 c 2,46,-1
 637 561 l 1,47,-1
 489 782 l 1,3,-1
EndSplineSet
Position2: "Single Positioning lookup 21 subtable" dx=205 dy=0 dh=205 dv=0
EndChar

StartChar: bethebrew
Encoding: 1489 1489 99
Width: 1060
GlyphClass: 2
Flags: W
AnchorPoint: "Anchor-4" 573 0 basechar 0
AnchorPoint: "Anchor-3" 231 956 basechar 0
AnchorPoint: "Anchor-2" 819 1020 basechar 0
AnchorPoint: "Anchor-1" 512 1036 basechar 0
LayerCount: 2
Fore
SplineSet
205 0 m 2,0,-1
 860 0 l 2,1,2
 897 0 897 0 920 23 c 128,-1,3
 943 46 943 46 942 82 c 2,4,-1
 942 313 l 2,5,6
 944 329 944 329 942 344 c 2,7,-1
 942 819 l 2,8,9
 942 858 942 858 919.5 879.5 c 128,-1,10
 897 901 897 901 860 901 c 2,11,-1
 217 901 l 1,12,13
 192 907 192 907 168 895 c 0,14,15
 148 887 148 887 133 858 c 0,16,17
 106 813 106 813 137 772 c 0,18,19
 145 756 145 756 166 745 c 2,20,-1
 778 287 l 1,21,-1
 778 164 l 1,22,-1
 205 164 l 2,23,24
 152 164 152 164 131.5 123 c 128,-1,25
 111 82 111 82 131.5 41 c 128,-1,26
 152 0 152 0 205 0 c 2,0,-1
451 737 m 1,27,-1
 778 737 l 1,28,-1
 778 492 l 1,29,-1
 451 737 l 1,27,-1
EndSplineSet
Position2: "Single Positioning lookup 21 subtable" dx=205 dy=0 dh=205 dv=0
EndChar

StartChar: gimelhebrew
Encoding: 1490 1490 100
Width: 1060
GlyphClass: 2
Flags: W
AnchorPoint: "Anchor-4" 588 0 basechar 0
AnchorPoint: "Anchor-3" 301 1038 basechar 0
AnchorPoint: "Anchor-2" 793 1229 basechar 0
AnchorPoint: "Anchor-1" 737 1337 basechar 0
LayerCount: 2
Fore
SplineSet
817 1135 m 1,0,-1
 176 895 l 1,1,2
 127 881 127 881 123 834 c 0,3,4
 121 785 121 785 152 756 c 0,5,6
 187 725 187 725 233 743 c 2,7,-1
 778 948 l 1,8,-1
 778 82 l 2,9,10
 778 29 778 29 819 8.5 c 128,-1,11
 860 -12 860 -12 901 8.5 c 128,-1,12
 942 29 942 29 942 82 c 2,13,-1
 942 1053 l 2,14,15
 942 1069 942 1069 940 1077 c 0,16,17
 938 1116 938 1116 907 1133 c 1,18,19
 880 1153 880 1153 850 1147 c 0,20,21
 837 1147 837 1147 817 1135 c 1,0,-1
EndSplineSet
Position2: "Single Positioning lookup 21 subtable" dx=205 dy=0 dh=205 dv=0
EndChar

StartChar: dalethebrew
Encoding: 1491 1491 101
Width: 1060
GlyphClass: 2
Flags: W
AnchorPoint: "Anchor-4" 629 27 basechar 0
AnchorPoint: "Anchor-3" 287 1079 basechar 0
AnchorPoint: "Anchor-2" 958 1184 basechar 0
AnchorPoint: "Anchor-1" 711 1255 basechar 0
LayerCount: 2
Fore
SplineSet
942 98 m 2,0,-1
 942 1049 l 2,1,2
 944 1076 944 1076 938 1094 c 0,3,4
 928 1123 928 1123 905 1135 c 0,5,6
 868 1160 868 1160 825 1139 c 0,7,8
 813 1135 813 1135 801 1122 c 2,9,-1
 166 647 l 2,10,11
 152 639 152 639 143 629 c 0,12,13
 120 604 120 604 121 573 c 0,14,15
 121 542 121 542 143 518 c 0,16,17
 151 508 151 508 166 500 c 2,18,-1
 801 25 l 2,19,20
 817 9 817 9 825 6 c 0,21,22
 866 -14 866 -14 905 12 c 0,23,24
 928 24 928 24 938 51 c 0,25,26
 944 71 944 71 942 98 c 2,0,-1
778 246 m 1,27,-1
 342 573 l 1,28,-1
 778 901 l 1,29,-1
 778 246 l 1,27,-1
EndSplineSet
Position2: "Single Positioning lookup 21 subtable" dx=205 dy=0 dh=205 dv=0
EndChar

StartChar: hehebrew
Encoding: 1492 1492 102
Width: 1060
GlyphClass: 2
Flags: W
AnchorPoint: "Anchor-4" 629 14 basechar 0
AnchorPoint: "Anchor-3" 301 1161 basechar 0
AnchorPoint: "Anchor-2" 901 1229 basechar 0
AnchorPoint: "Anchor-1" 696 1255 basechar 0
LayerCount: 2
Fore
SplineSet
778 948 m 1,0,-1
 778 874 l 1,1,-1
 176 649 l 1,2,3
 127 635 127 635 123 588 c 0,4,5
 121 539 121 539 152 510 c 0,6,7
 187 481 187 481 233 498 c 2,8,-1
 778 702 l 1,9,-1
 778 629 l 1,10,-1
 176 403 l 1,11,12
 127 389 127 389 123 342 c 0,13,14
 121 293 121 293 152 264 c 0,15,16
 187 235 187 235 233 252 c 2,17,-1
 778 457 l 1,18,-1
 778 82 l 2,19,20
 778 29 778 29 819 8.5 c 128,-1,21
 860 -12 860 -12 901 8.5 c 128,-1,22
 942 29 942 29 942 82 c 2,23,-1
 942 561 l 1,24,-1
 942 582 l 1,25,-1
 942 807 l 1,26,-1
 942 827 l 1,27,-1
 942 1053 l 2,28,29
 942 1069 942 1069 940 1077 c 0,30,31
 938 1116 938 1116 907 1133 c 1,32,33
 880 1153 880 1153 850 1147 c 0,34,35
 838 1147 838 1147 817 1135 c 2,36,-1
 176 895 l 1,37,38
 127 881 127 881 123 834 c 0,39,40
 121 785 121 785 152 756 c 0,41,42
 187 725 187 725 233 743 c 2,43,-1
 778 948 l 1,0,-1
EndSplineSet
Position2: "Single Positioning lookup 21 subtable" dx=205 dy=0 dh=205 dv=0
EndChar

StartChar: vavhebrew
Encoding: 1493 1493 103
Width: 1060
GlyphClass: 2
Flags: W
AnchorPoint: "Anchor-4" 530 -4 basechar 0
AnchorPoint: "Anchor-3" 301 1311 basechar 0
AnchorPoint: "Anchor-2" 915 1188 basechar 0
AnchorPoint: "Anchor-1" 518 1155 basechar 0
LayerCount: 2
Fore
SplineSet
614 778 m 1,0,-1
 909 999 l 2,1,2
 934 1017 934 1017 940 1044 c 0,3,4
 946 1075 946 1075 938 1094 c 0,5,6
 928 1117 928 1117 909.5 1133 c 128,-1,7
 891 1149 891 1149 864 1149 c 0,8,9
 835 1149 835 1149 811 1130 c 2,10,-1
 532 922 l 1,11,12
 344 1059 344 1059 264 1106 c 1,13,14
 260 1118 260 1118 254 1130 c 1,15,16
 211 1161 211 1161 170 1141 c 128,-1,17
 129 1121 129 1121 123 1075 c 0,18,19
 117 1032 117 1032 156 999 c 0,20,21
 234 940 234 940 331 867.5 c 128,-1,22
 428 795 428 795 451 778 c 1,23,-1
 451 82 l 2,24,25
 451 29 451 29 492 8 c 0,26,27
 533 -12 533 -12 573 8 c 0,28,29
 614 28 614 28 614 82 c 2,30,-1
 614 778 l 1,0,-1
EndSplineSet
Position2: "Single Positioning lookup 22 subtable" dx=164 dy=0 dh=164 dv=0
Position2: "Single Positioning lookup 21 subtable" dx=205 dy=0 dh=205 dv=0
EndChar

StartChar: zayinhebrew
Encoding: 1494 1494 104
Width: 1060
GlyphClass: 2
Flags: W
AnchorPoint: "Anchor-4" 612 10 basechar 0
AnchorPoint: "Anchor-3" 74 1212 basechar 0
AnchorPoint: "Anchor-2" 1004 1196 basechar 0
AnchorPoint: "Anchor-1" 578 1188 basechar 0
LayerCount: 2
Fore
SplineSet
88 -2 m 2,0,-1
 985 -2 l 2,1,2
 1038 -2 1038 -2 1058.5 39 c 128,-1,3
 1079 80 1079 80 1058.5 121 c 128,-1,4
 1038 162 1038 162 985 162 c 2,5,-1
 834 162 l 1,6,7
 701 418 701 418 401 985 c 1,8,-1
 979 985 l 2,9,10
 1030 985 1030 985 1050.5 1026 c 128,-1,11
 1071 1067 1071 1067 1050.5 1108 c 128,-1,12
 1030 1149 1030 1149 979 1149 c 2,13,-1
 82 1149 l 2,14,15
 31 1149 31 1149 10.5 1108 c 128,-1,16
 -10 1067 -10 1067 10.5 1026 c 128,-1,17
 31 985 31 985 82 985 c 2,18,-1
 217 985 l 1,19,20
 240 942 240 942 383 666.5 c 128,-1,21
 526 391 526 391 647 162 c 1,22,-1
 88 162 l 2,23,24
 35 162 35 162 14.5 121 c 128,-1,25
 -6 80 -6 80 14.5 39 c 128,-1,26
 35 -2 35 -2 88 -2 c 2,0,-1
EndSplineSet
Position2: "Single Positioning lookup 21 subtable" dx=205 dy=0 dh=205 dv=0
EndChar

StartChar: hethebrew
Encoding: 1495 1495 105
Width: 1040
GlyphClass: 2
Flags: W
AnchorPoint: "Anchor-4" 549 -4 basechar 0
AnchorPoint: "Anchor-3" 143 1294 basechar 0
AnchorPoint: "Anchor-2" 936 1315 basechar 0
AnchorPoint: "Anchor-1" 537 1249 basechar 0
AnchorPoint: "Anchor-0" 557 737 basechar 0
LayerCount: 2
Fore
SplineSet
283 188 m 1,0,-1
 283 362 l 1,1,-1
 776 549 l 1,2,-1
 776 305 l 1,3,-1
 283 188 l 1,0,-1
285 537 m 1,4,-1
 285 770 l 1,5,-1
 776 1022 l 1,6,-1
 776 721 l 1,7,-1
 285 537 l 1,4,-1
143 27 m 0,8,9
 170 0 170 0 199 0 c 0,10,11
 207 0 207 0 211 2 c 2,12,-1
 221 6 l 1,13,-1
 776 137 l 1,14,-1
 776 -70 l 2,15,16
 776 -107 776 -107 801 -129 c 0,17,18
 828 -152 828 -152 858.5 -152 c 128,-1,19
 889 -152 889 -152 915 -129 c 0,20,21
 940 -106 940 -106 940 -70 c 2,22,-1
 940 174 l 1,23,-1
 940 653 l 1,24,-1
 940 674 l 1,25,-1
 940 1143 l 2,26,27
 940 1161 940 1161 938 1176 c 0,28,29
 932 1205 932 1205 909 1221 c 1,30,31
 889 1241 889 1241 860 1241 c 0,32,33
 848 1241 848 1241 821 1231 c 2,34,-1
 285 956 l 1,35,-1
 285 1157 l 2,36,37
 285 1198 285 1198 260 1219 c 0,38,39
 237 1239 237 1239 203 1239 c 0,40,41
 168 1239 168 1239 145 1219 c 0,42,43
 120 1199 120 1199 121 1157 c 2,44,-1
 121 831 l 1,45,-1
 121 817 l 1,46,-1
 121 92 l 2,47,48
 120 50 120 50 143 27 c 0,8,9
EndSplineSet
Position2: "Single Positioning lookup 21 subtable" dx=205 dy=0 dh=205 dv=0
EndChar

StartChar: tethebrew
Encoding: 1496 1496 106
Width: 1060
GlyphClass: 2
Flags: W
AnchorPoint: "Anchor-4" 532 4 basechar 0
AnchorPoint: "Anchor-3" 229 1188 basechar 0
AnchorPoint: "Anchor-2" 930 1188 basechar 0
AnchorPoint: "Anchor-1" 541 1184 basechar 0
LayerCount: 2
Fore
SplineSet
-6 573 m 0,0,1
 -6 352 -6 352 151.5 193.5 c 128,-1,2
 309 35 309 35 532 35 c 128,-1,3
 755 35 755 35 913 192.5 c 128,-1,4
 1071 350 1071 350 1071 573 c 128,-1,5
 1071 796 1071 796 913.5 954 c 128,-1,6
 756 1112 756 1112 532 1112 c 0,7,8
 311 1112 311 1112 152.5 954 c 128,-1,9
 -6 796 -6 796 -6 573 c 0,0,1
670 573 m 1,10,-1
 874 727 l 1,11,12
 907 657 907 657 907 573 c 128,-1,13
 907 489 907 489 874 420 c 1,14,-1
 670 573 l 1,10,-1
532 676 m 1,15,-1
 289 858 l 1,16,17
 395 948 395 948 532 948 c 128,-1,18
 669 948 669 948 776 858 c 1,19,-1
 532 676 l 1,15,-1
532 471 m 1,20,-1
 776 289 l 1,21,22
 670 199 670 199 532 199 c 0,23,24
 397 199 397 199 289 289 c 1,25,-1
 532 471 l 1,20,-1
395 573 m 1,26,-1
 190 420 l 1,27,28
 157 488 157 488 158 573 c 0,29,30
 158 659 158 659 190 727 c 1,31,-1
 395 573 l 1,26,-1
EndSplineSet
Position2: "Single Positioning lookup 21 subtable" dx=205 dy=0 dh=205 dv=0
EndChar

StartChar: yodhebrew
Encoding: 1497 1497 107
Width: 1060
GlyphClass: 2
Flags: W
AnchorPoint: "Anchor-4" 485 -8 basechar 0
AnchorPoint: "Anchor-3" 446 1184 basechar 0
AnchorPoint: "Anchor-2" 526 1184 basechar 0
AnchorPoint: "Anchor-1" 520 1184 basechar 0
LayerCount: 2
Fore
SplineSet
412 246 m 1,0,-1
 657 614 l 2,1,2
 661 618 661 618 662 621 c 2,3,-1
 920 1008 l 1,4,5
 938 1026 938 1026 942 1055 c 0,6,7
 946 1086 946 1086 926 1114 c 0,8,9
 903 1147 903 1147 868 1149 c 0,10,11
 837 1151 837 1151 817 1137 c 1,12,-1
 66 836 l 2,13,14
 17 818 17 818 13.5 770.5 c 128,-1,15
 10 723 10 723 43 694 c 128,-1,16
 76 665 76 665 127 684 c 2,17,-1
 647 893 l 1,18,-1
 543 733 l 1,19,-1
 178 606 l 2,20,21
 129 588 129 588 123 543 c 0,22,23
 117 496 117 496 150 467 c 0,24,25
 185 436 185 436 231 451 c 2,26,-1
 389 506 l 1,27,-1
 145 139 l 1,28,29
 122 121 122 121 123 90 c 0,30,31
 121 55 121 55 143.5 28.5 c 128,-1,32
 166 2 166 2 186 0 c 0,33,34
 219 -8 219 -8 250 12 c 1,35,-1
 889 252 l 1,36,37
 938 266 938 266 942 313 c 0,38,39
 944 362 944 362 913 391 c 0,40,41
 878 420 878 420 831 403 c 2,42,-1
 412 246 l 1,0,-1
EndSplineSet
Position2: "Single Positioning lookup 22 subtable" dx=164 dy=0 dh=164 dv=0
Position2: "Single Positioning lookup 21 subtable" dx=205 dy=0 dh=205 dv=0
EndChar

StartChar: finalkafhebrew
Encoding: 1498 1498 108
Width: 1060
GlyphClass: 2
Flags: W
AnchorPoint: "Anchor-5" 586 0 basechar 0
AnchorPoint: "Anchor-3" 172 1266 basechar 0
AnchorPoint: "Anchor-2" 889 1278 basechar 0
AnchorPoint: "Anchor-1" 389 1274 basechar 0
LayerCount: 2
Fore
SplineSet
782 1114 m 0,0,1
 782 1100 782 1100 791 874 c 1,2,-1
 606 1157 l 2,3,4
 586 1192 586 1192 551 1194 c 0,5,6
 512 1196 512 1196 492 1182 c 0,7,8
 467 1164 467 1164 455 1133 c 0,9,10
 443 1104 443 1104 467 1067 c 2,11,-1
 649 786 l 1,12,-1
 238 942 l 2,13,14
 191 958 191 958 156 930 c 0,15,16
 121 899 121 899 127 854 c 128,-1,17
 133 809 133 809 180 791 c 2,18,-1
 782 563 l 1,19,20
 772 467 772 467 754 412 c 0,21,22
 731 342 731 342 690 287 c 0,23,24
 647 232 647 232 590 201 c 0,25,26
 531 170 531 170 440 170 c 0,27,28
 348 170 348 170 233 207 c 0,29,30
 184 221 184 221 152 190 c 0,31,32
 121 159 121 159 127 113 c 0,33,34
 133 66 133 66 184 51 c 0,35,36
 307 12 307 12 401 4 c 0,37,38
 487 -4 487 -4 571 14 c 0,39,40
 639 28 639 28 702 72 c 0,41,42
 761 115 761 115 799 168 c 0,43,44
 836 221 836 221 862 295 c 0,45,46
 891 375 891 375 905 442 c 0,47,48
 921 526 921 526 930 604 c 0,49,50
 936 624 936 624 934 641 c 0,51,52
 938 690 938 690 942 795 c 0,53,54
 944 848 944 848 944 975 c 0,55,56
 944 1014 944 1014 945 1059 c 128,-1,57
 946 1104 946 1104 946 1110 c 0,58,59
 946 1163 946 1163 907 1183.5 c 128,-1,60
 868 1204 868 1204 825 1185.5 c 128,-1,61
 782 1167 782 1167 782 1114 c 0,0,1
EndSplineSet
Position2: "Single Positioning lookup 21 subtable" dx=205 dy=0 dh=205 dv=0
EndChar

StartChar: kafhebrew
Encoding: 1499 1499 109
Width: 1060
GlyphClass: 2
Flags: W
AnchorPoint: "Anchor-4" 545 -4 basechar 0
AnchorPoint: "Anchor-3" 164 1126 basechar 0
AnchorPoint: "Anchor-2" 918 1270 basechar 0
AnchorPoint: "Anchor-1" 516 1290 basechar 0
LayerCount: 2
Fore
SplineSet
782 1114 m 0,0,1
 782 1100 782 1100 791 874 c 1,2,-1
 606 1157 l 2,3,4
 586 1192 586 1192 551 1194 c 0,5,6
 512 1196 512 1196 492 1182 c 0,7,8
 467 1164 467 1164 455 1133 c 0,9,10
 443 1104 443 1104 467 1067 c 2,11,-1
 649 786 l 1,12,-1
 238 942 l 2,13,14
 191 958 191 958 156 930 c 0,15,16
 121 899 121 899 127 854 c 128,-1,17
 133 809 133 809 180 791 c 2,18,-1
 782 563 l 1,19,20
 772 467 772 467 754 412 c 0,21,22
 731 342 731 342 690 287 c 0,23,24
 647 232 647 232 590 201 c 0,25,26
 531 170 531 170 440 170 c 0,27,28
 348 170 348 170 233 207 c 0,29,30
 184 221 184 221 152 190 c 0,31,32
 121 159 121 159 127 113 c 0,33,34
 133 66 133 66 184 51 c 0,35,36
 307 12 307 12 401 4 c 0,37,38
 487 -4 487 -4 571 14 c 0,39,40
 639 28 639 28 702 72 c 0,41,42
 761 115 761 115 799 168 c 0,43,44
 836 221 836 221 862 295 c 0,45,46
 891 375 891 375 905 442 c 0,47,48
 921 526 921 526 930 604 c 0,49,50
 936 624 936 624 934 641 c 0,51,52
 938 690 938 690 942 795 c 0,53,54
 944 848 944 848 944 975 c 0,55,56
 944 1014 944 1014 945 1059 c 128,-1,57
 946 1104 946 1104 946 1110 c 0,58,59
 946 1163 946 1163 907 1183.5 c 128,-1,60
 868 1204 868 1204 825 1185.5 c 128,-1,61
 782 1167 782 1167 782 1114 c 0,0,1
EndSplineSet
Position2: "Single Positioning lookup 21 subtable" dx=205 dy=0 dh=205 dv=0
EndChar

StartChar: lamedhebrew
Encoding: 1500 1500 110
Width: 1060
GlyphClass: 2
Flags: W
AnchorPoint: "Anchor-4" 512 0 basechar 0
AnchorPoint: "Anchor-3" 281 1176 basechar 0
AnchorPoint: "Anchor-2" 1012 1196 basechar 0
AnchorPoint: "Anchor-1" 709 1217 basechar 0
LayerCount: 2
Fore
SplineSet
412 246 m 1,0,-1
 928 1020 l 2,1,2
 942 1045 942 1045 942 1073 c 0,3,4
 942 1098 942 1098 924 1116 c 0,5,6
 904 1139 904 1139 885 1145 c 0,7,8
 862 1155 862 1155 836 1145 c 0,9,10
 807 1135 807 1135 793 1110 c 2,11,-1
 145 139 l 1,12,13
 122 121 122 121 123 90 c 0,14,15
 121 55 121 55 143.5 28.5 c 128,-1,16
 166 2 166 2 186 0 c 0,17,18
 219 -8 219 -8 250 12 c 1,19,-1
 889 252 l 1,20,21
 938 266 938 266 942 313 c 0,22,23
 944 362 944 362 913 391 c 0,24,25
 878 420 878 420 831 403 c 2,26,-1
 412 246 l 1,0,-1
EndSplineSet
Position2: "Single Positioning lookup 23 subtable" dx=225 dy=0 dh=225 dv=0
EndChar

StartChar: finalmemhebrew
Encoding: 1501 1501 111
Width: 1060
GlyphClass: 2
Flags: W
AnchorPoint: "Anchor-4" 614 0 basechar 0
AnchorPoint: "Anchor-3" 246 1188 basechar 0
AnchorPoint: "Anchor-2" 983 1188 basechar 0
AnchorPoint: "Anchor-1" 553 1188 basechar 0
AnchorPoint: "Anchor-0" 610 520 basechar 0
LayerCount: 2
Fore
SplineSet
782 1094 m 1,0,-1
 696 967 l 1,1,-1
 608 1096 l 1,2,3
 602 1114 602 1114 588 1126 c 0,4,5
 565 1149 565 1149 532 1149 c 128,-1,6
 499 1149 499 1149 477 1126 c 0,7,8
 463 1116 463 1116 457 1096 c 1,9,-1
 369 967 l 1,10,-1
 272 1110 l 2,11,12
 258 1135 258 1135 229 1145 c 0,13,14
 202 1155 202 1155 180 1145 c 0,15,16
 164 1139 164 1139 141 1116 c 0,17,18
 123 1098 123 1098 123 1073 c 0,19,20
 123 1044 123 1044 137 1020 c 2,21,-1
 293 788 l 1,22,23
 299 770 299 770 313 758 c 0,24,25
 336 735 336 735 369 735 c 128,-1,26
 402 735 402 735 424 758 c 0,27,28
 440 770 440 770 446 788 c 1,29,-1
 532 920 l 1,30,-1
 618 788 l 1,31,32
 622 772 622 772 641 758 c 0,33,34
 664 735 664 735 696 735 c 0,35,36
 729 735 729 735 752 758 c 0,37,38
 766 768 766 768 772 788 c 1,39,-1
 829 874 l 1,40,41
 847 737 847 737 807 627 c 0,42,43
 762 504 762 504 674 420 c 0,44,45
 576 326 576 326 457 264 c 0,46,47
 330 201 330 201 184 162 c 0,48,49
 153 156 153 156 137 133 c 0,50,51
 123 113 123 113 123 86 c 0,52,53
 123 68 123 68 135 39 c 0,54,55
 143 19 143 19 170 6 c 0,56,57
 190 -4 190 -4 225 2 c 0,58,59
 514 72 514 72 711 229 c 0,60,61
 910 387 910 387 977 606 c 128,-1,62
 1044 825 1044 825 940 1087 c 0,63,64
 940 1089 940 1089 937 1096.5 c 128,-1,65
 934 1104 934 1104 932 1106 c 0,66,67
 909 1149 909 1149 866 1149 c 0,68,69
 833 1151 833 1151 809 1128 c 0,70,71
 786 1108 786 1108 782 1094 c 1,0,-1
EndSplineSet
Position2: "Single Positioning lookup 21 subtable" dx=205 dy=0 dh=205 dv=0
EndChar

StartChar: memhebrew
Encoding: 1502 1502 112
Width: 1060
GlyphClass: 2
Flags: W
AnchorPoint: "Anchor-4" 655 0 basechar 0
AnchorPoint: "Anchor-3" 205 1188 basechar 0
AnchorPoint: "Anchor-2" 983 1188 basechar 0
AnchorPoint: "Anchor-1" 696 1188 basechar 0
LayerCount: 2
Fore
SplineSet
782 1094 m 1,0,-1
 696 967 l 1,1,-1
 608 1096 l 1,2,3
 602 1114 602 1114 588 1126 c 0,4,5
 565 1149 565 1149 532 1149 c 128,-1,6
 499 1149 499 1149 477 1126 c 0,7,8
 463 1116 463 1116 457 1096 c 1,9,-1
 369 967 l 1,10,-1
 272 1110 l 2,11,12
 258 1135 258 1135 229 1145 c 0,13,14
 202 1155 202 1155 180 1145 c 0,15,16
 164 1139 164 1139 141 1116 c 0,17,18
 123 1098 123 1098 123 1073 c 0,19,20
 123 1044 123 1044 137 1020 c 2,21,-1
 293 788 l 1,22,23
 299 770 299 770 313 758 c 0,24,25
 336 735 336 735 369 735 c 128,-1,26
 402 735 402 735 424 758 c 0,27,28
 440 770 440 770 446 788 c 1,29,-1
 532 920 l 1,30,-1
 618 788 l 1,31,32
 622 772 622 772 641 758 c 0,33,34
 664 735 664 735 696 735 c 0,35,36
 729 735 729 735 752 758 c 0,37,38
 766 768 766 768 772 788 c 1,39,-1
 829 874 l 1,40,41
 847 737 847 737 807 627 c 0,42,43
 762 504 762 504 674 420 c 0,44,45
 576 326 576 326 457 264 c 0,46,47
 330 201 330 201 184 162 c 0,48,49
 153 156 153 156 137 133 c 0,50,51
 123 113 123 113 123 86 c 0,52,53
 123 68 123 68 135 39 c 0,54,55
 143 19 143 19 170 6 c 0,56,57
 190 -4 190 -4 225 2 c 0,58,59
 514 72 514 72 711 229 c 0,60,61
 910 387 910 387 977 606 c 128,-1,62
 1044 825 1044 825 940 1087 c 0,63,64
 940 1089 940 1089 937 1096.5 c 128,-1,65
 934 1104 934 1104 932 1106 c 0,66,67
 909 1149 909 1149 866 1149 c 0,68,69
 833 1151 833 1151 809 1128 c 0,70,71
 786 1108 786 1108 782 1094 c 1,0,-1
EndSplineSet
Position2: "Single Positioning lookup 21 subtable" dx=205 dy=0 dh=205 dv=0
EndChar

StartChar: finalnunhebrew
Encoding: 1503 1503 113
Width: 1060
GlyphClass: 2
Flags: W
AnchorPoint: "Anchor-5" 723 -68 basechar 0
AnchorPoint: "Anchor-3" 676 1217 basechar 0
AnchorPoint: "Anchor-2" 756 1217 basechar 0
AnchorPoint: "Anchor-1" 756 1221 basechar 0
AnchorPoint: "Anchor-0" 0 532 basechar 0
LayerCount: 2
Fore
SplineSet
213 0 m 0,0,1
 360 14 360 14 498 86 c 0,2,3
 639 158 639 158 743 262 c 0,4,5
 849 368 849 368 920 504 c 0,6,7
 988 631 988 631 993 788 c 0,8,9
 999 942 999 942 940 1090 c 0,10,11
 936 1102 936 1102 932 1108 c 0,12,13
 914 1145 914 1145 874 1147 c 1,14,15
 835 1155 835 1155 805 1126 c 0,16,17
 789 1114 789 1114 782 1094 c 1,18,-1
 696 967 l 1,19,-1
 600 1110 l 2,20,21
 584 1139 584 1139 557 1145 c 0,22,23
 526 1151 526 1151 510 1145 c 0,24,25
 490 1137 490 1137 469 1116 c 0,26,27
 451 1098 451 1098 451 1073 c 0,28,29
 451 1044 451 1044 465 1020 c 2,30,-1
 618 788 l 1,31,32
 622 772 622 772 641 758 c 0,33,34
 664 735 664 735 696 735 c 0,35,36
 729 735 729 735 752 758 c 0,37,38
 766 768 766 768 772 788 c 1,39,-1
 829 870 l 1,40,41
 841 741 841 741 793 618 c 0,42,43
 748 501 748 501 651 399 c 0,44,45
 569 311 569 311 440 242 c 0,46,47
 315 174 315 174 197 164 c 0,48,49
 146 158 146 158 127 115 c 0,50,51
 111 74 111 74 135 33 c 0,52,53
 158 -6 158 -6 213 0 c 0,0,1
EndSplineSet
Position2: "Single Positioning lookup 20 subtable" dx=205 dy=0 dh=205 dv=0
Position2: "Single Positioning lookup 19 subtable" dx=451 dy=0 dh=451 dv=0
EndChar

StartChar: nunhebrew
Encoding: 1504 1504 114
Width: 1060
GlyphClass: 2
Flags: W
AnchorPoint: "Anchor-4" 532 -8 basechar 0
AnchorPoint: "Anchor-3" 164 1094 basechar 0
AnchorPoint: "Anchor-2" 995 1188 basechar 0
AnchorPoint: "Anchor-1" 545 1253 basechar 0
LayerCount: 2
Fore
SplineSet
213 0 m 0,0,1
 360 14 360 14 498 86 c 0,2,3
 639 158 639 158 743 262 c 0,4,5
 849 368 849 368 920 504 c 0,6,7
 988 631 988 631 993 788 c 0,8,9
 999 942 999 942 940 1090 c 0,10,11
 936 1102 936 1102 932 1108 c 0,12,13
 914 1145 914 1145 874 1147 c 1,14,15
 835 1155 835 1155 805 1126 c 0,16,17
 789 1114 789 1114 782 1094 c 1,18,-1
 696 967 l 1,19,-1
 600 1110 l 2,20,21
 584 1139 584 1139 557 1145 c 0,22,23
 526 1151 526 1151 510 1145 c 0,24,25
 490 1137 490 1137 469 1116 c 0,26,27
 451 1098 451 1098 451 1073 c 0,28,29
 451 1044 451 1044 465 1020 c 2,30,-1
 618 788 l 1,31,32
 622 772 622 772 641 758 c 0,33,34
 664 735 664 735 696 735 c 0,35,36
 729 735 729 735 752 758 c 0,37,38
 766 768 766 768 772 788 c 1,39,-1
 829 870 l 1,40,41
 841 741 841 741 793 618 c 0,42,43
 748 501 748 501 651 399 c 0,44,45
 569 311 569 311 440 242 c 0,46,47
 315 174 315 174 197 164 c 0,48,49
 146 158 146 158 127 115 c 0,50,51
 111 74 111 74 135 33 c 0,52,53
 158 -6 158 -6 213 0 c 0,0,1
EndSplineSet
Position2: "Single Positioning lookup 21 subtable" dx=205 dy=0 dh=205 dv=0
EndChar

StartChar: samekhhebrew
Encoding: 1505 1505 115
Width: 1060
GlyphClass: 2
Flags: W
AnchorPoint: "Anchor-4" 537 -12 basechar 0
AnchorPoint: "Anchor-3" 168 1200 basechar 0
AnchorPoint: "Anchor-2" 913 1188 basechar 0
AnchorPoint: "Anchor-1" 532 1192 basechar 0
LayerCount: 2
Fore
SplineSet
614 737 m 1,0,-1
 860 737 l 2,1,2
 913 737 913 737 933.5 778 c 128,-1,3
 954 819 954 819 933.5 860 c 128,-1,4
 913 901 913 901 860 901 c 2,5,-1
 614 901 l 1,6,-1
 614 983 l 1,7,-1
 860 983 l 2,8,9
 899 983 899 983 920.5 1007.5 c 128,-1,10
 942 1032 942 1032 942 1065 c 128,-1,11
 942 1098 942 1098 919.5 1122.5 c 128,-1,12
 897 1147 897 1147 860 1147 c 2,13,-1
 532 1147 l 1,14,-1
 451 1147 l 1,15,-1
 205 1147 l 2,16,17
 152 1147 152 1147 131.5 1106 c 128,-1,18
 111 1065 111 1065 131.5 1024 c 128,-1,19
 152 983 152 983 205 983 c 2,20,-1
 451 983 l 1,21,-1
 451 901 l 1,22,-1
 205 901 l 2,23,24
 152 901 152 901 131.5 860 c 128,-1,25
 111 819 111 819 131.5 778 c 128,-1,26
 152 737 152 737 205 737 c 2,27,-1
 451 737 l 1,28,-1
 451 655 l 1,29,-1
 205 655 l 2,30,31
 152 655 152 655 131.5 614 c 128,-1,32
 111 573 111 573 131 532 c 128,-1,33
 151 491 151 491 205 492 c 2,34,-1
 451 492 l 1,35,-1
 451 82 l 2,36,37
 451 29 451 29 492 8 c 0,38,39
 533 -12 533 -12 573 8 c 0,40,41
 614 28 614 28 614 82 c 2,42,-1
 614 492 l 1,43,-1
 860 492 l 2,44,45
 913 492 913 492 934 532 c 0,46,47
 954 573 954 573 933.5 614 c 128,-1,48
 913 655 913 655 860 655 c 2,49,-1
 614 655 l 1,50,-1
 614 737 l 1,0,-1
EndSplineSet
Position2: "Single Positioning lookup 21 subtable" dx=205 dy=0 dh=205 dv=0
EndChar

StartChar: ayinhebrew
Encoding: 1506 1506 116
Width: 1060
GlyphClass: 2
Flags: W
AnchorPoint: "Anchor-4" 532 -8 basechar 0
AnchorPoint: "Anchor-3" 209 1147 basechar 0
AnchorPoint: "Anchor-2" 860 1188 basechar 0
AnchorPoint: "Anchor-1" 532 1171 basechar 0
AnchorPoint: "Anchor-0" 520 565 basechar 0
LayerCount: 2
Fore
SplineSet
16 557 m 0,0,1
 16 422 16 422 160 317 c 0,2,3
 299 215 299 215 528 215 c 128,-1,4
 757 215 757 215 897 317 c 0,5,6
 1040 421 1040 421 1040 557 c 0,7,8
 1040 694 1040 694 897 799 c 0,9,10
 758 901 758 901 528 901 c 0,11,12
 301 901 301 901 160 799 c 0,13,14
 16 694 16 694 16 557 c 0,0,1
180 557 m 128,-1,16
 180 639 180 639 286.5 688 c 128,-1,17
 393 737 393 737 528 737 c 128,-1,18
 663 737 663 737 770 688 c 128,-1,19
 877 639 877 639 877 557 c 128,-1,20
 877 475 877 475 768 426 c 0,21,22
 666 379 666 379 528 379 c 0,23,24
 393 379 393 379 289 426 c 0,25,15
 180 475 180 475 180 557 c 128,-1,16
EndSplineSet
Substitution2: "Single Substitution lookup 5 subtable" uniFB20
Position2: "Single Positioning lookup 21 subtable" dx=205 dy=0 dh=205 dv=0
EndChar

StartChar: finalpehebrew
Encoding: 1507 1507 117
Width: 1060
GlyphClass: 2
Flags: W
AnchorPoint: "Anchor-5" 541 0 basechar 0
AnchorPoint: "Anchor-3" 209 1159 basechar 0
AnchorPoint: "Anchor-2" 950 1184 basechar 0
AnchorPoint: "Anchor-1" 549 1188 basechar 0
LayerCount: 2
Fore
SplineSet
788 1108 m 0,0,1
 747 1065 747 1065 715 1040 c 0,2,3
 676 1011 676 1011 621 989 c 0,4,5
 543 958 543 958 532 954 c 0,6,7
 501 944 501 944 432 924 c 0,8,9
 407 918 407 918 376.5 907.5 c 128,-1,10
 346 897 346 897 344 897 c 0,11,12
 293 883 293 883 287 836 c 128,-1,13
 281 789 281 789 311 758 c 0,14,15
 344 725 344 725 393 741 c 0,16,17
 413 747 413 747 463 762 c 0,18,19
 481 766 481 766 506.5 775 c 128,-1,20
 532 784 532 784 539 786 c 0,21,22
 547 788 547 788 570.5 797.5 c 128,-1,23
 594 807 594 807 608 811 c 0,24,25
 626 817 626 817 684 840 c 0,26,27
 711 850 711 850 752 874 c 0,28,29
 772 886 772 886 819 918 c 1,30,31
 829 828 829 828 801 750 c 0,32,33
 768 662 768 662 717 598 c 0,34,35
 660 526 660 526 582 461 c 0,36,37
 521 408 521 408 430 342 c 0,38,39
 356 289 356 289 276 233 c 0,40,41
 192 176 192 176 154 145 c 0,42,43
 129 127 129 127 123 100.5 c 128,-1,44
 117 74 117 74 127 51 c 0,45,46
 133 35 133 35 158 14 c 0,47,48
 174 0 174 0 205 0 c 0,49,50
 232 0 232 0 256 18 c 0,51,52
 315 65 315 65 375 111 c 0,53,54
 395 127 395 127 427 150.5 c 128,-1,55
 459 174 459 174 478.5 189.5 c 128,-1,56
 498 205 498 205 514 217 c 0,57,58
 557 250 557 250 651 334 c 0,59,60
 733 408 733 408 782 465 c 0,61,62
 835 528 835 528 887 602 c 0,63,64
 936 674 936 674 961 754 c 0,65,66
 979 813 979 813 979 911 c 0,67,68
 979 999 979 999 942 1081 c 1,69,70
 940 1104 940 1104 920 1122 c 1,71,72
 902 1145 902 1145 881 1147 c 0,73,74
 842 1157 842 1157 807 1126 c 0,75,76
 805 1124 805 1124 797.5 1118 c 128,-1,77
 790 1112 790 1112 788 1108 c 0,0,1
EndSplineSet
EndChar

StartChar: pehebrew
Encoding: 1508 1508 118
Width: 1060
GlyphClass: 2
Flags: W
AnchorPoint: "Anchor-4" 532 0 basechar 0
AnchorPoint: "Anchor-3" 205 1188 basechar 0
AnchorPoint: "Anchor-2" 922 1188 basechar 0
AnchorPoint: "Anchor-1" 512 1188 basechar 0
LayerCount: 2
Fore
SplineSet
788 1108 m 0,0,1
 747 1065 747 1065 715 1040 c 0,2,3
 676 1011 676 1011 621 989 c 0,4,5
 543 958 543 958 532 954 c 0,6,7
 501 944 501 944 432 924 c 0,8,9
 407 918 407 918 376.5 907.5 c 128,-1,10
 346 897 346 897 344 897 c 0,11,12
 293 883 293 883 287 836 c 128,-1,13
 281 789 281 789 311 758 c 0,14,15
 344 725 344 725 393 741 c 0,16,17
 413 747 413 747 463 762 c 0,18,19
 481 766 481 766 506.5 775 c 128,-1,20
 532 784 532 784 539 786 c 0,21,22
 547 788 547 788 570.5 797.5 c 128,-1,23
 594 807 594 807 608 811 c 0,24,25
 626 817 626 817 684 840 c 0,26,27
 711 850 711 850 752 874 c 0,28,29
 772 886 772 886 819 918 c 1,30,31
 829 828 829 828 801 750 c 0,32,33
 768 662 768 662 717 598 c 0,34,35
 660 526 660 526 582 461 c 0,36,37
 521 408 521 408 430 342 c 0,38,39
 356 289 356 289 276 233 c 0,40,41
 192 176 192 176 154 145 c 0,42,43
 129 127 129 127 123 100.5 c 128,-1,44
 117 74 117 74 127 51 c 0,45,46
 133 35 133 35 158 14 c 0,47,48
 174 0 174 0 205 0 c 0,49,50
 232 0 232 0 256 18 c 0,51,52
 315 65 315 65 375 111 c 0,53,54
 395 127 395 127 427 150.5 c 128,-1,55
 459 174 459 174 478.5 189.5 c 128,-1,56
 498 205 498 205 514 217 c 0,57,58
 557 250 557 250 651 334 c 0,59,60
 733 408 733 408 782 465 c 0,61,62
 835 528 835 528 887 602 c 0,63,64
 936 674 936 674 961 754 c 0,65,66
 979 813 979 813 979 911 c 0,67,68
 979 999 979 999 942 1081 c 1,69,70
 940 1104 940 1104 920 1122 c 1,71,72
 902 1145 902 1145 881 1147 c 0,73,74
 842 1157 842 1157 807 1126 c 0,75,76
 805 1124 805 1124 797.5 1118 c 128,-1,77
 790 1112 790 1112 788 1108 c 0,0,1
EndSplineSet
Position2: "Single Positioning lookup 21 subtable" dx=205 dy=0 dh=205 dv=0
EndChar

StartChar: finaltsadihebrew
Encoding: 1509 1509 119
Width: 1060
GlyphClass: 2
Flags: W
AnchorPoint: "Anchor-5" 205 0 basechar 0
AnchorPoint: "Anchor-3" 164 1188 basechar 0
AnchorPoint: "Anchor-2" 963 1180 basechar 0
AnchorPoint: "Anchor-1" 528 1184 basechar 0
AnchorPoint: "Anchor-0" 172 221 basechar 0
LayerCount: 2
Fore
SplineSet
696 967 m 1,0,-1
 608 1096 l 1,1,2
 602 1114 602 1114 588 1126 c 0,3,4
 565 1149 565 1149 532 1149 c 128,-1,5
 499 1149 499 1149 477 1126 c 0,6,7
 463 1116 463 1116 457 1096 c 1,8,-1
 369 967 l 1,9,-1
 272 1110 l 2,10,11
 258 1135 258 1135 229 1145 c 0,12,13
 202 1155 202 1155 180 1145 c 0,14,15
 164 1139 164 1139 141 1116 c 0,16,17
 123 1098 123 1098 123 1073 c 0,18,19
 123 1044 123 1044 137 1020 c 2,20,-1
 293 788 l 2,21,22
 303 768 303 768 307 764 c 2,23,-1
 793 37 l 2,24,25
 809 8 809 8 836 2 c 0,26,27
 869 -4 869 -4 885 2 c 0,28,29
 903 8 903 8 924 31 c 0,30,31
 942 49 942 49 942 74 c 0,32,33
 942 103 942 103 928 127 c 2,34,-1
 467 819 l 1,35,-1
 532 920 l 1,36,-1
 618 788 l 1,37,38
 622 772 622 772 641 758 c 0,39,40
 664 735 664 735 696 735 c 0,41,42
 729 735 729 735 752 758 c 0,43,44
 766 768 766 768 772 788 c 1,45,-1
 928 1020 l 2,46,47
 957 1065 957 1065 934 1104 c 0,48,49
 909 1147 909 1147 866 1149 c 0,50,51
 827 1151 827 1151 793 1110 c 1,52,-1
 696 967 l 1,0,-1
EndSplineSet
Position2: "Single Positioning lookup 21 subtable" dx=205 dy=0 dh=205 dv=0
Position2: "Single Positioning lookup 20 subtable" dx=205 dy=0 dh=205 dv=0
Position2: "Single Positioning lookup 19 subtable" dx=287 dy=0 dh=287 dv=0
EndChar

StartChar: tsadihebrew
Encoding: 1510 1510 120
Width: 1060
GlyphClass: 2
Flags: W
AnchorPoint: "Anchor-4" 500 -4 basechar 0
AnchorPoint: "Anchor-3" 164 1188 basechar 0
AnchorPoint: "Anchor-2" 1001 1184 basechar 0
AnchorPoint: "Anchor-1" 545 1171 basechar 0
LayerCount: 2
Fore
SplineSet
696 967 m 1,0,-1
 608 1096 l 1,1,2
 602 1114 602 1114 588 1126 c 0,3,4
 565 1149 565 1149 532 1149 c 128,-1,5
 499 1149 499 1149 477 1126 c 0,6,7
 463 1116 463 1116 457 1096 c 1,8,-1
 369 967 l 1,9,-1
 272 1110 l 2,10,11
 258 1135 258 1135 229 1145 c 0,12,13
 202 1155 202 1155 180 1145 c 0,14,15
 164 1139 164 1139 141 1116 c 0,16,17
 123 1098 123 1098 123 1073 c 0,18,19
 123 1044 123 1044 137 1020 c 2,20,-1
 293 788 l 2,21,22
 303 768 303 768 307 764 c 2,23,-1
 793 37 l 2,24,25
 809 8 809 8 836 2 c 0,26,27
 869 -4 869 -4 885 2 c 0,28,29
 903 8 903 8 924 31 c 0,30,31
 942 49 942 49 942 74 c 0,32,33
 942 103 942 103 928 127 c 2,34,-1
 467 819 l 1,35,-1
 532 920 l 1,36,-1
 618 788 l 1,37,38
 622 772 622 772 641 758 c 0,39,40
 664 735 664 735 696 735 c 0,41,42
 729 735 729 735 752 758 c 0,43,44
 766 768 766 768 772 788 c 1,45,-1
 928 1020 l 2,46,47
 957 1065 957 1065 934 1104 c 0,48,49
 909 1147 909 1147 866 1149 c 0,50,51
 827 1151 827 1151 793 1110 c 1,52,-1
 696 967 l 1,0,-1
EndSplineSet
Position2: "Single Positioning lookup 21 subtable" dx=205 dy=0 dh=205 dv=0
EndChar

StartChar: qofhebrew
Encoding: 1511 1511 121
Width: 1222
GlyphClass: 2
Flags: W
AnchorPoint: "Anchor-4" 635 -8 basechar 0
AnchorPoint: "Anchor-3" 152 1188 basechar 0
AnchorPoint: "Anchor-2" 1102 1180 basechar 0
AnchorPoint: "Anchor-1" 643 1180 basechar 0
LayerCount: 2
Fore
SplineSet
291 670 m 1,0,-1
 111 672 l 2,1,2
 60 672 60 672 39 631 c 128,-1,3
 18 590 18 590 38.5 549 c 128,-1,4
 59 508 59 508 111 508 c 2,5,-1
 291 508 l 1,6,7
 320 387 320 387 412 315 c 0,8,9
 506 241 506 241 629 242 c 0,10,11
 750 242 750 242 844 315 c 0,12,13
 940 391 940 391 967 506 c 1,14,-1
 1130 506 l 2,15,16
 1181 506 1181 506 1202 547 c 128,-1,17
 1223 588 1223 588 1202.5 629 c 128,-1,18
 1182 670 1182 670 1130 670 c 2,19,-1
 967 670 l 1,20,21
 940 783 940 783 846 860 c 0,22,23
 750 938 750 938 629 938 c 0,24,25
 510 938 510 938 412 862 c 0,26,27
 320 789 320 789 291 670 c 1,0,-1
463 506 m 1,28,-1
 793 506 l 1,29,30
 773 463 773 463 725 432 c 0,31,32
 682 405 682 405 629 406 c 0,33,34
 572 406 572 406 530 432 c 0,35,36
 483 461 483 461 463 506 c 1,28,-1
795 670 m 1,37,-1
 463 670 l 1,38,39
 486 719 486 719 530 745 c 0,40,41
 575 772 575 772 629 772 c 0,42,43
 680 772 680 772 727 745 c 0,44,45
 772 717 772 717 795 670 c 1,37,-1
EndSplineSet
Position2: "Single Positioning lookup 21 subtable" dx=205 dy=0 dh=205 dv=0
EndChar

StartChar: reshhebrew
Encoding: 1512 1512 122
Width: 1060
GlyphClass: 2
Flags: W
AnchorPoint: "Anchor-4" 864 0 basechar 0
AnchorPoint: "Anchor-3" 135 1180 basechar 0
AnchorPoint: "Anchor-2" 999 1192 basechar 0
AnchorPoint: "Anchor-1" 532 1188 basechar 0
LayerCount: 2
Fore
SplineSet
451 655 m 1,0,-1
 778 901 l 1,1,-1
 778 655 l 1,2,-1
 451 655 l 1,0,-1
217 492 m 1,3,-1
 778 492 l 1,4,-1
 778 82 l 2,5,6
 778 31 778 31 819 10.5 c 128,-1,7
 860 -10 860 -10 901 10.5 c 128,-1,8
 942 31 942 31 942 82 c 2,9,-1
 942 1049 l 2,10,11
 944 1076 944 1076 938 1094 c 0,12,13
 928 1123 928 1123 905 1135 c 0,14,15
 868 1160 868 1160 825 1139 c 0,16,17
 813 1135 813 1135 801 1122 c 2,18,-1
 166 647 l 2,19,20
 146 637 146 637 137 621 c 0,21,22
 106 578 106 578 133 532 c 0,23,24
 145 509 145 509 168 500 c 0,25,26
 194 486 194 486 217 492 c 1,3,-1
EndSplineSet
Position2: "Single Positioning lookup 21 subtable" dx=205 dy=0 dh=205 dv=0
EndChar

StartChar: shinhebrew
Encoding: 1513 1513 123
Width: 1060
GlyphClass: 2
Flags: W
AnchorPoint: "Anchor-4" 532 -4 basechar 0
AnchorPoint: "Anchor-3" 147 1188 basechar 0
AnchorPoint: "Anchor-2" 926 1180 basechar 0
AnchorPoint: "Anchor-1" 528 1176 basechar 0
AnchorPoint: "Anchor-0" 537 752 basechar 0
LayerCount: 2
Fore
SplineSet
682 389 m 1,0,-1
 614 588 l 1,1,2
 610 615 610 615 598 627 c 0,3,4
 575 656 575 656 532 655 c 0,5,6
 491 655 491 655 469 627 c 0,7,8
 455 613 455 613 451 588 c 1,9,-1
 385 389 l 1,10,-1
 285 838 l 2,11,12
 275 887 275 887 227 899 c 0,13,14
 182 911 182 911 147 881 c 0,15,16
 112 852 112 852 125 801 c 2,17,-1
 287 78 l 1,18,19
 287 49 287 49 303 31 c 0,20,21
 326 0 326 0 367 0 c 0,22,23
 406 0 406 0 430 27 c 0,24,25
 448 45 448 45 451 66 c 2,26,-1
 532 313 l 1,27,-1
 614 66 l 1,28,29
 616 46 616 46 635 27 c 0,30,31
 660 0 660 0 698 0 c 0,32,33
 741 0 741 0 762 31 c 0,34,35
 778 49 778 49 778 78 c 1,36,-1
 940 801 l 2,37,38
 946 840 946 840 930 864 c 0,39,40
 912 893 912 893 879 899 c 128,-1,41
 846 905 846 905 817 891 c 0,42,43
 786 877 786 877 780 838 c 2,44,-1
 682 389 l 1,0,-1
EndSplineSet
EndChar

StartChar: tavhebrew
Encoding: 1514 1514 124
Width: 1060
GlyphClass: 2
Flags: W
AnchorPoint: "Anchor-4" 532 -4 basechar 0
AnchorPoint: "Anchor-3" 82 1188 basechar 0
AnchorPoint: "Anchor-2" 983 1188 basechar 0
AnchorPoint: "Anchor-1" 537 1163 basechar 0
LayerCount: 2
Fore
SplineSet
532 426 m 1,0,-1
 793 37 l 2,1,2
 809 8 809 8 836 2 c 0,3,4
 869 -4 869 -4 885 2 c 0,5,6
 903 8 903 8 924 31 c 0,7,8
 942 49 942 49 942 74 c 0,9,10
 942 103 942 103 928 127 c 2,11,-1
 631 573 l 1,12,-1
 928 1020 l 2,13,14
 957 1065 957 1065 934 1104 c 0,15,16
 909 1147 909 1147 866 1149 c 0,17,18
 827 1151 827 1151 793 1110 c 1,19,-1
 532 721 l 1,20,-1
 272 1110 l 2,21,22
 256 1139 256 1139 229 1145 c 0,23,24
 196 1151 196 1151 180 1145 c 128,-1,25
 164 1139 164 1139 141 1116 c 0,26,27
 123 1098 123 1098 123 1073 c 0,28,29
 123 1044 123 1044 137 1020 c 2,30,-1
 434 573 l 1,31,-1
 137 127 l 2,32,33
 108 82 108 82 131 43 c 0,34,35
 156 2 156 2 199 0 c 0,36,37
 238 -2 238 -2 272 37 c 1,38,-1
 532 426 l 1,0,-1
EndSplineSet
EndChar

StartChar: vavvavhebrew
Encoding: 1520 1520 125
Width: 1005
GlyphClass: 2
Flags: W
AnchorPoint: "Anchor-9" -53 0 basechar 0
LayerCount: 2
Fore
SplineSet
614 778 m 1,0,-1
 909 999 l 2,1,2
 934 1017 934 1017 940 1044 c 0,3,4
 946 1075 946 1075 938 1094 c 0,5,6
 928 1117 928 1117 909.5 1133 c 128,-1,7
 891 1149 891 1149 864 1149 c 0,8,9
 835 1149 835 1149 811 1130 c 2,10,-1
 532 922 l 1,11,12
 344 1059 344 1059 264 1106 c 1,13,14
 260 1118 260 1118 254 1130 c 1,15,16
 211 1161 211 1161 170 1141 c 128,-1,17
 129 1121 129 1121 123 1075 c 0,18,19
 117 1032 117 1032 156 999 c 0,20,21
 234 940 234 940 331 867.5 c 128,-1,22
 428 795 428 795 451 778 c 1,23,-1
 451 82 l 2,24,25
 451 29 451 29 492 8 c 0,26,27
 533 -12 533 -12 573 8 c 0,28,29
 614 28 614 28 614 82 c 2,30,-1
 614 778 l 1,0,-1
1120 778 m 1,31,-1
 1415 999 l 2,32,33
 1444 1019 1444 1019 1448 1044 c 0,34,35
 1454 1071 1454 1071 1444 1093.5 c 128,-1,36
 1434 1116 1434 1116 1415.5 1132.5 c 128,-1,37
 1397 1149 1397 1149 1368 1149 c 0,38,39
 1341 1149 1341 1149 1317 1130 c 2,40,-1
 1038 922 l 1,41,42
 850 1059 850 1059 770 1106 c 1,43,44
 766 1118 766 1118 760 1130 c 1,45,46
 719 1161 719 1161 678 1141 c 0,47,48
 635 1121 635 1121 629 1075 c 0,49,50
 623 1032 623 1032 662 999 c 0,51,52
 740 940 740 940 837 868.5 c 128,-1,53
 934 797 934 797 956 778 c 1,54,-1
 956 82 l 2,55,56
 956 29 956 29 997 8.5 c 128,-1,57
 1038 -12 1038 -12 1079 8.5 c 128,-1,58
 1120 29 1120 29 1120 82 c 2,59,-1
 1120 778 l 1,31,-1
EndSplineSet
EndChar

StartChar: vavyodhebrew
Encoding: 1521 1521 126
Width: 1005
GlyphClass: 2
Flags: W
AnchorPoint: "Anchor-9" -53 0 basechar 0
LayerCount: 2
Fore
SplineSet
412 246 m 1,0,-1
 657 614 l 2,1,2
 661 618 661 618 662 621 c 2,3,-1
 920 1008 l 1,4,5
 938 1026 938 1026 942 1055 c 0,6,7
 946 1086 946 1086 926 1114 c 0,8,9
 903 1147 903 1147 868 1149 c 0,10,11
 837 1151 837 1151 817 1137 c 1,12,-1
 66 836 l 2,13,14
 17 818 17 818 13.5 770.5 c 128,-1,15
 10 723 10 723 43 694 c 128,-1,16
 76 665 76 665 127 684 c 2,17,-1
 647 893 l 1,18,-1
 543 733 l 1,19,-1
 178 606 l 2,20,21
 129 588 129 588 123 543 c 0,22,23
 117 496 117 496 150 467 c 0,24,25
 185 436 185 436 231 451 c 2,26,-1
 389 506 l 1,27,-1
 145 139 l 1,28,29
 122 121 122 121 123 90 c 0,30,31
 121 55 121 55 143.5 28.5 c 128,-1,32
 166 2 166 2 186 0 c 0,33,34
 219 -8 219 -8 250 12 c 1,35,-1
 889 252 l 1,36,37
 938 266 938 266 942 313 c 0,38,39
 944 362 944 362 913 391 c 0,40,41
 878 420 878 420 831 403 c 2,42,-1
 412 246 l 1,0,-1
1120 778 m 1,43,-1
 1415 999 l 2,44,45
 1444 1019 1444 1019 1448 1044 c 0,46,47
 1454 1071 1454 1071 1444 1093.5 c 128,-1,48
 1434 1116 1434 1116 1415.5 1132.5 c 128,-1,49
 1397 1149 1397 1149 1368 1149 c 0,50,51
 1341 1149 1341 1149 1317 1130 c 2,52,-1
 1038 922 l 1,53,54
 850 1059 850 1059 770 1106 c 1,55,56
 766 1118 766 1118 760 1130 c 1,57,58
 719 1161 719 1161 678 1141 c 0,59,60
 635 1121 635 1121 629 1075 c 0,61,62
 623 1032 623 1032 662 999 c 0,63,64
 740 940 740 940 837 868.5 c 128,-1,65
 934 797 934 797 956 778 c 1,66,-1
 956 82 l 2,67,68
 956 29 956 29 997 8.5 c 128,-1,69
 1038 -12 1038 -12 1079 8.5 c 128,-1,70
 1120 29 1120 29 1120 82 c 2,71,-1
 1120 778 l 1,43,-1
EndSplineSet
EndChar

StartChar: yodyodhebrew
Encoding: 1522 1522 127
Width: 1005
GlyphClass: 2
Flags: W
AnchorPoint: "Anchor-9" -53 0 basechar 0
LayerCount: 2
Fore
SplineSet
412 246 m 1,0,-1
 657 614 l 2,1,2
 661 618 661 618 662 621 c 2,3,-1
 920 1008 l 1,4,5
 938 1026 938 1026 942 1055 c 0,6,7
 946 1086 946 1086 926 1114 c 0,8,9
 903 1147 903 1147 868 1149 c 0,10,11
 837 1151 837 1151 817 1137 c 1,12,-1
 66 836 l 2,13,14
 17 818 17 818 13.5 770.5 c 128,-1,15
 10 723 10 723 43 694 c 128,-1,16
 76 665 76 665 127 684 c 2,17,-1
 647 893 l 1,18,-1
 543 733 l 1,19,-1
 178 606 l 2,20,21
 129 588 129 588 123 543 c 0,22,23
 117 496 117 496 150 467 c 0,24,25
 185 436 185 436 231 451 c 2,26,-1
 389 506 l 1,27,-1
 145 139 l 1,28,29
 122 121 122 121 123 90 c 0,30,31
 121 55 121 55 143.5 28.5 c 128,-1,32
 166 2 166 2 186 0 c 0,33,34
 219 -8 219 -8 250 12 c 1,35,-1
 889 252 l 1,36,37
 938 266 938 266 942 313 c 0,38,39
 944 362 944 362 913 391 c 0,40,41
 878 420 878 420 831 403 c 2,42,-1
 412 246 l 1,0,-1
918 246 m 1,43,-1
 1163 614 l 2,44,45
 1167 618 1167 618 1167 621 c 2,46,-1
 1425 1008 l 1,47,48
 1445 1028 1445 1028 1448 1055 c 0,49,50
 1452 1086 1452 1086 1432 1114 c 0,51,52
 1409 1147 1409 1147 1374 1149 c 0,53,54
 1343 1151 1343 1151 1323 1137 c 1,55,-1
 571 836 l 2,56,57
 522 818 522 818 518 770 c 0,58,59
 516 725 516 725 551 694 c 0,60,61
 584 665 584 665 633 684 c 2,62,-1
 1153 893 l 1,63,-1
 1049 733 l 1,64,-1
 684 606 l 2,65,66
 635 588 635 588 629 543 c 0,67,68
 623 496 623 496 655 467 c 0,69,70
 690 436 690 436 737 451 c 2,71,-1
 897 506 l 1,72,-1
 651 139 l 1,73,74
 628 121 628 121 629 90 c 0,75,76
 627 55 627 55 649.5 28.5 c 128,-1,77
 672 2 672 2 692 0 c 0,78,79
 725 -8 725 -8 756 12 c 1,80,-1
 1395 252 l 2,81,82
 1446 268 1446 268 1450 313 c 0,83,84
 1452 360 1452 360 1419 391 c 0,85,86
 1384 420 1384 420 1337 403 c 2,87,-1
 918 246 l 1,43,-1
EndSplineSet
EndChar

StartChar: gereshhebrew
Encoding: 1523 1523 128
Width: 479
GlyphClass: 2
Flags: W
LayerCount: 2
Fore
SplineSet
90 676 m 1,0,-1
 188 1061 l 1,1,-1
 393 1061 l 1,2,-1
 211 676 l 1,3,-1
 90 676 l 1,0,-1
EndSplineSet
EndChar

StartChar: gershayimhebrew
Encoding: 1524 1524 129
Width: 849
GlyphClass: 2
Flags: W
LayerCount: 2
Fore
SplineSet
461 676 m 1,0,-1
 559 1061 l 1,1,-1
 764 1061 l 1,2,-1
 582 676 l 1,3,-1
 461 676 l 1,0,-1
90 676 m 1,4,-1
 188 1061 l 1,5,-1
 393 1061 l 1,6,-1
 211 676 l 1,7,-1
 90 676 l 1,4,-1
EndSplineSet
EndChar

StartChar: uni200E
Encoding: 8206 8206 133
Width: 0
GlyphClass: 2
Flags: W
LayerCount: 2
Fore
SplineSet
430 1198 m 1,0,-1
 213 983 l 1,1,-1
 164 1032 l 1,2,-1
 301 1163 l 1,3,-1
 35 1163 l 1,4,-1
 35 -274 l 1,5,-1
 -37 -274 l 1,6,-1
 -37 1235 l 1,7,-1
 301 1235 l 1,8,-1
 164 1364 l 1,9,-1
 213 1413 l 1,10,-1
 430 1198 l 1,0,-1
EndSplineSet
EndChar

StartChar: uni200F
Encoding: 8207 8207 134
Width: 0
GlyphClass: 2
Flags: W
LayerCount: 2
Fore
SplineSet
35 -274 m 1,0,-1
 -37 -274 l 1,1,-1
 -37 1163 l 1,2,-1
 -301 1163 l 1,3,-1
 -166 1032 l 1,4,-1
 -213 983 l 1,5,-1
 -430 1198 l 1,6,-1
 -213 1413 l 1,7,-1
 -166 1364 l 1,8,-1
 -301 1235 l 1,9,-1
 35 1235 l 1,10,-1
 35 -274 l 1,0,-1
EndSplineSet
EndChar

StartChar: endash
Encoding: 8211 8211 135
Width: 780
GlyphClass: 2
Flags: W
LayerCount: 2
Fore
SplineSet
125 901 m 1,0,-1
 125 1061 l 1,1,-1
 659 1061 l 1,2,-1
 659 901 l 1,3,-1
 125 901 l 1,0,-1
EndSplineSet
EndChar

StartChar: emdash
Encoding: 8212 8212 136
Width: 1017
GlyphClass: 2
Flags: W
LayerCount: 2
Fore
SplineSet
125 451 m 1,0,-1
 125 610 l 1,1,-1
 897 610 l 1,2,-1
 897 451 l 1,3,-1
 125 451 l 1,0,-1
EndSplineSet
EndChar

StartChar: quoteleft
Encoding: 8216 8216 137
Width: 423
GlyphClass: 2
Flags: W
LayerCount: 2
Fore
SplineSet
305 791 m 1,0,-1
 305 582 l 1,1,-1
 111 582 l 1,2,-1
 111 745 l 2,3,4
 111 866 111 866 141 940 c 0,5,6
 172 1014 172 1014 276 1061 c 1,7,-1
 319 991 l 1,8,9
 210 948 210 948 211 791 c 1,10,-1
 305 791 l 1,0,-1
EndSplineSet
EndChar

StartChar: quoteright
Encoding: 8217 8217 138
Width: 423
GlyphClass: 2
Flags: W
LayerCount: 2
Fore
SplineSet
125 852 m 1,0,-1
 125 1061 l 1,1,-1
 319 1061 l 1,2,-1
 319 897 l 2,3,4
 319 758 319 758 283 692 c 0,5,6
 244 622 244 622 154 582 c 1,7,-1
 111 651 l 1,8,9
 217 696 217 696 217 852 c 1,10,-1
 125 852 l 1,0,-1
EndSplineSet
EndChar

StartChar: quotedblleft
Encoding: 8220 8220 139
Width: 733
GlyphClass: 2
Flags: W
LayerCount: 2
Fore
SplineSet
303 791 m 1,0,-1
 303 582 l 1,1,-1
 111 582 l 1,2,-1
 111 745 l 2,3,4
 111 888 111 888 145 950 c 0,5,6
 186 1022 186 1022 274 1061 c 1,7,-1
 319 991 l 1,8,9
 208 946 208 946 209 791 c 1,10,-1
 303 791 l 1,0,-1
612 791 m 1,11,-1
 612 582 l 1,12,-1
 420 582 l 1,13,-1
 420 745 l 2,14,15
 420 864 420 864 451 940 c 0,16,17
 482 1014 482 1014 584 1061 c 1,18,-1
 629 991 l 1,19,20
 518 944 518 944 518 791 c 1,21,-1
 612 791 l 1,11,-1
EndSplineSet
EndChar

StartChar: quotedblright
Encoding: 8221 8221 140
Width: 735
GlyphClass: 2
Flags: W
LayerCount: 2
Fore
SplineSet
127 852 m 1,0,-1
 127 1061 l 1,1,-1
 322 1061 l 1,2,-1
 322 897 l 2,3,4
 322 760 322 760 285 692 c 0,5,6
 246 622 246 622 156 582 c 1,7,-1
 111 651 l 1,8,9
 220 698 220 698 219 852 c 1,10,-1
 127 852 l 1,0,-1
438 852 m 1,11,-1
 438 1061 l 1,12,-1
 631 1061 l 1,13,-1
 631 897 l 2,14,15
 631 760 631 760 594 692 c 0,16,17
 555 622 555 622 465 582 c 1,18,-1
 422 651 l 1,19,20
 533 696 533 696 532 852 c 1,21,-1
 438 852 l 1,11,-1
EndSplineSet
EndChar

StartChar: quotedblbase
Encoding: 8222 8222 141
Width: 735
GlyphClass: 2
Flags: W
LayerCount: 2
Fore
SplineSet
127 0 m 1,0,-1
 127 209 l 1,1,-1
 322 209 l 1,2,-1
 322 45 l 2,3,4
 322 -80 322 -80 289 -150 c 0,5,6
 254 -226 254 -226 156 -270 c 1,7,-1
 111 -201 l 1,8,9
 220 -158 220 -158 219 0 c 1,10,-1
 127 0 l 1,0,-1
438 0 m 1,11,-1
 438 209 l 1,12,-1
 631 209 l 1,13,-1
 631 45 l 2,14,15
 631 -92 631 -92 594 -160 c 0,16,17
 555 -230 555 -230 467 -270 c 1,18,-1
 422 -201 l 1,19,20
 533 -158 533 -158 532 0 c 1,21,-1
 438 0 l 1,11,-1
EndSplineSet
EndChar

StartChar: ellipsis
Encoding: 8230 8230 142
Width: 2048
GlyphClass: 2
Flags: W
LayerCount: 2
Fore
SplineSet
240 0 m 1,0,-1
 240 205 l 1,1,-1
 444 205 l 1,2,-1
 444 0 l 1,3,-1
 240 0 l 1,0,-1
922 0 m 1,4,-1
 922 205 l 1,5,-1
 1126 205 l 1,6,-1
 1126 0 l 1,7,-1
 922 0 l 1,4,-1
1604 0 m 1,8,-1
 1604 205 l 1,9,-1
 1808 205 l 1,10,-1
 1808 0 l 1,11,-1
 1604 0 l 1,8,-1
EndSplineSet
EndChar

StartChar: sheqelhebrew
Encoding: 8362 8362 143
Width: 1665
GlyphClass: 2
Flags: W
LayerCount: 2
Fore
SplineSet
1118 344 m 1,0,-1
 950 344 l 1,1,-1
 950 774 l 2,2,3
 950 850 950 850 915 885 c 0,4,5
 882 918 882 918 803 918 c 2,6,-1
 324 918 l 1,7,-1
 324 0 l 1,8,-1
 156 0 l 1,9,-1
 156 1061 l 1,10,-1
 836 1061 l 2,11,12
 977 1061 977 1061 1049 987 c 0,13,14
 1119 915 1119 915 1118 791 c 2,15,-1
 1118 344 l 1,0,-1
553 0 m 1,16,-1
 553 717 l 1,17,-1
 721 717 l 1,18,-1
 721 143 l 1,19,-1
 1198 143 l 2,20,21
 1288 143 1288 143 1317 182 c 0,22,23
 1348 225 1348 225 1348 287 c 2,24,-1
 1348 1061 l 1,25,-1
 1516 1061 l 1,26,-1
 1516 270 l 2,27,28
 1516 143 1516 143 1442 72 c 0,29,30
 1366 0 1366 0 1233 0 c 2,31,-1
 553 0 l 1,16,-1
EndSplineSet
EndChar

StartChar: uni25CC
Encoding: 9676 9676 144
Width: 1212
GlyphClass: 2
Flags: W
AnchorPoint: "Anchor-4" 604 0 basechar 0
AnchorPoint: "Anchor-3" 205 1188 basechar 0
AnchorPoint: "Anchor-2" 942 1188 basechar 0
AnchorPoint: "Anchor-1" 604 1188 basechar 0
LayerCount: 2
Fore
SplineSet
981 856 m 0,0,1
 981 807 981 807 932 807 c 0,2,3
 881 807 881 807 881 856 c 0,4,5
 881 907 881 907 932 907 c 0,6,7
 981 907 981 907 981 856 c 0,0,1
831 954 m 0,8,9
 831 905 831 905 784 905 c 0,10,11
 731 905 731 905 731 954 c 0,12,13
 731 1005 731 1005 784 1006 c 0,14,15
 831 1005 831 1005 831 954 c 0,8,9
1079 709 m 0,16,17
 1079 658 1079 658 1028 657 c 0,18,19
 979 657 979 657 979 709 c 0,20,21
 979 758 979 758 1030 758 c 0,22,23
 1079 758 1079 758 1079 709 c 0,16,17
1114 535 m 128,-1,25
 1114 486 1114 486 1067 485 c 0,26,27
 1016 485 1016 485 1016 535 c 0,28,29
 1016 584 1016 584 1067 584 c 0,30,24
 1114 584 1114 584 1114 535 c 128,-1,25
657 991 m 0,31,32
 657 940 657 940 608 940 c 0,33,34
 557 940 557 940 557 991 c 0,35,36
 557 1040 557 1040 608 1040 c 0,37,38
 657 1040 657 1040 657 991 c 0,31,32
485 954 m 0,39,40
 485 905 485 905 434 905 c 0,41,42
 385 905 385 905 385 954 c 0,43,44
 385 1005 385 1005 434 1006 c 0,45,46
 485 1005 485 1005 485 954 c 0,39,40
1079 360 m 0,47,48
 1079 311 1079 311 1028 311 c 0,49,50
 979 311 979 311 979 360 c 0,51,52
 979 411 979 411 1028 412 c 0,53,54
 1079 411 1079 411 1079 360 c 0,47,48
338 856 m 0,55,56
 338 807 338 807 287 807 c 0,57,58
 238 807 238 807 238 854 c 0,59,60
 238 907 238 907 287 907 c 0,61,62
 338 907 338 907 338 856 c 0,55,56
981 211 m 0,63,64
 981 162 981 162 932 162 c 0,65,66
 881 162 881 162 881 211 c 0,67,68
 881 262 881 262 932 262 c 0,69,70
 981 262 981 262 981 211 c 0,63,64
831 113 m 0,71,72
 831 66 831 66 784 66 c 0,73,74
 731 66 731 66 731 113 c 0,75,76
 731 164 731 164 784 164 c 0,77,78
 831 164 831 164 831 113 c 0,71,72
238 709 m 0,79,80
 238 658 238 658 190 657 c 0,81,82
 137 657 137 657 137 709 c 0,83,84
 137 758 137 758 188 758 c 0,85,86
 238 758 238 758 238 709 c 0,79,80
203 535 m 128,-1,88
 203 486 203 486 154 485 c 0,89,90
 103 485 103 485 102 535 c 0,91,92
 102 584 102 584 154 584 c 0,93,87
 203 584 203 584 203 535 c 128,-1,88
657 80 m 0,94,95
 657 29 657 29 608 29 c 0,96,97
 557 29 557 29 557 80 c 0,98,99
 557 129 557 129 608 129 c 0,100,101
 657 129 657 129 657 80 c 0,94,95
238 360 m 0,102,103
 238 311 238 311 188 311 c 0,104,105
 137 311 137 311 137 360 c 0,106,107
 137 411 137 411 188 412 c 0,108,109
 238 411 238 411 238 360 c 0,102,103
485 117 m 0,110,111
 485 66 485 66 434 66 c 0,112,113
 385 66 385 66 385 113 c 0,114,115
 385 164 385 164 434 164 c 0,116,117
 485 164 485 164 485 117 c 0,110,111
338 211 m 0,118,119
 338 162 338 162 287 162 c 0,120,121
 238 162 238 162 238 211 c 0,122,123
 238 262 238 262 287 262 c 0,124,125
 338 262 338 262 338 211 c 0,118,119
EndSplineSet
EndChar

StartChar: uniFB1D
Encoding: 64285 64285 145
Width: 1024
GlyphClass: 2
Flags: W
LayerCount: 2
Fore
SplineSet
412 246 m 1,0,-1
 657 614 l 2,1,2
 661 618 661 618 662 621 c 2,3,-1
 920 1008 l 1,4,5
 938 1026 938 1026 942 1055 c 0,6,7
 946 1086 946 1086 926 1114 c 0,8,9
 903 1147 903 1147 868 1149 c 0,10,11
 837 1151 837 1151 817 1137 c 1,12,-1
 66 836 l 2,13,14
 17 818 17 818 13.5 770.5 c 128,-1,15
 10 723 10 723 43 694 c 128,-1,16
 76 665 76 665 127 684 c 2,17,-1
 647 893 l 1,18,-1
 543 733 l 1,19,-1
 178 606 l 2,20,21
 129 588 129 588 123 543 c 0,22,23
 117 496 117 496 150 467 c 0,24,25
 185 436 185 436 231 451 c 2,26,-1
 389 506 l 1,27,-1
 145 139 l 1,28,29
 122 121 122 121 123 90 c 0,30,31
 121 55 121 55 143.5 28.5 c 128,-1,32
 166 2 166 2 186 0 c 0,33,34
 219 -8 219 -8 250 12 c 1,35,-1
 889 252 l 1,36,37
 938 266 938 266 942 313 c 0,38,39
 944 362 944 362 913 391 c 0,40,41
 878 420 878 420 831 403 c 2,42,-1
 412 246 l 1,0,-1
518 -59 m 0,43,44
 543 -59 543 -59 573 -82 c 0,45,46
 602 -105 602 -105 602 -143 c 0,47,48
 602 -180 602 -180 578.5 -203.5 c 128,-1,49
 555 -227 555 -227 518 -227 c 128,-1,50
 481 -227 481 -227 457 -203 c 0,51,52
 432 -178 432 -178 432 -143 c 0,53,54
 432 -116 432 -116 455 -86 c 0,55,56
 475 -59 475 -59 518 -59 c 0,43,44
EndSplineSet
EndChar

StartChar: uniFB1E
Encoding: 64286 64286 146
Width: 0
GlyphClass: 4
Flags: W
AnchorPoint: "Anchor-8" 328 0 basemark 0
AnchorPoint: "Anchor-7" -328 0 basemark 0
AnchorPoint: "Anchor-1" 0 1249 mark 0
LayerCount: 2
Fore
SplineSet
297 1509 m 1,0,1
 283 1384 283 1384 205 1319 c 0,2,3
 123 1251 123 1251 -1 1251 c 128,-1,4
 -125 1251 -125 1251 -205 1319 c 0,5,6
 -281 1382 -281 1382 -295 1509 c 1,7,-1
 -172 1509 l 1,8,9
 -145 1374 -145 1374 0 1374 c 0,10,11
 152 1374 152 1374 172 1509 c 1,12,-1
 297 1509 l 1,0,1
EndSplineSet
EndChar

StartChar: doubleyodpatahhebrew
Encoding: 64287 64287 147
Width: 1499
GlyphClass: 2
Flags: W
AnchorPoint: "Anchor-9" -53 0 basechar 0
LayerCount: 2
Fore
SplineSet
530 -276 m 1,0,-1
 530 -172 l 1,1,-1
 1028 -172 l 1,2,-1
 1028 -276 l 1,3,-1
 530 -276 l 1,0,-1
412 246 m 1,4,-1
 657 614 l 2,5,6
 661 618 661 618 662 621 c 2,7,-1
 920 1008 l 1,8,9
 938 1026 938 1026 942 1055 c 0,10,11
 946 1086 946 1086 926 1114 c 0,12,13
 903 1147 903 1147 868 1149 c 0,14,15
 837 1151 837 1151 817 1137 c 1,16,-1
 66 836 l 2,17,18
 17 818 17 818 13.5 770.5 c 128,-1,19
 10 723 10 723 43 694 c 128,-1,20
 76 665 76 665 127 684 c 2,21,-1
 647 893 l 1,22,-1
 543 733 l 1,23,-1
 178 606 l 2,24,25
 129 588 129 588 123 543 c 0,26,27
 117 496 117 496 150 467 c 0,28,29
 185 436 185 436 231 451 c 2,30,-1
 389 506 l 1,31,-1
 145 139 l 1,32,33
 122 121 122 121 123 90 c 0,34,35
 121 55 121 55 143.5 28.5 c 128,-1,36
 166 2 166 2 186 0 c 0,37,38
 219 -8 219 -8 250 12 c 1,39,-1
 889 252 l 1,40,41
 938 266 938 266 942 313 c 0,42,43
 944 362 944 362 913 391 c 0,44,45
 878 420 878 420 831 403 c 2,46,-1
 412 246 l 1,4,-1
918 246 m 1,47,-1
 1163 614 l 2,48,49
 1167 618 1167 618 1167 621 c 2,50,-1
 1425 1008 l 1,51,52
 1445 1028 1445 1028 1448 1055 c 0,53,54
 1452 1086 1452 1086 1432 1114 c 0,55,56
 1409 1147 1409 1147 1374 1149 c 0,57,58
 1343 1151 1343 1151 1323 1137 c 1,59,-1
 571 836 l 2,60,61
 522 818 522 818 518 770 c 0,62,63
 516 725 516 725 551 694 c 0,64,65
 584 665 584 665 633 684 c 2,66,-1
 1153 893 l 1,67,-1
 1049 733 l 1,68,-1
 684 606 l 2,69,70
 635 588 635 588 629 543 c 0,71,72
 623 496 623 496 655 467 c 0,73,74
 690 436 690 436 737 451 c 2,75,-1
 897 506 l 1,76,-1
 651 139 l 1,77,78
 628 121 628 121 629 90 c 0,79,80
 627 55 627 55 649.5 28.5 c 128,-1,81
 672 2 672 2 692 0 c 0,82,83
 725 -8 725 -8 756 12 c 1,84,-1
 1395 252 l 2,85,86
 1446 268 1446 268 1450 313 c 0,87,88
 1452 360 1452 360 1419 391 c 0,89,90
 1384 420 1384 420 1337 403 c 2,91,-1
 918 246 l 1,47,-1
EndSplineSet
Ligature2: "'ccmp' Glyph Composition/Decomposition in Hebrew lookup 2 subtable" yodyodhebrew patahhebrew
EndChar

StartChar: uniFB20
Encoding: 64288 64288 148
Width: 1060
GlyphClass: 2
Flags: W
AnchorPoint: "Anchor-4" 541 8 basechar 0
AnchorPoint: "Anchor-3" 147 1176 basechar 0
AnchorPoint: "Anchor-2" 963 1163 basechar 0
AnchorPoint: "Anchor-1" 516 1184 basechar 0
LayerCount: 2
Fore
SplineSet
16 557 m 0,0,1
 16 422 16 422 160 317 c 0,2,3
 299 215 299 215 528 215 c 128,-1,4
 757 215 757 215 897 317 c 0,5,6
 1040 421 1040 421 1040 557 c 0,7,8
 1040 694 1040 694 897 799 c 0,9,10
 758 901 758 901 528 901 c 0,11,12
 301 901 301 901 160 799 c 0,13,14
 16 694 16 694 16 557 c 0,0,1
180 557 m 128,-1,16
 180 639 180 639 286.5 688 c 128,-1,17
 393 737 393 737 528 737 c 128,-1,18
 663 737 663 737 770 688 c 128,-1,19
 877 639 877 639 877 557 c 128,-1,20
 877 475 877 475 768 426 c 0,21,22
 666 379 666 379 528 379 c 0,23,24
 393 379 393 379 289 426 c 0,25,15
 180 475 180 475 180 557 c 128,-1,16
EndSplineSet
Position2: "Single Positioning lookup 21 subtable" dx=205 dy=0 dh=205 dv=0
EndChar

StartChar: uniFB21
Encoding: 64289 64289 149
Width: 1060
GlyphClass: 2
Flags: W
AnchorPoint: "Anchor-4" 573 12 basechar 0
AnchorPoint: "Anchor-3" 115 1176 basechar 0
AnchorPoint: "Anchor-2" 1008 1184 basechar 0
AnchorPoint: "Anchor-1" 602 1323 basechar 0
LayerCount: 2
Fore
SplineSet
401 621 m 1,0,-1
 489 489 l 1,1,-1
 272 379 l 1,2,-1
 401 621 l 1,0,-1
489 782 m 1,3,-1
 674 1128 l 2,4,5
 699 1173 699 1173 672 1212 c 0,6,7
 647 1249 647 1249 600 1249 c 0,8,9
 557 1249 557 1249 530 1206 c 2,10,-1
 385 936 l 1,11,-1
 272 1106 l 2,12,13
 256 1135 256 1135 229 1141 c 0,14,15
 196 1147 196 1147 180 1141 c 128,-1,16
 164 1135 164 1135 141 1112 c 0,17,18
 123 1094 123 1094 123 1069 c 0,19,20
 123 1040 123 1040 137 1016 c 2,21,-1
 299 774 l 1,22,-1
 6 227 l 2,23,24
 -21 182 -21 182 23 135 c 0,25,26
 66 92 66 92 115 115 c 2,27,-1
 582 350 l 1,28,-1
 793 37 l 2,29,30
 809 8 809 8 836 2 c 0,31,32
 869 -4 869 -4 885 2 c 0,33,34
 903 8 903 8 924 31 c 0,35,36
 942 49 942 49 942 74 c 0,37,38
 942 103 942 103 928 127 c 2,39,-1
 729 424 l 1,40,-1
 1020 571 l 2,41,42
 1067 591 1067 591 1067 641 c 0,43,44
 1067 688 1067 688 1030 715 c 128,-1,45
 993 742 993 742 946 719 c 2,46,-1
 637 561 l 1,47,-1
 489 782 l 1,3,-1
EndSplineSet
EndChar

StartChar: uniFB22
Encoding: 64290 64290 150
Width: 1060
GlyphClass: 2
Flags: W
AnchorPoint: "Anchor-4" 575 12 basechar 0
AnchorPoint: "Anchor-3" 172 1188 basechar 0
AnchorPoint: "Anchor-2" 1020 1171 basechar 0
AnchorPoint: "Anchor-1" 573 1188 basechar 0
LayerCount: 2
Fore
SplineSet
942 98 m 2,0,-1
 942 1049 l 2,1,2
 944 1076 944 1076 938 1094 c 0,3,4
 928 1123 928 1123 905 1135 c 0,5,6
 868 1160 868 1160 825 1139 c 0,7,8
 813 1135 813 1135 801 1122 c 2,9,-1
 166 647 l 2,10,11
 152 639 152 639 143 629 c 0,12,13
 120 604 120 604 121 573 c 0,14,15
 121 542 121 542 143 518 c 0,16,17
 151 508 151 508 166 500 c 2,18,-1
 801 25 l 2,19,20
 817 9 817 9 825 6 c 0,21,22
 866 -14 866 -14 905 12 c 0,23,24
 928 24 928 24 938 51 c 0,25,26
 944 71 944 71 942 98 c 2,0,-1
778 246 m 1,27,-1
 342 573 l 1,28,-1
 778 901 l 1,29,-1
 778 246 l 1,27,-1
EndSplineSet
EndChar

StartChar: uniFB23
Encoding: 64291 64291 151
Width: 1060
GlyphClass: 2
Flags: W
AnchorPoint: "Anchor-4" 618 0 basechar 0
AnchorPoint: "Anchor-3" 287 1188 basechar 0
AnchorPoint: "Anchor-2" 1014 1180 basechar 0
AnchorPoint: "Anchor-1" 618 1188 basechar 0
LayerCount: 2
Fore
SplineSet
778 948 m 1,0,-1
 778 874 l 1,1,-1
 176 649 l 1,2,3
 127 635 127 635 123 588 c 0,4,5
 121 539 121 539 152 510 c 0,6,7
 187 481 187 481 233 498 c 2,8,-1
 778 702 l 1,9,-1
 778 629 l 1,10,-1
 176 403 l 1,11,12
 127 389 127 389 123 342 c 0,13,14
 121 293 121 293 152 264 c 0,15,16
 187 235 187 235 233 252 c 2,17,-1
 778 457 l 1,18,-1
 778 82 l 2,19,20
 778 29 778 29 819 8.5 c 128,-1,21
 860 -12 860 -12 901 8.5 c 128,-1,22
 942 29 942 29 942 82 c 2,23,-1
 942 561 l 1,24,-1
 942 582 l 1,25,-1
 942 807 l 1,26,-1
 942 827 l 1,27,-1
 942 1053 l 2,28,29
 942 1069 942 1069 940 1077 c 0,30,31
 938 1116 938 1116 907 1133 c 1,32,33
 880 1153 880 1153 850 1147 c 0,34,35
 838 1147 838 1147 817 1135 c 2,36,-1
 176 895 l 1,37,38
 127 881 127 881 123 834 c 0,39,40
 121 785 121 785 152 756 c 0,41,42
 187 725 187 725 233 743 c 2,43,-1
 778 948 l 1,0,-1
EndSplineSet
EndChar

StartChar: uniFB24
Encoding: 64292 64292 152
Width: 1060
GlyphClass: 2
Flags: W
AnchorPoint: "Anchor-4" 569 0 basechar 0
AnchorPoint: "Anchor-3" 205 1188 basechar 0
AnchorPoint: "Anchor-2" 999 1188 basechar 0
AnchorPoint: "Anchor-1" 467 1188 basechar 0
LayerCount: 2
Fore
SplineSet
655 768 m 1,0,-1
 244 926 l 2,1,2
 199 944 199 944 162 913 c 0,3,4
 127 882 127 882 131 838 c 0,5,6
 133 793 133 793 184 774 c 2,7,-1
 782 545 l 1,8,9
 772 473 772 473 745 408 c 0,10,11
 722 349 722 349 680 295 c 0,12,13
 637 238 637 238 578 213 c 0,14,15
 515 184 515 184 428 176 c 0,16,17
 348 168 348 168 229 193 c 0,18,19
 200 199 200 199 176 186 c 0,20,21
 149 174 149 174 141 152 c 0,22,23
 131 129 131 129 131 104 c 0,24,25
 131 81 131 81 150 59 c 0,26,27
 166 39 166 39 199 33 c 0,28,29
 420 -12 420 -12 582 35 c 0,30,31
 740 82 740 82 809 195 c 0,32,33
 883 314 883 314 922 463 c 0,34,35
 961 606 961 606 954 780 c 0,36,37
 950 891 950 891 950 1100 c 0,38,39
 950 1151 950 1151 907 1169 c 128,-1,40
 864 1187 864 1187 825 1165 c 0,41,42
 788 1142 788 1142 788 1092 c 0,43,44
 788 1086 788 1086 789.5 1070.5 c 128,-1,45
 791 1055 791 1055 792 1030.5 c 128,-1,46
 793 1006 793 1006 794 983.5 c 128,-1,47
 795 961 795 961 797 915.5 c 128,-1,48
 799 870 799 870 799 852 c 1,49,-1
 610 1141 l 2,50,51
 585 1182 585 1182 537 1178 c 0,52,53
 488 1176 488 1176 469 1135 c 0,54,55
 451 1096 451 1096 471 1051 c 1,56,-1
 655 768 l 1,0,-1
EndSplineSet
Position2: "Single Positioning lookup 21 subtable" dx=205 dy=0 dh=205 dv=0
EndChar

StartChar: uniFB25
Encoding: 64293 64293 153
Width: 1060
GlyphClass: 2
Flags: W
AnchorPoint: "Anchor-4" 618 0 basechar 0
AnchorPoint: "Anchor-3" 217 1184 basechar 0
AnchorPoint: "Anchor-2" 1032 1188 basechar 0
AnchorPoint: "Anchor-1" 610 1188 basechar 0
LayerCount: 2
Fore
SplineSet
412 246 m 1,0,-1
 928 1020 l 2,1,2
 942 1045 942 1045 942 1073 c 0,3,4
 942 1098 942 1098 924 1116 c 0,5,6
 904 1139 904 1139 885 1145 c 0,7,8
 862 1155 862 1155 836 1145 c 0,9,10
 807 1135 807 1135 793 1110 c 2,11,-1
 145 139 l 1,12,13
 122 121 122 121 123 90 c 0,14,15
 121 55 121 55 143.5 28.5 c 128,-1,16
 166 2 166 2 186 0 c 0,17,18
 219 -8 219 -8 250 12 c 1,19,-1
 889 252 l 1,20,21
 938 266 938 266 942 313 c 0,22,23
 944 362 944 362 913 391 c 0,24,25
 878 420 878 420 831 403 c 2,26,-1
 412 246 l 1,0,-1
EndSplineSet
Position2: "Single Positioning lookup 21 subtable" dx=205 dy=0 dh=205 dv=0
EndChar

StartChar: uniFB26
Encoding: 64294 64294 154
Width: 1060
GlyphClass: 2
Flags: W
AnchorPoint: "Anchor-4" 623 4 basechar 0
AnchorPoint: "Anchor-3" 135 1176 basechar 0
AnchorPoint: "Anchor-2" 1024 1155 basechar 0
AnchorPoint: "Anchor-1" 618 1192 basechar 0
LayerCount: 2
Fore
SplineSet
780 1094 m 1,0,-1
 696 967 l 1,1,-1
 608 1096 l 1,2,3
 602 1114 602 1114 588 1126 c 0,4,5
 565 1149 565 1149 532 1149 c 128,-1,6
 499 1149 499 1149 477 1126 c 0,7,8
 463 1116 463 1116 457 1096 c 1,9,-1
 369 967 l 1,10,-1
 272 1110 l 2,11,12
 258 1135 258 1135 229 1145 c 0,13,14
 202 1155 202 1155 180 1145 c 0,15,16
 164 1139 164 1139 141 1116 c 0,17,18
 123 1098 123 1098 123 1073 c 0,19,20
 123 1044 123 1044 137 1020 c 2,21,-1
 293 788 l 1,22,23
 299 770 299 770 313 758 c 0,24,25
 336 735 336 735 369 735 c 128,-1,26
 402 735 402 735 424 758 c 0,27,28
 440 770 440 770 446 788 c 1,29,-1
 532 920 l 1,30,-1
 618 788 l 1,31,32
 622 772 622 772 641 758 c 0,33,34
 664 735 664 735 696 735 c 0,35,36
 729 735 729 735 752 758 c 0,37,38
 766 768 766 768 772 788 c 1,39,-1
 829 872 l 1,40,41
 864 616 864 616 682 428 c 0,42,43
 494 233 494 233 186 162 c 0,44,45
 155 156 155 156 139 133 c 128,-1,46
 123 110 123 110 123 88 c 0,47,48
 123 63 123 63 133 41 c 0,49,50
 143 18 143 18 168 6 c 0,51,52
 188 -4 188 -4 223 2 c 0,53,54
 442 53 442 53 614 162 c 0,55,56
 788 271 788 271 883 412 c 0,57,58
 975 551 975 551 997 727 c 0,59,60
 1017 897 1017 897 940 1087 c 0,61,62
 940 1089 940 1089 937 1096.5 c 128,-1,63
 934 1104 934 1104 932 1106 c 0,64,65
 909 1149 909 1149 860 1149 c 0,66,67
 831 1149 831 1149 815 1135 c 0,68,69
 788 1119 788 1119 780 1094 c 1,0,-1
EndSplineSet
EndChar

StartChar: uniFB27
Encoding: 64295 64295 155
Width: 1060
GlyphClass: 2
Flags: W
AnchorPoint: "Anchor-4" 864 0 basechar 0
AnchorPoint: "Anchor-3" 164 1188 basechar 0
AnchorPoint: "Anchor-2" 1040 1163 basechar 0
AnchorPoint: "Anchor-1" 573 1188 basechar 0
LayerCount: 2
Fore
SplineSet
451 655 m 1,0,-1
 778 901 l 1,1,-1
 778 655 l 1,2,-1
 451 655 l 1,0,-1
217 492 m 1,3,-1
 778 492 l 1,4,-1
 778 82 l 2,5,6
 778 31 778 31 819 10.5 c 128,-1,7
 860 -10 860 -10 901 10.5 c 128,-1,8
 942 31 942 31 942 82 c 2,9,-1
 942 1049 l 2,10,11
 944 1076 944 1076 938 1094 c 0,12,13
 928 1123 928 1123 905 1135 c 0,14,15
 868 1160 868 1160 825 1139 c 0,16,17
 813 1135 813 1135 801 1122 c 2,18,-1
 166 647 l 2,19,20
 146 637 146 637 137 621 c 0,21,22
 106 578 106 578 133 532 c 0,23,24
 145 509 145 509 168 500 c 0,25,26
 194 486 194 486 217 492 c 1,3,-1
EndSplineSet
EndChar

StartChar: uniFB28
Encoding: 64296 64296 156
Width: 1060
GlyphClass: 2
Flags: W
AnchorPoint: "Anchor-4" 496 8 basechar 0
AnchorPoint: "Anchor-3" 70 1180 basechar 0
AnchorPoint: "Anchor-2" 991 1188 basechar 0
AnchorPoint: "Anchor-1" 500 1151 basechar 0
LayerCount: 2
Fore
SplineSet
532 426 m 1,0,-1
 793 37 l 2,1,2
 809 8 809 8 836 2 c 0,3,4
 869 -4 869 -4 885 2 c 0,5,6
 903 8 903 8 924 31 c 0,7,8
 942 49 942 49 942 74 c 0,9,10
 942 103 942 103 928 127 c 2,11,-1
 631 573 l 1,12,-1
 928 1020 l 2,13,14
 957 1065 957 1065 934 1104 c 0,15,16
 909 1147 909 1147 866 1149 c 0,17,18
 827 1151 827 1151 793 1110 c 1,19,-1
 532 721 l 1,20,-1
 272 1110 l 2,21,22
 256 1139 256 1139 229 1145 c 0,23,24
 196 1151 196 1151 180 1145 c 128,-1,25
 164 1139 164 1139 141 1116 c 0,26,27
 123 1098 123 1098 123 1073 c 0,28,29
 123 1044 123 1044 137 1020 c 2,30,-1
 434 573 l 1,31,-1
 137 127 l 2,32,33
 108 82 108 82 131 43 c 0,34,35
 156 2 156 2 199 0 c 0,36,37
 238 -2 238 -2 272 37 c 1,38,-1
 532 426 l 1,0,-1
EndSplineSet
EndChar

StartChar: uniFB29
Encoding: 64297 64297 157
Width: 1191
GlyphClass: 2
Flags: W
LayerCount: 2
Fore
SplineSet
1081 258 m 1,0,-1
 115 258 l 1,1,-1
 115 426 l 1,2,-1
 512 426 l 1,3,-1
 512 825 l 1,4,-1
 682 825 l 1,5,-1
 682 426 l 1,6,-1
 1081 426 l 1,7,-1
 1081 258 l 1,0,-1
EndSplineSet
EndChar

StartChar: shinshindothebrew
Encoding: 64298 64298 158
Width: 1060
GlyphClass: 2
Flags: W
AnchorPoint: "Anchor-4" 528 0 basechar 0
AnchorPoint: "Anchor-3" 205 1188 basechar 0
AnchorPoint: "Anchor-2" 967 1176 basechar 0
AnchorPoint: "Anchor-1" 537 1184 basechar 0
AnchorPoint: "Anchor-0" 541 731 basechar 0
LayerCount: 2
Fore
SplineSet
682 393 m 1,0,-1
 614 592 l 1,1,2
 610 619 610 619 598 631 c 0,3,4
 575 660 575 660 532 659 c 0,5,6
 491 659 491 659 469 631 c 0,7,8
 455 617 455 617 451 592 c 1,9,-1
 385 393 l 1,10,-1
 285 842 l 2,11,12
 275 891 275 891 227 903 c 0,13,14
 182 915 182 915 147 885 c 0,15,16
 112 856 112 856 125 805 c 2,17,-1
 287 82 l 1,18,19
 287 53 287 53 303 35 c 0,20,21
 326 4 326 4 367 4 c 0,22,23
 406 4 406 4 430 31 c 0,24,25
 448 49 448 49 451 70 c 2,26,-1
 532 317 l 1,27,-1
 614 70 l 1,28,29
 616 50 616 50 635 31 c 0,30,31
 660 4 660 4 698 4 c 0,32,33
 741 4 741 4 762 35 c 0,34,35
 778 53 778 53 778 82 c 1,36,-1
 940 805 l 2,37,38
 946 844 946 844 930 868 c 0,39,40
 912 897 912 897 879 903 c 128,-1,41
 846 909 846 909 817 895 c 0,42,43
 786 881 786 881 780 842 c 2,44,-1
 682 393 l 1,0,-1
881 1174 m 0,45,46
 881 1209 881 1209 903.5 1231 c 128,-1,47
 926 1253 926 1253 963 1253 c 128,-1,48
 1000 1253 1000 1253 1022 1230.5 c 128,-1,49
 1044 1208 1044 1208 1044 1174 c 0,50,51
 1044 1135 1044 1135 1022 1114 c 0,52,53
 997 1089 997 1089 963 1090 c 0,54,55
 926 1090 926 1090 903 1114 c 0,56,57
 881 1135 881 1135 881 1174 c 0,45,46
EndSplineSet
Ligature2: "'ccmp' Glyph Composition/Decomposition in Hebrew lookup 2 subtable" shinhebrew shindothebrew
EndChar

StartChar: shinsindothebrew
Encoding: 64299 64299 159
Width: 1060
GlyphClass: 2
Flags: W
AnchorPoint: "Anchor-4" 528 -4 basechar 0
AnchorPoint: "Anchor-3" 70 1188 basechar 0
AnchorPoint: "Anchor-2" 1032 1196 basechar 0
AnchorPoint: "Anchor-1" 717 1188 basechar 0
AnchorPoint: "Anchor-0" 520 723 basechar 0
LayerCount: 2
Fore
SplineSet
668 393 m 1,0,-1
 602 592 l 1,1,2
 598 619 598 619 586 631 c 0,3,4
 563 660 563 660 520 659 c 0,5,6
 479 659 479 659 457 631 c 0,7,8
 441 615 441 615 438 592 c 1,9,-1
 373 393 l 1,10,-1
 272 842 l 2,11,12
 262 891 262 891 216 903 c 128,-1,13
 170 915 170 915 135 885 c 0,14,15
 100 856 100 856 113 805 c 2,16,-1
 274 82 l 1,17,18
 274 55 274 55 291 35 c 0,19,20
 314 4 314 4 354 4 c 0,21,22
 395 4 395 4 418 31 c 0,23,24
 434 47 434 47 438 70 c 2,25,-1
 520 317 l 1,26,-1
 602 70 l 1,27,28
 604 50 604 50 623 31 c 0,29,30
 648 4 648 4 686 4 c 0,31,32
 729 4 729 4 750 35 c 0,33,34
 768 58 768 58 768 82 c 1,35,-1
 928 805 l 2,36,37
 934 840 934 840 915 868 c 0,38,39
 897 897 897 897 866 903 c 128,-1,40
 835 909 835 909 807 895 c 0,41,42
 774 879 774 879 768 842 c 2,43,-1
 668 393 l 1,0,-1
0 1198 m 0,44,45
 0 1229 0 1229 24.5 1253.5 c 128,-1,46
 49 1278 49 1278 82 1278 c 128,-1,47
 115 1278 115 1278 139.5 1253.5 c 128,-1,48
 164 1229 164 1229 164 1198 c 0,49,50
 164 1163 164 1163 139.5 1138.5 c 128,-1,51
 115 1114 115 1114 82 1114 c 128,-1,52
 49 1114 49 1114 24.5 1138.5 c 128,-1,53
 0 1163 0 1163 0 1198 c 0,44,45
EndSplineSet
Ligature2: "'ccmp' Glyph Composition/Decomposition in Hebrew lookup 2 subtable" shinhebrew sindothebrew
EndChar

StartChar: shindageshshindothebrew
Encoding: 64300 64300 160
Width: 1060
GlyphClass: 2
Flags: W
AnchorPoint: "Anchor-4" 532 -4 basechar 0
AnchorPoint: "Anchor-3" 90 1180 basechar 0
AnchorPoint: "Anchor-2" 983 1180 basechar 0
AnchorPoint: "Anchor-1" 541 1188 basechar 0
AnchorPoint: "Anchor-0" 541 731 basechar 0
LayerCount: 2
Fore
SplineSet
459 801 m 0,0,1
 459 834 459 834 481 856 c 0,2,3
 506 881 506 881 541 881 c 0,4,5
 574 881 574 881 598.5 856 c 128,-1,6
 623 831 623 831 623 801 c 0,7,8
 623 766 623 766 598 741 c 128,-1,9
 573 716 573 716 541 717 c 0,10,11
 504 717 504 717 481 741 c 0,12,13
 459 762 459 762 459 801 c 0,0,1
682 410 m 1,14,-1
 614 608 l 1,15,16
 610 633 610 633 598 645 c 0,17,18
 573 676 573 676 532 676 c 0,19,20
 493 676 493 676 469 645 c 0,21,22
 455 631 455 631 451 608 c 2,23,-1
 385 410 l 1,24,-1
 285 858 l 2,25,26
 275 907 275 907 227 920 c 0,27,28
 182 932 182 932 147 901 c 0,29,30
 112 872 112 872 125 821 c 2,31,-1
 287 96 l 1,32,33
 287 69 287 69 303 51 c 0,34,35
 326 20 326 20 367 20 c 0,36,37
 406 20 406 20 430 47 c 0,38,39
 448 65 448 65 451 86 c 2,40,-1
 532 334 l 1,41,-1
 614 86 l 1,42,43
 616 66 616 66 635 47 c 0,44,45
 660 20 660 20 698 20 c 0,46,47
 741 20 741 20 762 51 c 0,48,49
 778 69 778 69 778 96 c 1,50,-1
 940 821 l 2,51,52
 946 862 946 862 930 887 c 0,53,54
 912 916 912 916 879 922 c 0,55,56
 850 928 850 928 817 911 c 0,57,58
 786 897 786 897 780 858 c 2,59,-1
 682 410 l 1,14,-1
903 1186 m 0,60,61
 903 1217 903 1217 927.5 1241.5 c 128,-1,62
 952 1266 952 1266 985 1266 c 128,-1,63
 1018 1266 1018 1266 1042.5 1241.5 c 128,-1,64
 1067 1217 1067 1217 1067 1186 c 0,65,66
 1067 1151 1067 1151 1042 1126 c 128,-1,67
 1017 1101 1017 1101 984.5 1101.5 c 128,-1,68
 952 1102 952 1102 928 1126 c 0,69,70
 903 1151 903 1151 903 1186 c 0,60,61
EndSplineSet
Ligature2: "'ccmp' Glyph Composition/Decomposition in Hebrew lookup 2 subtable" shinhebrew dageshhebrew shindothebrew
Ligature2: "'ccmp' Glyph Composition/Decomposition in Hebrew lookup 2 subtable" shinhebrew shindothebrew dageshhebrew
EndChar

StartChar: shindageshsindothebrew
Encoding: 64301 64301 161
Width: 1060
GlyphClass: 2
Flags: W
AnchorPoint: "Anchor-4" 541 -12 basechar 0
AnchorPoint: "Anchor-3" 82 1184 basechar 0
AnchorPoint: "Anchor-2" 1008 1184 basechar 0
AnchorPoint: "Anchor-1" 524 1184 basechar 0
LayerCount: 2
Fore
SplineSet
451 784 m 128,-1,1
 451 821 451 821 473.5 842.5 c 128,-1,2
 496 864 496 864 532 864 c 0,3,4
 571 864 571 864 592.5 841.5 c 128,-1,5
 614 819 614 819 614 784 c 0,6,7
 614 747 614 747 592 725 c 0,8,9
 567 700 567 700 532 700 c 128,-1,10
 497 700 497 700 473 725 c 0,11,0
 451 747 451 747 451 784 c 128,-1,1
682 389 m 1,12,-1
 614 588 l 1,13,14
 610 615 610 615 598 627 c 0,15,16
 575 656 575 656 532 655 c 0,17,18
 491 655 491 655 469 627 c 0,19,20
 455 613 455 613 451 588 c 1,21,-1
 385 389 l 1,22,-1
 285 838 l 2,23,24
 275 887 275 887 227 899 c 0,25,26
 182 911 182 911 147 881 c 0,27,28
 112 852 112 852 125 801 c 2,29,-1
 287 78 l 1,30,31
 287 49 287 49 303 31 c 0,32,33
 326 0 326 0 367 0 c 0,34,35
 406 0 406 0 430 27 c 0,36,37
 448 45 448 45 451 66 c 2,38,-1
 532 313 l 1,39,-1
 614 66 l 1,40,41
 616 46 616 46 635 27 c 0,42,43
 660 0 660 0 698 0 c 0,44,45
 741 0 741 0 762 31 c 0,46,47
 778 49 778 49 778 78 c 1,48,-1
 940 801 l 2,49,50
 946 840 946 840 930 864 c 0,51,52
 912 893 912 893 879 899 c 128,-1,53
 846 905 846 905 817 891 c 0,54,55
 786 877 786 877 780 838 c 2,56,-1
 682 389 l 1,12,-1
-4 1194 m 0,57,58
 -4 1227 -4 1227 18 1249 c 0,59,60
 43 1274 43 1274 78 1274 c 0,61,62
 111 1274 111 1274 135.5 1249.5 c 128,-1,63
 160 1225 160 1225 160 1194 c 0,64,65
 160 1159 160 1159 135.5 1134.5 c 128,-1,66
 111 1110 111 1110 78 1110 c 0,67,68
 43 1110 43 1110 18 1135 c 0,69,70
 -4 1157 -4 1157 -4 1194 c 0,57,58
EndSplineSet
Ligature2: "'ccmp' Glyph Composition/Decomposition in Hebrew lookup 2 subtable" shinhebrew dageshhebrew sindothebrew
Ligature2: "'ccmp' Glyph Composition/Decomposition in Hebrew lookup 2 subtable" shinhebrew sindothebrew dageshhebrew
EndChar

StartChar: uniFB2E
Encoding: 64302 64302 162
Width: 1148
GlyphClass: 2
Flags: W
LayerCount: 2
Fore
SplineSet
444 621 m 1,0,-1
 532 489 l 1,1,-1
 315 379 l 1,2,-1
 444 621 l 1,0,-1
532 782 m 1,3,-1
 717 1128 l 2,4,5
 742 1173 742 1173 715 1212 c 0,6,7
 690 1249 690 1249 643 1249 c 0,8,9
 600 1249 600 1249 573 1206 c 2,10,-1
 428 936 l 1,11,-1
 315 1106 l 2,12,13
 299 1135 299 1135 272 1141 c 0,14,15
 239 1147 239 1147 223 1141 c 128,-1,16
 207 1135 207 1135 184 1112 c 0,17,18
 166 1094 166 1094 166 1069 c 0,19,20
 166 1040 166 1040 180 1016 c 2,21,-1
 342 774 l 1,22,-1
 49 227 l 2,23,24
 22 182 22 182 66 135 c 0,25,26
 109 92 109 92 158 115 c 2,27,-1
 625 350 l 1,28,-1
 836 37 l 2,29,30
 852 8 852 8 879 2 c 0,31,32
 912 -4 912 -4 928 2 c 0,33,34
 946 8 946 8 967 31 c 0,35,36
 985 49 985 49 985 74 c 0,37,38
 985 103 985 103 971 127 c 2,39,-1
 772 424 l 1,40,-1
 1063 571 l 2,41,42
 1110 591 1110 591 1110 641 c 0,43,44
 1110 688 1110 688 1073 714.5 c 128,-1,45
 1036 741 1036 741 989 719 c 2,46,-1
 680 561 l 1,47,-1
 532 782 l 1,3,-1
418 -315 m 1,48,-1
 418 -211 l 1,49,-1
 821 -211 l 1,50,-1
 821 -315 l 1,51,-1
 418 -315 l 1,48,-1
EndSplineSet
EndChar

StartChar: uniFB2F
Encoding: 64303 64303 163
Width: 1148
GlyphClass: 2
Flags: W
LayerCount: 2
Fore
SplineSet
444 621 m 1,0,-1
 532 489 l 1,1,-1
 315 379 l 1,2,-1
 444 621 l 1,0,-1
532 782 m 1,3,-1
 717 1128 l 2,4,5
 742 1173 742 1173 715 1212 c 0,6,7
 690 1249 690 1249 643 1249 c 0,8,9
 600 1249 600 1249 573 1206 c 2,10,-1
 428 936 l 1,11,-1
 315 1106 l 2,12,13
 299 1135 299 1135 272 1141 c 0,14,15
 239 1147 239 1147 223 1141 c 128,-1,16
 207 1135 207 1135 184 1112 c 0,17,18
 166 1094 166 1094 166 1069 c 0,19,20
 166 1040 166 1040 180 1016 c 2,21,-1
 342 774 l 1,22,-1
 49 227 l 2,23,24
 22 182 22 182 66 135 c 0,25,26
 109 92 109 92 158 115 c 2,27,-1
 625 350 l 1,28,-1
 836 37 l 2,29,30
 852 8 852 8 879 2 c 0,31,32
 912 -4 912 -4 928 2 c 0,33,34
 946 8 946 8 967 31 c 0,35,36
 985 49 985 49 985 74 c 0,37,38
 985 103 985 103 971 127 c 2,39,-1
 772 424 l 1,40,-1
 1063 571 l 2,41,42
 1110 591 1110 591 1110 641 c 0,43,44
 1110 688 1110 688 1073 714.5 c 128,-1,45
 1036 741 1036 741 989 719 c 2,46,-1
 680 561 l 1,47,-1
 532 782 l 1,3,-1
563 -430 m 1,48,-1
 563 -262 l 1,49,-1
 418 -262 l 1,50,-1
 418 -158 l 1,51,-1
 821 -158 l 1,52,-1
 821 -262 l 1,53,-1
 678 -262 l 1,54,-1
 678 -430 l 1,55,-1
 563 -430 l 1,48,-1
EndSplineSet
EndChar

StartChar: uniFB30
Encoding: 64304 64304 164
Width: 1148
GlyphClass: 2
Flags: W
AnchorPoint: "Anchor-4" 547 -10 basechar 0
AnchorPoint: "Anchor-3" 205 1188 basechar 0
AnchorPoint: "Anchor-2" 942 1184 basechar 0
AnchorPoint: "Anchor-1" 610 1303 basechar 0
LayerCount: 2
Fore
SplineSet
401 621 m 1,0,-1
 489 489 l 1,1,-1
 272 379 l 1,2,-1
 401 621 l 1,0,-1
489 782 m 1,3,-1
 674 1128 l 2,4,5
 699 1173 699 1173 672 1212 c 0,6,7
 647 1249 647 1249 600 1249 c 0,8,9
 557 1249 557 1249 530 1206 c 2,10,-1
 385 936 l 1,11,-1
 272 1106 l 2,12,13
 256 1135 256 1135 229 1141 c 0,14,15
 196 1147 196 1147 180 1141 c 128,-1,16
 164 1135 164 1135 141 1112 c 0,17,18
 123 1094 123 1094 123 1069 c 0,19,20
 123 1040 123 1040 137 1016 c 2,21,-1
 299 774 l 1,22,-1
 6 227 l 2,23,24
 -21 182 -21 182 23 135 c 0,25,26
 66 92 66 92 115 115 c 2,27,-1
 582 350 l 1,28,-1
 793 37 l 2,29,30
 809 8 809 8 836 2 c 0,31,32
 869 -4 869 -4 885 2 c 0,33,34
 903 8 903 8 924 31 c 0,35,36
 942 49 942 49 942 74 c 0,37,38
 942 103 942 103 928 127 c 2,39,-1
 729 424 l 1,40,-1
 1020 571 l 2,41,42
 1067 591 1067 591 1067 641 c 0,43,44
 1067 688 1067 688 1030 714.5 c 128,-1,45
 993 741 993 741 946 719 c 2,46,-1
 637 561 l 1,47,-1
 489 782 l 1,3,-1
463 135 m 0,48,49
 463 168 463 168 489 195 c 0,50,51
 514 220 514 220 547 219 c 0,52,53
 588 219 588 219 609.5 194.5 c 128,-1,54
 631 170 631 170 631 135 c 128,-1,55
 631 100 631 100 608 76 c 0,56,57
 588 51 588 51 547 51 c 0,58,59
 510 51 510 51 489 76 c 0,60,61
 465 102 465 102 463 135 c 0,48,49
EndSplineSet
Ligature2: "'ccmp' Glyph Composition/Decomposition in Hebrew lookup 3 subtable" alefhebrew dageshhebrew
Position2: "Single Positioning lookup 21 subtable" dx=205 dy=0 dh=205 dv=0
EndChar

StartChar: betdageshhebrew
Encoding: 64305 64305 165
Width: 1060
GlyphClass: 2
Flags: W
AnchorPoint: "Anchor-4" 573 0 basechar 0
AnchorPoint: "Anchor-3" 164 1188 basechar 0
AnchorPoint: "Anchor-2" 778 1188 basechar 0
AnchorPoint: "Anchor-1" 451 1188 basechar 0
LayerCount: 2
Fore
SplineSet
205 0 m 2,0,-1
 860 0 l 2,1,2
 897 0 897 0 920 23 c 128,-1,3
 943 46 943 46 942 82 c 2,4,-1
 942 313 l 2,5,6
 944 329 944 329 942 344 c 2,7,-1
 942 819 l 2,8,9
 942 858 942 858 919.5 879.5 c 128,-1,10
 897 901 897 901 860 901 c 2,11,-1
 217 901 l 1,12,13
 192 907 192 907 168 895 c 0,14,15
 148 887 148 887 133 858 c 0,16,17
 106 813 106 813 137 772 c 0,18,19
 145 756 145 756 166 745 c 2,20,-1
 778 287 l 1,21,-1
 778 164 l 1,22,-1
 205 164 l 2,23,24
 152 164 152 164 131.5 123 c 128,-1,25
 111 82 111 82 131.5 41 c 128,-1,26
 152 0 152 0 205 0 c 2,0,-1
451 737 m 1,27,-1
 778 737 l 1,28,-1
 778 492 l 1,29,-1
 451 737 l 1,27,-1
401 326 m 0,30,31
 401 359 401 359 426 383 c 0,32,33
 449 406 449 406 483 406 c 0,34,35
 520 406 520 406 543 383 c 128,-1,36
 566 360 566 360 565 326 c 0,37,38
 565 287 565 287 543 266 c 0,39,40
 518 241 518 241 483 242 c 0,41,42
 450 242 450 242 426 266 c 0,43,44
 401 291 401 291 401 326 c 0,30,31
EndSplineSet
Ligature2: "'ccmp' Glyph Composition/Decomposition in Hebrew lookup 3 subtable" bethebrew dageshhebrew
Position2: "Single Positioning lookup 21 subtable" dx=205 dy=0 dh=205 dv=0
EndChar

StartChar: gimeldageshhebrew
Encoding: 64306 64306 166
Width: 1060
GlyphClass: 2
Flags: W
AnchorPoint: "Anchor-4" 406 0 basechar 0
AnchorPoint: "Anchor-3" 164 1188 basechar 0
AnchorPoint: "Anchor-2" 532 1188 basechar 0
AnchorPoint: "Anchor-1" 348 1188 basechar 0
LayerCount: 2
Fore
SplineSet
817 1135 m 1,0,-1
 176 895 l 1,1,2
 127 881 127 881 123 834 c 0,3,4
 121 785 121 785 152 756 c 0,5,6
 187 725 187 725 233 743 c 2,7,-1
 778 948 l 1,8,-1
 778 82 l 2,9,10
 778 29 778 29 819 8.5 c 128,-1,11
 860 -12 860 -12 901 8.5 c 128,-1,12
 942 29 942 29 942 82 c 2,13,-1
 942 1053 l 2,14,15
 942 1069 942 1069 940 1077 c 0,16,17
 938 1116 938 1116 907 1133 c 1,18,19
 880 1153 880 1153 850 1147 c 0,20,21
 837 1147 837 1147 817 1135 c 1,0,-1
526 535 m 0,22,23
 526 568 526 568 551 592 c 0,24,25
 574 615 574 615 608 614 c 0,26,27
 647 614 647 614 668.5 591.5 c 128,-1,28
 690 569 690 569 690 535 c 0,29,30
 690 496 690 496 668 475 c 0,31,32
 643 450 643 450 608 451 c 0,33,34
 575 451 575 451 551 475 c 0,35,36
 526 500 526 500 526 535 c 0,22,23
EndSplineSet
Ligature2: "'ccmp' Glyph Composition/Decomposition in Hebrew lookup 3 subtable" gimelhebrew dageshhebrew
Position2: "Single Positioning lookup 21 subtable" dx=205 dy=0 dh=205 dv=0
EndChar

StartChar: daletdageshhebrew
Encoding: 64307 64307 167
Width: 1060
GlyphClass: 2
Flags: W
AnchorPoint: "Anchor-4" 713 0 basechar 0
AnchorPoint: "Anchor-3" 164 1188 basechar 0
AnchorPoint: "Anchor-2" 717 1188 basechar 0
AnchorPoint: "Anchor-1" 492 1188 basechar 0
LayerCount: 2
Fore
SplineSet
942 98 m 2,0,-1
 942 1047 l 2,1,2
 944 1074 944 1074 938 1094 c 0,3,4
 928 1123 928 1123 905 1135 c 0,5,6
 868 1160 868 1160 825 1139 c 0,7,8
 813 1135 813 1135 801 1122 c 2,9,-1
 166 647 l 2,10,11
 152 639 152 639 143 629 c 0,12,13
 120 604 120 604 121 573 c 0,14,15
 121 542 121 542 143 518 c 0,16,17
 151 508 151 508 166 500 c 2,18,-1
 801 25 l 2,19,20
 817 9 817 9 825 6 c 0,21,22
 866 -14 866 -14 905 12 c 0,23,24
 928 24 928 24 938 51 c 0,25,26
 944 71 944 71 942 98 c 2,0,-1
778 246 m 1,27,-1
 342 573 l 1,28,-1
 778 901 l 1,29,-1
 778 246 l 1,27,-1
541 580 m 0,30,31
 541 615 541 615 563.5 637 c 128,-1,32
 586 659 586 659 623 659 c 128,-1,33
 660 659 660 659 682 637 c 0,34,35
 705 614 705 614 705 580 c 0,36,37
 705 543 705 543 682 520 c 0,38,39
 657 495 657 495 623 496 c 0,40,41
 586 496 586 496 563 520 c 0,42,43
 541 541 541 541 541 580 c 0,30,31
EndSplineSet
Ligature2: "'ccmp' Glyph Composition/Decomposition in Hebrew lookup 3 subtable" dalethebrew dageshhebrew
Position2: "Single Positioning lookup 21 subtable" dx=205 dy=0 dh=205 dv=0
EndChar

StartChar: hedageshhebrew
Encoding: 64308 64308 168
Width: 1060
GlyphClass: 2
Flags: W
AnchorPoint: "Anchor-4" 614 0 basechar 0
AnchorPoint: "Anchor-3" 246 1188 basechar 0
AnchorPoint: "Anchor-2" 993 1188 basechar 0
AnchorPoint: "Anchor-1" 573 1188 basechar 0
LayerCount: 2
Fore
SplineSet
778 948 m 1,0,-1
 778 874 l 1,1,-1
 176 649 l 1,2,3
 127 635 127 635 123 588 c 0,4,5
 121 539 121 539 152 510 c 0,6,7
 187 481 187 481 233 498 c 2,8,-1
 778 702 l 1,9,-1
 778 629 l 1,10,-1
 176 403 l 1,11,12
 127 389 127 389 123 342 c 0,13,14
 121 293 121 293 152 264 c 0,15,16
 187 235 187 235 233 252 c 2,17,-1
 778 457 l 1,18,-1
 778 82 l 2,19,20
 778 29 778 29 819 8.5 c 128,-1,21
 860 -12 860 -12 901 8.5 c 128,-1,22
 942 29 942 29 942 82 c 2,23,-1
 942 561 l 1,24,-1
 942 582 l 1,25,-1
 942 807 l 1,26,-1
 942 827 l 1,27,-1
 942 1053 l 2,28,29
 942 1069 942 1069 940 1077 c 0,30,31
 938 1116 938 1116 907 1133 c 1,32,33
 880 1153 880 1153 850 1147 c 0,34,35
 838 1147 838 1147 817 1135 c 2,36,-1
 176 895 l 1,37,38
 127 881 127 881 123 834 c 0,39,40
 121 785 121 785 152 756 c 0,41,42
 187 725 187 725 233 743 c 2,43,-1
 778 948 l 1,0,-1
594 305 m 0,44,45
 594 338 594 338 616 360 c 0,46,47
 641 385 641 385 676 385 c 0,48,49
 709 385 709 385 733.5 360.5 c 128,-1,50
 758 336 758 336 758 305 c 0,51,52
 758 270 758 270 733.5 245.5 c 128,-1,53
 709 221 709 221 676 221 c 0,54,55
 641 221 641 221 616 246 c 0,56,57
 594 268 594 268 594 305 c 0,44,45
EndSplineSet
Ligature2: "'ccmp' Glyph Composition/Decomposition in Hebrew lookup 3 subtable" hehebrew dageshhebrew
Position2: "Single Positioning lookup 21 subtable" dx=205 dy=0 dh=205 dv=0
EndChar

StartChar: vavdageshhebrew
Encoding: 64309 64309 169
Width: 1001
GlyphClass: 2
Flags: W
AnchorPoint: "Anchor-4" 532 -8 basechar 0
AnchorPoint: "Anchor-3" 537 1163 basechar 0
AnchorPoint: "Anchor-2" 532 1167 basechar 0
AnchorPoint: "Anchor-1" 528 1171 basechar 0
LayerCount: 2
Fore
SplineSet
614 778 m 1,0,-1
 909 999 l 2,1,2
 934 1017 934 1017 940 1044 c 0,3,4
 946 1075 946 1075 938 1094 c 0,5,6
 928 1117 928 1117 909.5 1133 c 128,-1,7
 891 1149 891 1149 864 1149 c 0,8,9
 835 1149 835 1149 811 1130 c 2,10,-1
 532 922 l 1,11,12
 344 1059 344 1059 264 1106 c 1,13,14
 260 1118 260 1118 254 1130 c 1,15,16
 211 1161 211 1161 170 1141 c 128,-1,17
 129 1121 129 1121 123 1075 c 0,18,19
 117 1032 117 1032 156 999 c 0,20,21
 234 940 234 940 331 867.5 c 128,-1,22
 428 795 428 795 451 778 c 1,23,-1
 451 82 l 2,24,25
 451 29 451 29 492 8 c 0,26,27
 533 -12 533 -12 573 8 c 0,28,29
 614 28 614 28 614 82 c 2,30,-1
 614 778 l 1,0,-1
258 616 m 128,-1,32
 293 616 293 616 315 596 c 0,33,34
 342 576 342 576 342 535 c 0,35,36
 342 502 342 502 317 473 c 0,37,38
 299 450 299 450 258 451 c 0,39,40
 223 451 223 451 201 471 c 0,41,42
 174 496 174 496 174 535 c 0,43,44
 174 572 174 572 198.5 594 c 128,-1,31
 223 616 223 616 258 616 c 128,-1,32
EndSplineSet
Ligature2: "'ccmp' Glyph Composition/Decomposition in Hebrew lookup 3 subtable" vavhebrew dageshhebrew
Position2: "Single Positioning lookup 22 subtable" dx=164 dy=0 dh=164 dv=0
Position2: "Single Positioning lookup 21 subtable" dx=205 dy=0 dh=205 dv=0
EndChar

StartChar: zayindageshhebrew
Encoding: 64310 64310 170
Width: 837
GlyphClass: 2
Flags: W
AnchorPoint: "Anchor-4" 451 0 basechar 0
AnchorPoint: "Anchor-3" 184 1188 basechar 0
AnchorPoint: "Anchor-2" 655 1188 basechar 0
AnchorPoint: "Anchor-1" 492 1188 basechar 0
LayerCount: 2
Fore
SplineSet
176 -2 m 2,0,-1
 1073 -2 l 2,1,2
 1126 -2 1126 -2 1146.5 39 c 128,-1,3
 1167 80 1167 80 1146.5 121 c 128,-1,4
 1126 162 1126 162 1073 162 c 2,5,-1
 922 162 l 1,6,7
 789 418 789 418 489 985 c 1,8,-1
 1067 985 l 2,9,10
 1118 985 1118 985 1138.5 1026 c 128,-1,11
 1159 1067 1159 1067 1138.5 1108 c 128,-1,12
 1118 1149 1118 1149 1067 1149 c 2,13,-1
 170 1149 l 2,14,15
 119 1149 119 1149 98.5 1108 c 128,-1,16
 78 1067 78 1067 98.5 1026 c 128,-1,17
 119 985 119 985 170 985 c 2,18,-1
 305 985 l 1,19,20
 328 942 328 942 471 666.5 c 128,-1,21
 614 391 614 391 735 162 c 1,22,-1
 176 162 l 2,23,24
 123 162 123 162 102.5 121 c 128,-1,25
 82 80 82 80 102.5 39 c 128,-1,26
 123 -2 123 -2 176 -2 c 2,0,-1
0 645 m 0,27,28
 0 676 0 676 24.5 700.5 c 128,-1,29
 49 725 49 725 82 725 c 128,-1,30
 115 725 115 725 139.5 700.5 c 128,-1,31
 164 676 164 676 164 645 c 0,32,33
 164 610 164 610 139.5 585.5 c 128,-1,34
 115 561 115 561 82 561 c 128,-1,35
 49 561 49 561 24.5 585.5 c 128,-1,36
 0 610 0 610 0 645 c 0,27,28
EndSplineSet
Ligature2: "'ccmp' Glyph Composition/Decomposition in Hebrew lookup 3 subtable" zayinhebrew dageshhebrew
Position2: "Single Positioning lookup 21 subtable" dx=205 dy=0 dh=205 dv=0
EndChar

StartChar: tetdageshhebrew
Encoding: 64312 64312 171
Width: 1060
GlyphClass: 2
Flags: W
AnchorPoint: "Anchor-4" 614 0 basechar 0
AnchorPoint: "Anchor-3" 246 1188 basechar 0
AnchorPoint: "Anchor-2" 942 1188 basechar 0
AnchorPoint: "Anchor-1" 573 1188 basechar 0
LayerCount: 2
Fore
SplineSet
-6 573 m 0,0,1
 -6 352 -6 352 151.5 193.5 c 128,-1,2
 309 35 309 35 532 35 c 128,-1,3
 755 35 755 35 913 192.5 c 128,-1,4
 1071 350 1071 350 1071 573 c 128,-1,5
 1071 796 1071 796 913.5 954 c 128,-1,6
 756 1112 756 1112 532 1112 c 0,7,8
 311 1112 311 1112 152.5 954 c 128,-1,9
 -6 796 -6 796 -6 573 c 0,0,1
670 573 m 1,10,-1
 874 727 l 1,11,12
 907 657 907 657 907 573 c 128,-1,13
 907 489 907 489 874 420 c 1,14,-1
 670 573 l 1,10,-1
532 676 m 1,15,-1
 289 858 l 1,16,17
 395 948 395 948 532 948 c 128,-1,18
 669 948 669 948 776 858 c 1,19,-1
 532 676 l 1,15,-1
532 471 m 1,20,-1
 776 289 l 1,21,22
 670 199 670 199 532 199 c 0,23,24
 397 199 397 199 289 289 c 1,25,-1
 532 471 l 1,20,-1
395 573 m 1,26,-1
 190 420 l 1,27,28
 157 488 157 488 158 573 c 0,29,30
 158 659 158 659 190 727 c 1,31,-1
 395 573 l 1,26,-1
168 573 m 128,-1,33
 168 610 168 610 190.5 631.5 c 128,-1,34
 213 653 213 653 250 653 c 0,35,36
 285 653 285 653 307 631 c 0,37,38
 332 606 332 606 332 573 c 0,39,40
 332 538 332 538 307.5 513.5 c 128,-1,41
 283 489 283 489 250 489 c 0,42,43
 215 489 215 489 190 514 c 0,44,32
 168 536 168 536 168 573 c 128,-1,33
EndSplineSet
Ligature2: "'ccmp' Glyph Composition/Decomposition in Hebrew lookup 3 subtable" tethebrew dageshhebrew
Position2: "Single Positioning lookup 21 subtable" dx=205 dy=0 dh=205 dv=0
EndChar

StartChar: yoddageshhebrew
Encoding: 64313 64313 172
Width: 1103
GlyphClass: 2
Flags: W
AnchorPoint: "Anchor-4" 356 -156 basechar 0
AnchorPoint: "Anchor-3" 328 1188 basechar 0
AnchorPoint: "Anchor-2" 328 1188 basechar 0
AnchorPoint: "Anchor-1" 328 1188 basechar 0
LayerCount: 2
Fore
SplineSet
543 246 m 1,0,-1
 788 614 l 2,1,2
 792 618 792 618 793 621 c 2,3,-1
 1051 1008 l 1,4,5
 1069 1026 1069 1026 1073 1055 c 0,6,7
 1077 1086 1077 1086 1057 1114 c 0,8,9
 1034 1147 1034 1147 999 1149 c 0,10,11
 968 1151 968 1151 948 1137 c 1,12,-1
 197 836 l 2,13,14
 148 818 148 818 144.5 770.5 c 128,-1,15
 141 723 141 723 174 694 c 128,-1,16
 207 665 207 665 258 684 c 2,17,-1
 778 893 l 1,18,-1
 674 733 l 1,19,-1
 309 606 l 2,20,21
 260 588 260 588 254 543 c 0,22,23
 248 496 248 496 281 467 c 0,24,25
 316 436 316 436 362 451 c 2,26,-1
 520 506 l 1,27,-1
 276 139 l 1,28,29
 253 121 253 121 254 90 c 0,30,31
 252 55 252 55 274.5 28.5 c 128,-1,32
 297 2 297 2 317 0 c 0,33,34
 350 -8 350 -8 381 12 c 1,35,-1
 1020 252 l 1,36,37
 1069 266 1069 266 1073 313 c 0,38,39
 1075 364 1075 364 1047 391 c 0,40,41
 1012 422 1012 422 963 403 c 2,42,-1
 543 246 l 1,0,-1
100 625 m 0,43,44
 129 625 129 625 158 602 c 0,45,46
 185 582 185 582 184 541 c 0,47,48
 184 504 184 504 159.5 480.5 c 128,-1,49
 135 457 135 457 100 457 c 0,50,51
 69 457 69 457 43 477 c 0,52,53
 16 497 16 497 16 541 c 0,54,55
 16 576 16 576 40.5 600.5 c 128,-1,56
 65 625 65 625 100 625 c 0,43,44
EndSplineSet
Ligature2: "'ccmp' Glyph Composition/Decomposition in Hebrew lookup 3 subtable" yodhebrew dageshhebrew
Position2: "Single Positioning lookup 22 subtable" dx=164 dy=0 dh=164 dv=0
Position2: "Single Positioning lookup 21 subtable" dx=205 dy=0 dh=205 dv=0
EndChar

StartChar: finalkafdageshhebrew
Encoding: 64314 64314 173
Width: 1060
GlyphClass: 2
Flags: W
AnchorPoint: "Anchor-5" 573 0 basechar 0
AnchorPoint: "Anchor-3" 164 1188 basechar 0
AnchorPoint: "Anchor-2" 799 1188 basechar 0
AnchorPoint: "Anchor-1" 389 1188 basechar 0
LayerCount: 2
Fore
SplineSet
782 1114 m 0,0,1
 782 1100 782 1100 791 874 c 1,2,-1
 606 1157 l 2,3,4
 586 1192 586 1192 551 1194 c 0,5,6
 512 1196 512 1196 492 1182 c 0,7,8
 467 1164 467 1164 455 1133 c 0,9,10
 443 1104 443 1104 467 1067 c 2,11,-1
 649 786 l 1,12,-1
 238 942 l 2,13,14
 191 958 191 958 156 930 c 0,15,16
 121 899 121 899 127 854 c 128,-1,17
 133 809 133 809 180 791 c 2,18,-1
 782 563 l 1,19,20
 772 467 772 467 754 412 c 0,21,22
 731 342 731 342 690 287 c 0,23,24
 647 232 647 232 590 201 c 0,25,26
 531 170 531 170 440 170 c 0,27,28
 348 170 348 170 233 207 c 0,29,30
 184 221 184 221 152 190 c 0,31,32
 121 159 121 159 127 113 c 0,33,34
 133 66 133 66 184 51 c 0,35,36
 307 12 307 12 401 4 c 0,37,38
 487 -4 487 -4 571 14 c 0,39,40
 639 28 639 28 702 72 c 0,41,42
 761 115 761 115 799 168 c 0,43,44
 836 221 836 221 862 295 c 0,45,46
 891 375 891 375 905 442 c 0,47,48
 921 526 921 526 930 604 c 0,49,50
 936 624 936 624 934 641 c 0,51,52
 938 690 938 690 942 795 c 0,53,54
 944 848 944 848 944 975 c 0,55,56
 944 1014 944 1014 945 1059 c 128,-1,57
 946 1104 946 1104 946 1110 c 0,58,59
 946 1163 946 1163 907 1183.5 c 128,-1,60
 868 1204 868 1204 825 1185.5 c 128,-1,61
 782 1167 782 1167 782 1114 c 0,0,1
467 496 m 0,62,63
 467 531 467 531 489.5 553 c 128,-1,64
 512 575 512 575 549 575 c 0,65,66
 584 575 584 575 606 553 c 0,67,68
 631 528 631 528 631 496 c 0,69,70
 631 461 631 461 606 436 c 128,-1,71
 581 411 581 411 549 412 c 0,72,73
 512 412 512 412 489 436 c 0,74,75
 467 457 467 457 467 496 c 0,62,63
EndSplineSet
Ligature2: "'ccmp' Glyph Composition/Decomposition in Hebrew lookup 3 subtable" finalkafhebrew dageshhebrew
Position2: "Single Positioning lookup 21 subtable" dx=205 dy=0 dh=205 dv=0
EndChar

StartChar: kafdageshhebrew
Encoding: 64315 64315 174
Width: 1060
GlyphClass: 2
Flags: W
AnchorPoint: "Anchor-4" 451 0 basechar 0
AnchorPoint: "Anchor-3" 164 1188 basechar 0
AnchorPoint: "Anchor-2" 717 1188 basechar 0
AnchorPoint: "Anchor-1" 369 1188 basechar 0
LayerCount: 2
Fore
SplineSet
782 1114 m 0,0,1
 782 1100 782 1100 791 874 c 1,2,-1
 606 1157 l 2,3,4
 586 1192 586 1192 551 1194 c 0,5,6
 512 1196 512 1196 492 1182 c 0,7,8
 467 1164 467 1164 455 1133 c 0,9,10
 443 1104 443 1104 467 1067 c 2,11,-1
 649 786 l 1,12,-1
 238 942 l 2,13,14
 191 958 191 958 156 930 c 0,15,16
 121 899 121 899 127 854 c 128,-1,17
 133 809 133 809 180 791 c 2,18,-1
 782 563 l 1,19,20
 772 467 772 467 754 412 c 0,21,22
 731 342 731 342 690 287 c 0,23,24
 647 232 647 232 590 201 c 0,25,26
 531 170 531 170 440 170 c 0,27,28
 348 170 348 170 233 207 c 0,29,30
 184 221 184 221 152 190 c 0,31,32
 121 159 121 159 127 113 c 0,33,34
 133 66 133 66 184 51 c 0,35,36
 307 12 307 12 401 4 c 0,37,38
 487 -4 487 -4 571 14 c 0,39,40
 639 28 639 28 702 72 c 0,41,42
 761 115 761 115 799 168 c 0,43,44
 836 221 836 221 862 295 c 0,45,46
 891 375 891 375 905 442 c 0,47,48
 921 526 921 526 930 604 c 0,49,50
 936 624 936 624 934 641 c 0,51,52
 938 690 938 690 942 795 c 0,53,54
 944 848 944 848 944 975 c 0,55,56
 944 1014 944 1014 945 1059 c 128,-1,57
 946 1104 946 1104 946 1110 c 0,58,59
 946 1163 946 1163 907 1183.5 c 128,-1,60
 868 1204 868 1204 825 1185.5 c 128,-1,61
 782 1167 782 1167 782 1114 c 0,0,1
487 483 m 0,62,63
 487 516 487 516 512 541 c 0,64,65
 535 564 535 564 569 563 c 0,66,67
 608 563 608 563 629.5 540.5 c 128,-1,68
 651 518 651 518 651 483 c 0,69,70
 651 446 651 446 629 424 c 0,71,72
 604 399 604 399 569 399 c 0,73,74
 536 399 536 399 511.5 423.5 c 128,-1,75
 487 448 487 448 487 483 c 0,62,63
EndSplineSet
Ligature2: "'ccmp' Glyph Composition/Decomposition in Hebrew lookup 3 subtable" kafhebrew dageshhebrew
Position2: "Single Positioning lookup 21 subtable" dx=205 dy=0 dh=205 dv=0
EndChar

StartChar: lameddageshhebrew
Encoding: 64316 64316 175
Width: 1060
GlyphClass: 2
Flags: W
AnchorPoint: "Anchor-4" 512 0 basechar 0
AnchorPoint: "Anchor-3" -51 1188 basechar 0
AnchorPoint: "Anchor-2" 737 1188 basechar 0
AnchorPoint: "Anchor-1" 594 1188 basechar 0
LayerCount: 2
Fore
SplineSet
412 246 m 1,0,-1
 928 1020 l 2,1,2
 942 1045 942 1045 942 1073 c 0,3,4
 942 1098 942 1098 924 1116 c 0,5,6
 904 1139 904 1139 885 1145 c 0,7,8
 862 1155 862 1155 836 1145 c 0,9,10
 807 1135 807 1135 793 1110 c 2,11,-1
 145 139 l 1,12,13
 122 121 122 121 123 90 c 0,14,15
 121 55 121 55 143.5 28.5 c 128,-1,16
 166 2 166 2 186 0 c 0,17,18
 219 -8 219 -8 250 12 c 1,19,-1
 889 252 l 1,20,21
 938 266 938 266 942 313 c 0,22,23
 944 362 944 362 913 391 c 0,24,25
 878 420 878 420 831 403 c 2,26,-1
 412 246 l 1,0,-1
582 453 m 0,27,28
 582 488 582 488 604.5 510 c 128,-1,29
 627 532 627 532 664 532 c 128,-1,30
 701 532 701 532 723 509.5 c 128,-1,31
 745 487 745 487 745 453 c 0,32,33
 745 414 745 414 723 393 c 0,34,35
 698 368 698 368 664 369 c 0,36,37
 627 369 627 369 604 393 c 0,38,39
 582 414 582 414 582 453 c 0,27,28
EndSplineSet
Ligature2: "'ccmp' Glyph Composition/Decomposition in Hebrew lookup 3 subtable" lamedhebrew dageshhebrew
Position2: "Single Positioning lookup 23 subtable" dx=225 dy=0 dh=225 dv=0
EndChar

StartChar: memdageshhebrew
Encoding: 64318 64318 176
Width: 1060
GlyphClass: 2
Flags: W
AnchorPoint: "Anchor-4" 655 0 basechar 0
AnchorPoint: "Anchor-3" 205 1188 basechar 0
AnchorPoint: "Anchor-2" 983 1188 basechar 0
AnchorPoint: "Anchor-1" 696 1188 basechar 0
LayerCount: 2
Fore
SplineSet
782 1094 m 1,0,-1
 696 967 l 1,1,-1
 608 1096 l 1,2,3
 602 1114 602 1114 588 1126 c 0,4,5
 565 1149 565 1149 532 1149 c 128,-1,6
 499 1149 499 1149 477 1126 c 0,7,8
 463 1116 463 1116 457 1096 c 1,9,-1
 369 967 l 1,10,-1
 272 1110 l 2,11,12
 258 1135 258 1135 229 1145 c 0,13,14
 202 1155 202 1155 180 1145 c 0,15,16
 164 1139 164 1139 141 1116 c 0,17,18
 123 1098 123 1098 123 1073 c 0,19,20
 123 1044 123 1044 137 1020 c 2,21,-1
 293 788 l 1,22,23
 299 770 299 770 313 758 c 0,24,25
 336 735 336 735 369 735 c 128,-1,26
 402 735 402 735 424 758 c 0,27,28
 440 770 440 770 446 788 c 1,29,-1
 532 920 l 1,30,-1
 618 788 l 1,31,32
 622 772 622 772 641 758 c 0,33,34
 664 735 664 735 696 735 c 0,35,36
 729 735 729 735 752 758 c 0,37,38
 766 768 766 768 772 788 c 1,39,-1
 829 874 l 1,40,41
 847 737 847 737 807 627 c 0,42,43
 762 504 762 504 674 420 c 0,44,45
 576 326 576 326 457 264 c 0,46,47
 330 201 330 201 184 162 c 0,48,49
 153 156 153 156 137 133 c 0,50,51
 123 113 123 113 123 86 c 0,52,53
 123 68 123 68 135 39 c 0,54,55
 143 19 143 19 170 6 c 0,56,57
 190 -4 190 -4 225 2 c 0,58,59
 514 72 514 72 711 229 c 0,60,61
 910 387 910 387 977 606 c 128,-1,62
 1044 825 1044 825 940 1087 c 0,63,64
 940 1089 940 1089 937 1096.5 c 128,-1,65
 934 1104 934 1104 932 1106 c 0,66,67
 909 1149 909 1149 866 1149 c 0,68,69
 833 1151 833 1151 809 1128 c 0,70,71
 786 1108 786 1108 782 1094 c 1,0,-1
489 569 m 0,72,73
 489 604 489 604 512 627 c 128,-1,74
 535 650 535 650 571 649 c 0,75,76
 610 649 610 649 631.5 626.5 c 128,-1,77
 653 604 653 604 653 569 c 0,78,79
 653 532 653 532 631 510 c 0,80,81
 606 485 606 485 571 485 c 128,-1,82
 536 485 536 485 512 510 c 0,83,84
 489 532 489 532 489 569 c 0,72,73
EndSplineSet
Ligature2: "'ccmp' Glyph Composition/Decomposition in Hebrew lookup 3 subtable" memhebrew dageshhebrew
Position2: "Single Positioning lookup 21 subtable" dx=205 dy=0 dh=205 dv=0
EndChar

StartChar: nundageshhebrew
Encoding: 64320 64320 177
Width: 1060
GlyphClass: 2
Flags: W
AnchorPoint: "Anchor-4" 512 -4 basechar 0
AnchorPoint: "Anchor-3" 422 1241 basechar 0
AnchorPoint: "Anchor-2" 995 1241 basechar 0
AnchorPoint: "Anchor-1" 700 1262 basechar 0
LayerCount: 2
Fore
SplineSet
197 8 m 0,0,1
 342 22 342 22 481 94 c 0,2,3
 624 168 624 168 727 270 c 0,4,5
 827 370 827 370 901 512 c 0,6,7
 973 649 973 649 979 797 c 0,8,9
 985 947 985 947 924 1098 c 0,10,11
 924 1100 924 1100 913 1116 c 0,12,13
 895 1153 895 1153 858 1155 c 1,14,15
 817 1163 817 1163 788 1135 c 0,16,17
 774 1123 774 1123 766 1102 c 1,18,-1
 680 975 l 1,19,-1
 584 1118 l 2,20,21
 568 1147 568 1147 541 1153 c 0,22,23
 512 1159 512 1159 494 1151 c 0,24,25
 469 1141 469 1141 453 1124 c 0,26,27
 433 1104 433 1104 432.5 1081.5 c 128,-1,28
 432 1059 432 1059 449 1028 c 2,29,-1
 602 797 l 2,30,31
 608 781 608 781 625 766 c 0,32,33
 648 743 648 743 680 743 c 0,34,35
 711 743 711 743 733 766 c 0,36,37
 753 782 753 782 758 797 c 2,38,-1
 811 879 l 1,39,40
 823 748 823 748 776 627 c 0,41,42
 729 504 729 504 637 408 c 0,43,44
 553 318 553 318 426 250 c 0,45,46
 303 184 303 184 180 172 c 0,47,48
 131 166 131 166 113 123 c 0,49,50
 97 82 97 82 121 41 c 0,51,52
 144 2 144 2 197 8 c 0,0,1
516 592 m 0,53,54
 516 623 516 623 540.5 647.5 c 128,-1,55
 565 672 565 672 598 672 c 128,-1,56
 631 672 631 672 655.5 647.5 c 128,-1,57
 680 623 680 623 680 592 c 0,58,59
 680 557 680 557 655 532 c 128,-1,60
 630 507 630 507 597.5 507.5 c 128,-1,61
 565 508 565 508 541 532 c 0,62,63
 516 557 516 557 516 592 c 0,53,54
EndSplineSet
Ligature2: "'ccmp' Glyph Composition/Decomposition in Hebrew lookup 3 subtable" nunhebrew dageshhebrew
Position2: "Single Positioning lookup 21 subtable" dx=205 dy=0 dh=205 dv=0
EndChar

StartChar: samekhdageshhebrew
Encoding: 64321 64321 178
Width: 1060
GlyphClass: 2
Flags: W
AnchorPoint: "Anchor-4" 545 -4 basechar 0
AnchorPoint: "Anchor-3" 164 1204 basechar 0
AnchorPoint: "Anchor-2" 983 1188 basechar 0
AnchorPoint: "Anchor-1" 573 1188 basechar 0
LayerCount: 2
Fore
SplineSet
627 741 m 1,0,-1
 872 741 l 2,1,2
 923 741 923 741 944 782 c 128,-1,3
 965 823 965 823 944.5 864 c 128,-1,4
 924 905 924 905 872 905 c 2,5,-1
 627 905 l 1,6,-1
 627 987 l 1,7,-1
 872 987 l 2,8,9
 911 987 911 987 932.5 1011.5 c 128,-1,10
 954 1036 954 1036 954 1069 c 128,-1,11
 954 1102 954 1102 931.5 1126.5 c 128,-1,12
 909 1151 909 1151 872 1151 c 2,13,-1
 545 1151 l 1,14,-1
 463 1151 l 1,15,-1
 217 1151 l 2,16,17
 164 1151 164 1151 143.5 1110 c 128,-1,18
 123 1069 123 1069 143.5 1028 c 128,-1,19
 164 987 164 987 217 987 c 2,20,-1
 463 987 l 1,21,-1
 463 905 l 1,22,-1
 217 905 l 2,23,24
 164 905 164 905 143.5 864 c 128,-1,25
 123 823 123 823 143.5 782 c 128,-1,26
 164 741 164 741 217 741 c 2,27,-1
 463 741 l 1,28,-1
 463 659 l 1,29,-1
 217 659 l 2,30,31
 164 659 164 659 143 618 c 0,32,33
 123 577 123 577 143 537 c 0,34,35
 163 496 163 496 217 496 c 2,36,-1
 463 496 l 1,37,-1
 463 86 l 2,38,39
 463 33 463 33 504 12.5 c 128,-1,40
 545 -8 545 -8 586 12.5 c 128,-1,41
 627 33 627 33 627 86 c 2,42,-1
 627 496 l 1,43,-1
 872 496 l 2,44,45
 923 496 923 496 944 537 c 0,46,47
 964 578 964 578 944 618 c 0,48,49
 924 659 924 659 872 659 c 2,50,-1
 627 659 l 1,51,-1
 627 741 l 1,0,-1
256 381 m 0,52,53
 256 412 256 412 280.5 436.5 c 128,-1,54
 305 461 305 461 338 461 c 128,-1,55
 371 461 371 461 395.5 436.5 c 128,-1,56
 420 412 420 412 420 381 c 0,57,58
 420 346 420 346 395.5 321.5 c 128,-1,59
 371 297 371 297 338 297 c 128,-1,60
 305 297 305 297 280.5 321.5 c 128,-1,61
 256 346 256 346 256 381 c 0,52,53
EndSplineSet
Ligature2: "'ccmp' Glyph Composition/Decomposition in Hebrew lookup 3 subtable" samekhhebrew dageshhebrew
Position2: "Single Positioning lookup 21 subtable" dx=205 dy=0 dh=205 dv=0
EndChar

StartChar: uniFB43
Encoding: 64323 64323 179
Width: 1155
GlyphClass: 2
Flags: W
AnchorPoint: "Anchor-5" 618 -12 basechar 0
LayerCount: 2
Fore
SplineSet
317 43 m 0,0,1
 321 47 321 47 355 72.5 c 128,-1,2
 389 98 389 98 414 119 c 0,3,4
 439 137 439 137 475.5 166 c 128,-1,5
 512 195 512 195 524 205 c 0,6,7
 590 258 590 258 635 299 c 0,8,9
 651 313 651 313 691 348 c 128,-1,10
 731 383 731 383 748 399 c 0,11,12
 803 454 803 454 850 505.5 c 128,-1,13
 897 557 897 557 938 621 c 0,14,15
 969 668 969 668 1001 737 c 0,16,17
 1032 803 1032 803 1040 860 c 0,18,19
 1046 907 1046 907 1040 985 c 0,20,21
 1036 1040 1036 1040 1001 1114 c 0,22,23
 999 1124 999 1124 985 1143 c 0,24,25
 967 1168 967 1168 936 1171 c 0,26,27
 907 1177 907 1177 877 1157 c 0,28,29
 859 1143 859 1143 850 1128 c 0,30,31
 815 1091 815 1091 774 1063 c 0,32,33
 721 1028 721 1028 682 1012 c 0,34,35
 598 977 598 977 594 977 c 0,36,37
 549 961 549 961 494 946 c 2,38,-1
 408 922 l 2,39,40
 355 906 355 906 348 860 c 0,41,42
 342 815 342 815 375 782 c 0,43,44
 406 751 406 751 457 766 c 0,45,46
 475 772 475 772 524 786 c 0,47,48
 542 790 542 790 568 799.5 c 128,-1,49
 594 809 594 809 600 811 c 0,50,51
 602 811 602 811 672 834 c 0,52,53
 676 836 676 836 748 864 c 0,54,55
 764 870 764 870 815 899 c 0,56,57
 858 924 858 924 885 942 c 1,58,59
 893 862 893 862 864 780 c 0,60,61
 833 698 833 698 778 633 c 0,62,63
 717 559 717 559 641 494 c 0,64,65
 555 416 555 416 492 371 c 0,66,67
 476 359 476 359 422.5 321 c 128,-1,68
 369 283 369 283 338 260 c 0,69,70
 313 242 313 242 270 211 c 128,-1,71
 227 180 227 180 215 170 c 0,72,73
 174 135 174 135 184 90 c 0,74,75
 192 45 192 45 236 29 c 0,76,77
 274 14 274 14 317 43 c 0,0,1
561 711 m 128,-1,79
 598 711 598 711 623 686 c 128,-1,80
 648 661 648 661 647 627 c 0,81,82
 647 588 647 588 625 567 c 0,83,84
 600 542 600 542 561 543 c 0,85,86
 526 543 526 543 502 567 c 0,87,88
 477 592 477 592 477 627 c 0,89,90
 477 658 477 658 500 684 c 0,91,78
 524 711 524 711 561 711 c 128,-1,79
EndSplineSet
Ligature2: "'ccmp' Glyph Composition/Decomposition in Hebrew lookup 3 subtable" finalpehebrew dageshhebrew
EndChar

StartChar: pedageshhebrew
Encoding: 64324 64324 180
Width: 1155
GlyphClass: 2
Flags: W
AnchorPoint: "Anchor-4" 623 -4 basechar 0
AnchorPoint: "Anchor-3" 221 1180 basechar 0
AnchorPoint: "Anchor-2" 1102 1184 basechar 0
AnchorPoint: "Anchor-1" 655 1176 basechar 0
LayerCount: 2
Fore
SplineSet
344 31 m 0,0,1
 348 35 348 35 382 60.5 c 128,-1,2
 416 86 416 86 440.5 106.5 c 128,-1,3
 465 127 465 127 505 156.5 c 128,-1,4
 545 186 545 186 551 193 c 0,5,6
 617 244 617 244 662 285 c 0,7,8
 768 381 768 381 774 387 c 0,9,10
 809 422 809 422 874 494 c 0,11,12
 937 566 937 566 965 606 c 0,13,14
 992 647 992 647 1028 725 c 0,15,16
 1061 801 1061 801 1067 848 c 0,17,18
 1081 934 1081 934 1067 973 c 0,19,20
 1067 977 1067 977 1061 995.5 c 128,-1,21
 1055 1014 1055 1014 1045.5 1042.5 c 128,-1,22
 1036 1071 1036 1071 1028 1102 c 0,23,24
 1026 1114 1026 1114 1012 1128 c 0,25,26
 996 1151 996 1151 961 1157 c 0,27,28
 926 1161 926 1161 901 1145 c 0,29,30
 897 1143 897 1143 874 1116 c 0,31,32
 854 1091 854 1091 801 1051 c 0,33,34
 756 1018 756 1018 709 999 c 0,35,36
 643 972 643 972 621 965 c 0,37,38
 580 951 580 951 520 934 c 0,39,40
 495 928 495 928 464.5 917.5 c 128,-1,41
 434 907 434 907 432 907 c 0,42,43
 381 891 381 891 375 848 c 0,44,45
 367 803 367 803 399 770 c 0,46,47
 430 739 430 739 481 754 c 0,48,49
 485 756 485 756 494.5 759 c 128,-1,50
 504 762 504 762 521.5 766 c 128,-1,51
 539 770 539 770 551 774 c 0,52,53
 612 792 612 792 627 797 c 0,54,55
 635 799 635 799 659.5 808 c 128,-1,56
 684 817 684 817 698 821 c 0,57,58
 716 827 716 827 745 840 c 2,59,-1
 774 852 l 2,60,61
 780 856 780 856 803.5 868.5 c 128,-1,62
 827 881 827 881 842 887 c 0,63,64
 881 907 881 907 911 930 c 1,65,66
 919 848 919 848 891 768 c 0,67,68
 860 686 860 686 805 618 c 0,69,70
 754 559 754 559 668 479 c 0,71,72
 607 426 607 426 516 356 c 0,73,74
 498 342 498 342 446.5 306 c 128,-1,75
 395 270 395 270 365 248 c 0,76,77
 332 223 332 223 291 193.5 c 128,-1,78
 250 164 250 164 242 158 c 0,79,80
 201 125 201 125 211 78 c 0,81,82
 219 35 219 35 299 20 c 0,83,84
 328 15 328 15 344 31 c 0,0,1
588 698 m 0,85,86
 623 698 623 698 647 674 c 0,87,88
 674 649 674 649 674 614 c 128,-1,89
 674 579 674 579 649 555 c 0,90,91
 626 530 626 530 588 530 c 0,92,93
 553 530 553 530 528 555 c 128,-1,94
 503 580 503 580 504 614 c 0,95,96
 504 647 504 647 526 672 c 0,97,98
 549 698 549 698 588 698 c 0,85,86
EndSplineSet
Ligature2: "'ccmp' Glyph Composition/Decomposition in Hebrew lookup 3 subtable" pehebrew dageshhebrew
Position2: "Single Positioning lookup 21 subtable" dx=205 dy=0 dh=205 dv=0
EndChar

StartChar: tsadidageshhebrew
Encoding: 64326 64326 181
Width: 1060
GlyphClass: 2
Flags: W
AnchorPoint: "Anchor-4" 496 -8 basechar 0
AnchorPoint: "Anchor-3" 102 1184 basechar 0
AnchorPoint: "Anchor-2" 985 1192 basechar 0
AnchorPoint: "Anchor-1" 537 1196 basechar 0
LayerCount: 2
Fore
SplineSet
696 967 m 1,0,-1
 608 1096 l 1,1,2
 602 1114 602 1114 588 1126 c 0,3,4
 565 1149 565 1149 532 1149 c 128,-1,5
 499 1149 499 1149 477 1126 c 0,6,7
 463 1116 463 1116 457 1096 c 1,8,-1
 369 967 l 1,9,-1
 272 1110 l 2,10,11
 258 1135 258 1135 229 1145 c 0,12,13
 202 1155 202 1155 180 1145 c 0,14,15
 164 1139 164 1139 141 1116 c 0,16,17
 123 1098 123 1098 123 1073 c 0,18,19
 123 1044 123 1044 137 1020 c 2,20,-1
 293 788 l 2,21,22
 303 768 303 768 307 764 c 2,23,-1
 793 37 l 2,24,25
 809 8 809 8 836 2 c 0,26,27
 869 -4 869 -4 885 2 c 0,28,29
 903 8 903 8 924 31 c 0,30,31
 942 49 942 49 942 74 c 0,32,33
 942 103 942 103 928 127 c 2,34,-1
 467 819 l 1,35,-1
 532 920 l 1,36,-1
 618 788 l 1,37,38
 622 772 622 772 641 758 c 0,39,40
 664 735 664 735 696 735 c 0,41,42
 729 735 729 735 752 758 c 0,43,44
 766 768 766 768 772 788 c 1,45,-1
 928 1020 l 2,46,47
 957 1065 957 1065 934 1104 c 0,48,49
 909 1147 909 1147 866 1149 c 0,50,51
 827 1151 827 1151 793 1110 c 1,52,-1
 696 967 l 1,0,-1
696 612 m 0,53,54
 696 645 696 645 721 670 c 0,55,56
 744 693 744 693 778 692 c 0,57,58
 817 692 817 692 838.5 669.5 c 128,-1,59
 860 647 860 647 860 612 c 0,60,61
 860 575 860 575 838 553 c 0,62,63
 813 528 813 528 778 528 c 0,64,65
 745 528 745 528 720.5 552.5 c 128,-1,66
 696 577 696 577 696 612 c 0,53,54
EndSplineSet
Ligature2: "'ccmp' Glyph Composition/Decomposition in Hebrew lookup 3 subtable" tsadihebrew dageshhebrew
Position2: "Single Positioning lookup 21 subtable" dx=205 dy=0 dh=205 dv=0
EndChar

StartChar: qofdageshhebrew
Encoding: 64327 64327 182
Width: 1222
GlyphClass: 2
Flags: W
AnchorPoint: "Anchor-4" 623 12 basechar 0
AnchorPoint: "Anchor-3" 201 1171 basechar 0
AnchorPoint: "Anchor-2" 1077 1171 basechar 0
AnchorPoint: "Anchor-1" 618 1180 basechar 0
LayerCount: 2
Fore
SplineSet
291 670 m 1,0,-1
 111 672 l 2,1,2
 60 672 60 672 39 631 c 128,-1,3
 18 590 18 590 38.5 549 c 128,-1,4
 59 508 59 508 111 508 c 2,5,-1
 291 508 l 1,6,7
 320 387 320 387 412 315 c 0,8,9
 506 241 506 241 629 242 c 0,10,11
 750 242 750 242 844 315 c 0,12,13
 940 391 940 391 967 506 c 1,14,-1
 1130 506 l 2,15,16
 1181 506 1181 506 1202 547 c 128,-1,17
 1223 588 1223 588 1202.5 629 c 128,-1,18
 1182 670 1182 670 1130 670 c 2,19,-1
 967 670 l 1,20,21
 940 783 940 783 846 860 c 0,22,23
 750 938 750 938 629 938 c 0,24,25
 510 938 510 938 412 862 c 0,26,27
 320 789 320 789 291 670 c 1,0,-1
463 506 m 1,28,-1
 793 506 l 1,29,30
 773 463 773 463 725 432 c 0,31,32
 682 405 682 405 629 406 c 0,33,34
 572 406 572 406 530 432 c 0,35,36
 483 461 483 461 463 506 c 1,28,-1
795 670 m 1,37,-1
 463 670 l 1,38,39
 486 719 486 719 530 745 c 0,40,41
 575 772 575 772 629 772 c 0,42,43
 680 772 680 772 727 745 c 0,44,45
 772 717 772 717 795 670 c 1,37,-1
129 403 m 0,46,47
 129 436 129 436 154 461 c 0,48,49
 177 484 177 484 211.5 483.5 c 128,-1,50
 246 483 246 483 268 461 c 0,51,52
 293 436 293 436 293 403 c 0,53,54
 293 368 293 368 268.5 343.5 c 128,-1,55
 244 319 244 319 211 319 c 128,-1,56
 178 319 178 319 153.5 343.5 c 128,-1,57
 129 368 129 368 129 403 c 0,46,47
EndSplineSet
Ligature2: "'ccmp' Glyph Composition/Decomposition in Hebrew lookup 3 subtable" qofhebrew dageshhebrew
Position2: "Single Positioning lookup 21 subtable" dx=205 dy=0 dh=205 dv=0
EndChar

StartChar: uniFB48
Encoding: 64328 64328 183
Width: 1038
GlyphClass: 2
Flags: W
AnchorPoint: "Anchor-4" 860 -4 basechar 0
AnchorPoint: "Anchor-3" 164 1192 basechar 0
AnchorPoint: "Anchor-2" 938 1192 basechar 0
AnchorPoint: "Anchor-1" 541 1176 basechar 0
LayerCount: 2
Fore
SplineSet
618 424 m 0,0,1
 653 424 653 424 678 399 c 128,-1,2
 703 374 703 374 702.5 339.5 c 128,-1,3
 702 305 702 305 678 281 c 0,4,5
 653 256 653 256 618 256 c 0,6,7
 585 256 585 256 559 279 c 0,8,9
 534 299 534 299 535 340 c 0,10,11
 535 377 535 377 557 399 c 0,12,13
 581 424 581 424 618 424 c 0,0,1
451 655 m 1,14,-1
 778 901 l 1,15,-1
 778 655 l 1,16,-1
 451 655 l 1,14,-1
217 492 m 1,17,-1
 778 492 l 1,18,-1
 778 82 l 2,19,20
 778 31 778 31 819 10.5 c 128,-1,21
 860 -10 860 -10 901 10.5 c 128,-1,22
 942 31 942 31 942 82 c 2,23,-1
 942 1049 l 2,24,25
 944 1076 944 1076 938 1094 c 0,26,27
 928 1123 928 1123 905 1135 c 0,28,29
 868 1160 868 1160 825 1139 c 0,30,31
 813 1135 813 1135 801 1122 c 2,32,-1
 166 647 l 2,33,34
 146 637 146 637 137 621 c 0,35,36
 106 578 106 578 133 532 c 0,37,38
 145 509 145 509 168 500 c 0,39,40
 194 486 194 486 217 492 c 1,17,-1
EndSplineSet
Ligature2: "'ccmp' Glyph Composition/Decomposition in Hebrew lookup 3 subtable" reshhebrew dageshhebrew
Position2: "Single Positioning lookup 21 subtable" dx=205 dy=0 dh=205 dv=0
EndChar

StartChar: shindageshhebrew
Encoding: 64329 64329 184
Width: 1417
GlyphClass: 2
Flags: W
AnchorPoint: "Anchor-4" 530 -4 basechar 0
AnchorPoint: "Anchor-3" 111 1061 basechar 0
AnchorPoint: "Anchor-2" 991 1061 basechar 0
AnchorPoint: "Anchor-1" 532 897 basechar 0
LayerCount: 2
Fore
SplineSet
528 870 m 0,0,1
 565 870 565 870 588.5 845.5 c 128,-1,2
 612 821 612 821 612 786 c 128,-1,3
 612 751 612 751 588 727 c 0,4,5
 563 702 563 702 528 702 c 0,6,7
 495 702 495 702 469 725 c 0,8,9
 444 748 444 748 444 786 c 0,10,11
 444 821 444 821 469 846 c 0,12,13
 493 870 493 870 528 870 c 0,0,1
682 389 m 1,14,-1
 614 588 l 1,15,16
 610 615 610 615 598 627 c 0,17,18
 575 656 575 656 532 655 c 0,19,20
 491 655 491 655 469 627 c 0,21,22
 455 613 455 613 451 588 c 1,23,-1
 385 389 l 1,24,-1
 285 838 l 2,25,26
 275 887 275 887 227 899 c 0,27,28
 182 911 182 911 147 881 c 0,29,30
 112 852 112 852 125 801 c 2,31,-1
 287 78 l 1,32,33
 287 49 287 49 303 31 c 0,34,35
 326 0 326 0 367 0 c 0,36,37
 406 0 406 0 430 27 c 0,38,39
 448 45 448 45 451 66 c 2,40,-1
 532 313 l 1,41,-1
 614 66 l 1,42,43
 616 46 616 46 635 27 c 0,44,45
 660 0 660 0 698 0 c 0,46,47
 741 0 741 0 762 31 c 0,48,49
 778 49 778 49 778 78 c 1,50,-1
 940 801 l 2,51,52
 946 840 946 840 930 864 c 0,53,54
 912 893 912 893 879 899 c 128,-1,55
 846 905 846 905 817 891 c 0,56,57
 786 877 786 877 780 838 c 2,58,-1
 682 389 l 1,14,-1
EndSplineSet
Ligature2: "'ccmp' Glyph Composition/Decomposition in Hebrew lookup 3 subtable" shinhebrew dageshhebrew
EndChar

StartChar: tavdageshhebrew
Encoding: 64330 64330 185
Width: 1060
GlyphClass: 2
Flags: W
AnchorPoint: "Anchor-4" 688 0 basechar 0
AnchorPoint: "Anchor-3" 287 1188 basechar 0
AnchorPoint: "Anchor-2" 1065 1188 basechar 0
AnchorPoint: "Anchor-1" 614 1188 basechar 0
LayerCount: 2
Fore
SplineSet
532 426 m 1,0,-1
 793 37 l 2,1,2
 809 8 809 8 836 2 c 0,3,4
 869 -4 869 -4 885 2 c 0,5,6
 903 8 903 8 924 31 c 0,7,8
 942 49 942 49 942 74 c 0,9,10
 942 103 942 103 928 127 c 2,11,-1
 631 573 l 1,12,-1
 928 1020 l 2,13,14
 957 1065 957 1065 934 1104 c 0,15,16
 909 1147 909 1147 866 1149 c 0,17,18
 827 1151 827 1151 793 1110 c 1,19,-1
 532 721 l 1,20,-1
 272 1110 l 2,21,22
 256 1139 256 1139 229 1145 c 0,23,24
 196 1151 196 1151 180 1145 c 128,-1,25
 164 1139 164 1139 141 1116 c 0,26,27
 123 1098 123 1098 123 1073 c 0,28,29
 123 1044 123 1044 137 1020 c 2,30,-1
 434 573 l 1,31,-1
 137 127 l 2,32,33
 108 82 108 82 131 43 c 0,34,35
 156 2 156 2 199 0 c 0,36,37
 238 -2 238 -2 272 37 c 1,38,-1
 532 426 l 1,0,-1
168 582 m 0,39,40
 168 617 168 617 190 639 c 0,41,42
 213 662 213 662 250 662 c 0,43,44
 285 662 285 662 307 639 c 0,45,46
 332 614 332 614 332 582 c 0,47,48
 332 547 332 547 307 522 c 128,-1,49
 282 497 282 497 250 498 c 0,50,51
 213 498 213 498 190 522 c 0,52,53
 168 543 168 543 168 582 c 0,39,40
EndSplineSet
Ligature2: "'ccmp' Glyph Composition/Decomposition in Hebrew lookup 3 subtable" tavhebrew dageshhebrew
EndChar

StartChar: vavholamhebrew
Encoding: 64331 64331 186
Width: 1060
GlyphClass: 2
Flags: W
AnchorPoint: "Anchor-4" 543 -8 basechar 0
AnchorPoint: "Anchor-3" 115 1184 basechar 0
AnchorPoint: "Anchor-2" 524 1159 basechar 0
AnchorPoint: "Anchor-1" 1020 1208 basechar 0
LayerCount: 2
Fore
SplineSet
614 778 m 1,0,-1
 909 999 l 2,1,2
 934 1017 934 1017 940 1044 c 0,3,4
 946 1075 946 1075 938 1094 c 0,5,6
 928 1117 928 1117 909.5 1133 c 128,-1,7
 891 1149 891 1149 864 1149 c 0,8,9
 835 1149 835 1149 811 1130 c 2,10,-1
 532 922 l 1,11,12
 344 1059 344 1059 264 1106 c 1,13,14
 260 1118 260 1118 254 1130 c 1,15,16
 211 1161 211 1161 170 1141 c 128,-1,17
 129 1121 129 1121 123 1075 c 0,18,19
 117 1032 117 1032 156 999 c 0,20,21
 234 940 234 940 331 867.5 c 128,-1,22
 428 795 428 795 451 778 c 1,23,-1
 451 82 l 2,24,25
 451 29 451 29 492 8 c 0,26,27
 533 -12 533 -12 573 8 c 0,28,29
 614 28 614 28 614 82 c 2,30,-1
 614 778 l 1,0,-1
446 1169 m 0,31,32
 446 1204 446 1204 469 1227 c 128,-1,33
 492 1250 492 1250 528 1249 c 0,34,35
 567 1249 567 1249 588.5 1226.5 c 128,-1,36
 610 1204 610 1204 610 1169 c 0,37,38
 610 1132 610 1132 588 1110 c 0,39,40
 563 1085 563 1085 528 1085 c 128,-1,41
 493 1085 493 1085 469 1110 c 0,42,43
 446 1132 446 1132 446 1169 c 0,31,32
EndSplineSet
Ligature2: "'ccmp' Glyph Composition/Decomposition in Hebrew lookup 4 subtable" vavhebrew holamhebrew
Position2: "Single Positioning lookup 22 subtable" dx=164 dy=0 dh=164 dv=0
Position2: "Single Positioning lookup 21 subtable" dx=205 dy=0 dh=205 dv=0
EndChar

StartChar: uniFB4C
Encoding: 64332 64332 187
Width: 1060
GlyphClass: 2
Flags: W
LayerCount: 2
Fore
SplineSet
334 1188 m 1,0,-1
 334 1292 l 1,1,-1
 737 1292 l 1,2,-1
 737 1188 l 1,3,-1
 334 1188 l 1,0,-1
205 0 m 2,4,-1
 860 0 l 2,5,6
 897 0 897 0 920 23 c 128,-1,7
 943 46 943 46 942 82 c 2,8,-1
 942 313 l 2,9,10
 944 329 944 329 942 344 c 2,11,-1
 942 819 l 2,12,13
 942 858 942 858 919.5 879.5 c 128,-1,14
 897 901 897 901 860 901 c 2,15,-1
 217 901 l 1,16,17
 192 907 192 907 168 895 c 0,18,19
 148 887 148 887 133 858 c 0,20,21
 106 813 106 813 137 772 c 0,22,23
 145 756 145 756 166 745 c 2,24,-1
 778 287 l 1,25,-1
 778 164 l 1,26,-1
 205 164 l 2,27,28
 152 164 152 164 131.5 123 c 128,-1,29
 111 82 111 82 131.5 41 c 128,-1,30
 152 0 152 0 205 0 c 2,4,-1
451 737 m 1,31,-1
 778 737 l 1,32,-1
 778 492 l 1,33,-1
 451 737 l 1,31,-1
EndSplineSet
EndChar

StartChar: uniFB4D
Encoding: 64333 64333 188
Width: 940
GlyphClass: 2
Flags: W
LayerCount: 2
Fore
SplineSet
635 766 m 1,0,-1
 221 924 l 2,1,2
 176 942 176 942 139 911 c 0,3,4
 108 884 108 884 111 836 c 0,5,6
 113 791 113 791 164 772 c 2,7,-1
 762 545 l 1,8,9
 752 473 752 473 725 408 c 0,10,11
 702 351 702 351 659 295 c 0,12,13
 616 240 616 240 555 213 c 0,14,15
 492 184 492 184 408 176 c 0,16,17
 320 168 320 168 209 190 c 0,18,19
 180 196 180 196 156 184 c 0,20,21
 129 172 129 172 121 150 c 0,22,23
 111 127 111 127 111 102 c 128,-1,24
 111 77 111 77 129 57 c 0,25,26
 145 37 145 37 176 31 c 0,27,28
 397 -14 397 -14 559 33 c 0,29,30
 717 80 717 80 787.5 194.5 c 128,-1,31
 858 309 858 309 899 461 c 0,32,33
 940 615 940 615 934 778 c 0,34,35
 930 889 930 889 930 1098 c 0,36,37
 930 1151 930 1151 887 1169 c 128,-1,38
 844 1187 844 1187 805 1165 c 0,39,40
 768 1142 768 1142 768 1090 c 0,41,42
 768 1084 768 1084 768 1069.5 c 128,-1,43
 768 1055 768 1055 769 1029.5 c 128,-1,44
 770 1004 770 1004 772 983 c 0,45,46
 772 960 772 960 775 914 c 128,-1,47
 778 868 778 868 778 850 c 1,48,-1
 590 1139 l 2,49,50
 563 1182 563 1182 514 1178 c 0,51,52
 469 1176 469 1176 449.5 1136 c 128,-1,53
 430 1096 430 1096 451 1049 c 1,54,-1
 635 766 l 1,0,-1
328 1262 m 1,55,-1
 328 1366 l 1,56,-1
 731 1366 l 1,57,-1
 731 1262 l 1,58,-1
 328 1262 l 1,55,-1
EndSplineSet
EndChar

StartChar: uniFB4E
Encoding: 64334 64334 189
Width: 1114
GlyphClass: 2
Flags: W
LayerCount: 2
Fore
SplineSet
788 1108 m 0,0,1
 747 1065 747 1065 715 1040 c 0,2,3
 676 1011 676 1011 621 989 c 0,4,5
 543 958 543 958 532 954 c 0,6,7
 501 944 501 944 432 924 c 0,8,9
 407 918 407 918 376.5 907.5 c 128,-1,10
 346 897 346 897 344 897 c 0,11,12
 293 883 293 883 287 836 c 128,-1,13
 281 789 281 789 311 758 c 0,14,15
 344 725 344 725 393 741 c 0,16,17
 413 747 413 747 463 762 c 0,18,19
 481 766 481 766 506.5 775 c 128,-1,20
 532 784 532 784 539 786 c 0,21,22
 547 788 547 788 570.5 797.5 c 128,-1,23
 594 807 594 807 608 811 c 0,24,25
 626 817 626 817 684 840 c 0,26,27
 711 850 711 850 752 874 c 0,28,29
 772 886 772 886 819 918 c 1,30,31
 829 828 829 828 801 750 c 0,32,33
 768 662 768 662 717 598 c 0,34,35
 660 526 660 526 582 461 c 0,36,37
 521 408 521 408 430 342 c 0,38,39
 356 289 356 289 276 233 c 0,40,41
 192 176 192 176 154 145 c 0,42,43
 129 127 129 127 123 100.5 c 128,-1,44
 117 74 117 74 127 51 c 0,45,46
 133 35 133 35 158 14 c 0,47,48
 174 0 174 0 205 0 c 0,49,50
 232 0 232 0 256 18 c 0,51,52
 315 65 315 65 375 111 c 0,53,54
 395 127 395 127 427 150.5 c 128,-1,55
 459 174 459 174 478.5 189.5 c 128,-1,56
 498 205 498 205 514 217 c 0,57,58
 557 250 557 250 651 334 c 0,59,60
 733 408 733 408 782 465 c 0,61,62
 835 528 835 528 887 602 c 0,63,64
 936 674 936 674 961 754 c 0,65,66
 979 813 979 813 979 911 c 0,67,68
 979 999 979 999 942 1081 c 1,69,70
 940 1104 940 1104 920 1122 c 1,71,72
 902 1145 902 1145 881 1147 c 0,73,74
 842 1157 842 1157 807 1126 c 0,75,76
 805 1124 805 1124 797.5 1118 c 128,-1,77
 790 1112 790 1112 788 1108 c 0,0,1
424 1188 m 1,78,-1
 424 1292 l 1,79,-1
 827 1292 l 1,80,-1
 827 1188 l 1,81,-1
 424 1188 l 1,78,-1
EndSplineSet
EndChar

StartChar: uniFB4F
Encoding: 64335 64335 190
Width: 1148
GlyphClass: 2
Flags: W
AnchorPoint: "Anchor-4" 532 0 basechar 0
AnchorPoint: "Anchor-3" -82 1188 basechar 0
AnchorPoint: "Anchor-2" 922 1188 basechar 0
AnchorPoint: "Anchor-1" 614 1188 basechar 0
LayerCount: 2
Fore
SplineSet
250 1411 m 1,0,-1
 250 1061 l 1,1,-1
 344 1061 l 1,2,-1
 684 586 l 1,3,4
 731 617 731 617 750 645 c 0,5,6
 779 686 779 686 791 737 c 0,7,8
 807 805 807 805 834 1061 c 1,9,-1
 1032 1061 l 1,10,-1
 1008 842 l 2,11,12
 990 686 990 686 940 604 c 0,13,14
 889 518 889 518 780 449 c 1,15,-1
 1098 0 l 1,16,-1
 862 0 l 1,17,-1
 250 862 l 1,18,-1
 55 862 l 1,19,-1
 55 1411 l 1,20,-1
 250 1411 l 1,0,-1
EndSplineSet
Position2: "Single Positioning lookup 21 subtable" dx=205 dy=0 dh=205 dv=0
EndChar

StartChar: finalkafqamatshebrew
Encoding: 65538 -1 191
Width: 1060
GlyphClass: 2
Flags: W
AnchorPoint: "Anchor-5" 723 14 basechar 0
AnchorPoint: "Anchor-3" 260 1079 basechar 0
AnchorPoint: "Anchor-2" 793 1284 basechar 0
AnchorPoint: "Anchor-1" 559 1448 basechar 0
LayerCount: 2
Fore
SplineSet
782 1114 m 0,0,1
 782 1100 782 1100 791 874 c 1,2,-1
 606 1157 l 2,3,4
 586 1192 586 1192 551 1194 c 0,5,6
 512 1196 512 1196 492 1182 c 0,7,8
 467 1164 467 1164 455 1133 c 0,9,10
 443 1104 443 1104 467 1067 c 2,11,-1
 649 786 l 1,12,-1
 238 942 l 2,13,14
 191 958 191 958 156 930 c 0,15,16
 121 899 121 899 127 854 c 128,-1,17
 133 809 133 809 180 791 c 2,18,-1
 782 563 l 1,19,20
 772 467 772 467 754 412 c 0,21,22
 731 342 731 342 690 287 c 0,23,24
 647 232 647 232 590 201 c 0,25,26
 531 170 531 170 440 170 c 0,27,28
 348 170 348 170 233 207 c 0,29,30
 184 221 184 221 152 190 c 0,31,32
 121 159 121 159 127 113 c 0,33,34
 133 66 133 66 184 51 c 0,35,36
 307 12 307 12 401 4 c 0,37,38
 487 -4 487 -4 571 14 c 0,39,40
 639 28 639 28 702 72 c 0,41,42
 761 115 761 115 799 168 c 0,43,44
 836 221 836 221 862 295 c 0,45,46
 891 375 891 375 905 442 c 0,47,48
 921 526 921 526 930 604 c 0,49,50
 936 624 936 624 934 641 c 0,51,52
 938 690 938 690 942 795 c 0,53,54
 944 848 944 848 944 975 c 0,55,56
 944 1014 944 1014 945 1059 c 128,-1,57
 946 1104 946 1104 946 1110 c 0,58,59
 946 1163 946 1163 907 1183.5 c 128,-1,60
 868 1204 868 1204 825 1185.5 c 128,-1,61
 782 1167 782 1167 782 1114 c 0,0,1
451 -373 m 1,62,-1
 451 -164 l 1,63,-1
 307 -164 l 1,64,-1
 307 -59 l 1,65,-1
 709 -59 l 1,66,-1
 709 -164 l 1,67,-1
 567 -164 l 1,68,-1
 567 -373 l 1,69,-1
 451 -373 l 1,62,-1
EndSplineSet
Ligature2: "'ccmp' Glyph Composition/Decomposition in Hebrew lookup 2 subtable" finalkafhebrew qamatshebrew
Position2: "Single Positioning lookup 21 subtable" dx=205 dy=0 dh=205 dv=0
EndChar

StartChar: finalkafshevahebrew
Encoding: 65539 -1 192
Width: 1060
GlyphClass: 2
Flags: W
AnchorPoint: "Anchor-5" 696 -27 basechar 0
AnchorPoint: "Anchor-3" 342 1010 basechar 0
AnchorPoint: "Anchor-2" 805 1270 basechar 0
AnchorPoint: "Anchor-1" 696 1366 basechar 0
LayerCount: 2
Fore
SplineSet
782 1114 m 0,0,1
 782 1100 782 1100 791 874 c 1,2,-1
 606 1157 l 2,3,4
 586 1192 586 1192 551 1194 c 0,5,6
 512 1196 512 1196 492 1182 c 0,7,8
 467 1164 467 1164 455 1133 c 0,9,10
 443 1104 443 1104 467 1067 c 2,11,-1
 649 786 l 1,12,-1
 238 942 l 2,13,14
 191 958 191 958 156 930 c 0,15,16
 121 899 121 899 127 854 c 128,-1,17
 133 809 133 809 180 791 c 2,18,-1
 782 563 l 1,19,20
 772 467 772 467 754 412 c 0,21,22
 731 342 731 342 690 287 c 0,23,24
 647 232 647 232 590 201 c 0,25,26
 531 170 531 170 440 170 c 0,27,28
 348 170 348 170 233 207 c 0,29,30
 184 221 184 221 152 190 c 0,31,32
 121 159 121 159 127 113 c 0,33,34
 133 66 133 66 184 51 c 0,35,36
 307 12 307 12 401 4 c 0,37,38
 487 -4 487 -4 571 14 c 0,39,40
 639 28 639 28 702 72 c 0,41,42
 761 115 761 115 799 168 c 0,43,44
 836 221 836 221 862 295 c 0,45,46
 891 375 891 375 905 442 c 0,47,48
 921 526 921 526 930 604 c 0,49,50
 936 624 936 624 934 641 c 0,51,52
 938 690 938 690 942 795 c 0,53,54
 944 848 944 848 944 975 c 0,55,56
 944 1014 944 1014 945 1059 c 128,-1,57
 946 1104 946 1104 946 1110 c 0,58,59
 946 1163 946 1163 907 1183.5 c 128,-1,60
 868 1204 868 1204 825 1185.5 c 128,-1,61
 782 1167 782 1167 782 1114 c 0,0,1
397 -330 m 0,62,63
 397 -297 397 -297 422 -272 c 0,64,65
 445 -249 445 -249 479 -250 c 0,66,67
 518 -250 518 -250 539.5 -272.5 c 128,-1,68
 561 -295 561 -295 561 -330 c 0,69,70
 561 -367 561 -367 539 -389 c 0,71,72
 514 -414 514 -414 479 -414 c 0,73,74
 446 -414 446 -414 421.5 -389.5 c 128,-1,75
 397 -365 397 -365 397 -330 c 0,62,63
397 -86 m 128,-1,77
 397 -53 397 -53 421.5 -28.5 c 128,-1,78
 446 -4 446 -4 479 -4 c 0,79,80
 514 -4 514 -4 539 -29 c 0,81,82
 562 -52 562 -52 561.5 -86.5 c 128,-1,83
 561 -121 561 -121 539 -143 c 0,84,85
 514 -168 514 -168 479 -168 c 0,86,87
 446 -168 446 -168 421.5 -143.5 c 128,-1,76
 397 -119 397 -119 397 -86 c 128,-1,77
EndSplineSet
Ligature2: "'ccmp' Glyph Composition/Decomposition in Hebrew lookup 2 subtable" finalkafhebrew shevahebrew
Position2: "Single Positioning lookup 21 subtable" dx=205 dy=0 dh=205 dv=0
EndChar

